<?xml version="1.0" encoding="UTF-8" standalone="no"?>
<!-- Created with Inkscape (http://www.inkscape.org/) -->

<svg
   xmlns:dc="http://purl.org/dc/elements/1.1/"
   xmlns:cc="http://creativecommons.org/ns#"
   xmlns:rdf="http://www.w3.org/1999/02/22-rdf-syntax-ns#"
   xmlns:svg="http://www.w3.org/2000/svg"
   xmlns="http://www.w3.org/2000/svg"
   xmlns:xlink="http://www.w3.org/1999/xlink"
   xmlns:sodipodi="http://sodipodi.sourceforge.net/DTD/sodipodi-0.dtd"
   xmlns:inkscape="http://www.inkscape.org/namespaces/inkscape"
   version="1.0"
   width="320"
   height="320"
   viewBox="0.5 25.1 320 320"
   id="svg2478"
   xml:space="preserve"
   inkscape:version="0.48.4 r9939"
   sodipodi:docname="qtractor-session.svgz"><sodipodi:namedview
     pagecolor="#ffffff"
     bordercolor="#666666"
     borderopacity="1"
     objecttolerance="10"
     gridtolerance="10"
     guidetolerance="10"
     inkscape:pageopacity="0"
     inkscape:pageshadow="2"
     inkscape:window-width="640"
     inkscape:window-height="480"
     id="namedview207"
     showgrid="false"
     inkscape:zoom="0.7375"
     inkscape:cx="160"
     inkscape:cy="160"
     inkscape:window-x="0"
     inkscape:window-y="0"
     inkscape:window-maximized="0"
     inkscape:current-layer="svg2478" /><metadata
     id="metadata54"><rdf:RDF><cc:Work
         rdf:about=""><dc:format>image/svg+xml</dc:format><dc:type
           rdf:resource="http://purl.org/dc/dcmitype/StillImage" /><dc:title /></cc:Work></rdf:RDF></metadata><defs
     id="defs2480"><linearGradient
       id="linearGradient3251"><stop
         id="stop3253"
         style="stop-color:#000000;stop-opacity:1"
         offset="0" /><stop
         id="stop3255"
         style="stop-color:#000000;stop-opacity:0"
         offset="1" /></linearGradient><linearGradient
       id="linearGradient3591"><stop
         id="stop3593"
         style="stop-color:#ffffff;stop-opacity:1"
         offset="0" /><stop
         id="stop3595"
         style="stop-color:#969696;stop-opacity:1"
         offset="1" /></linearGradient><linearGradient
       id="linearGradient3399"><stop
         id="stop3401"
         style="stop-color:#000000;stop-opacity:0.23529412"
         offset="0" /><stop
         id="stop3403"
         style="stop-color:#969696;stop-opacity:0"
         offset="1" /></linearGradient><linearGradient
       x1="80.5"
       y1="506"
       x2="229.86604"
       y2="357.5979"
       id="linearGradient3405"
       xlink:href="#linearGradient3399"
       gradientUnits="userSpaceOnUse"
       gradientTransform="matrix(0.62918911,0,0,0.62918911,-0.487383,11.005584)" /><linearGradient
       x1="368.36868"
       y1="115.66505"
       x2="389.52469"
       y2="95.825417"
       id="linearGradient3597"
       xlink:href="#linearGradient3591"
       gradientUnits="userSpaceOnUse"
       gradientTransform="matrix(0.62918911,0,0,0.62918911,-0.317944,10.836149)" /><filter
       x="-0.384"
       y="-0.384"
       width="1.768"
       height="1.768"
       color-interpolation-filters="sRGB"
       id="filter3715"><feGaussianBlur
         result="fbSourceGraphic"
         stdDeviation="14.421378"
         id="feGaussianBlur3717" /><feColorMatrix
         id="feColorMatrix4023"
         values="0 0 0 -1 0 0 0 0 -1 0 0 0 0 -1 0 0 0 0 1 0"
         in="fbSourceGraphic"
         result="fbSourceGraphicAlpha" /><feFlood
         in="fbSourceGraphic"
         result="flood"
         flood-color="rgb(0,0,0)"
         flood-opacity="0.8"
         id="feFlood4025" /><feComposite
         in2="fbSourceGraphic"
         operator="in"
         in="flood"
         result="composite1"
         id="feComposite4027" /><feGaussianBlur
         result="blur"
         stdDeviation="0.5"
         id="feGaussianBlur4029" /><feOffset
         result="offset"
         dy="0.5"
         dx="0.5"
         id="feOffset4031" /><feComposite
         in2="offset"
         operator="over"
         in="fbSourceGraphic"
         result="composite2"
         id="feComposite4033" /></filter><filter
       color-interpolation-filters="sRGB"
       id="filter3731"><feGaussianBlur
         result="fbSourceGraphic"
         stdDeviation="4.397419"
         id="feGaussianBlur3733" /><feColorMatrix
         id="feColorMatrix3987"
         values="0 0 0 -1 0 0 0 0 -1 0 0 0 0 -1 0 0 0 0 1 0"
         in="fbSourceGraphic"
         result="fbSourceGraphicAlpha" /><feFlood
         in="fbSourceGraphic"
         result="flood"
         flood-color="rgb(0,0,0)"
         flood-opacity="0.8"
         id="feFlood3989" /><feComposite
         in2="fbSourceGraphic"
         operator="in"
         in="flood"
         result="composite1"
         id="feComposite3991" /><feGaussianBlur
         result="blur"
         stdDeviation="0.5"
         id="feGaussianBlur3993" /><feOffset
         result="offset"
         dy="0.5"
         dx="0.5"
         id="feOffset3995" /><feComposite
         in2="offset"
         operator="over"
         in="fbSourceGraphic"
         result="composite2"
         id="feComposite3997" /></filter><linearGradient
       x1="348.03799"
       y1="139.48338"
       x2="394.19592"
       y2="83.418686"
       id="linearGradient3257"
       xlink:href="#linearGradient3251"
       gradientUnits="userSpaceOnUse"
       gradientTransform="matrix(0.62918911,0,0,0.62918911,-0.317944,10.836149)" /><linearGradient
       x1="37.510269"
       y1="233.71439"
       x2="65.396782"
       y2="234.01086"
       id="linearGradient2598"
       xlink:href="#linearGradient2300"
       gradientUnits="userSpaceOnUse"
       gradientTransform="matrix(1.6428398,0,0,0.60870206,158.13213,171.72624)" /><linearGradient
       id="linearGradient2300"><stop
         id="stop2301"
         style="stop-color:#ffffff;stop-opacity:0"
         offset="0" /><stop
         id="stop2302"
         style="stop-color:#ffffff;stop-opacity:0.02083333"
         offset="0.49620155" /><stop
         id="stop2303"
         style="stop-color:#ffffff;stop-opacity:0.53125"
         offset="1" /></linearGradient><radialGradient
       cx="104.16225"
       cy="56.434128"
       r="20.573109"
       fx="86.443153"
       fy="60.640793"
       id="radialGradient2286"
       xlink:href="#linearGradient2283"
       gradientUnits="userSpaceOnUse"
       gradientTransform="matrix(0.92415411,0,0,1.0820706,158.13213,171.72624)" /><linearGradient
       id="linearGradient2283"><stop
         id="stop2284"
         style="stop-color:#1d1100;stop-opacity:0.66666669"
         offset="0" /><stop
         id="stop2292"
         style="stop-color:#4f340c;stop-opacity:0.3019608"
         offset="0.52658916" /><stop
         id="stop2285"
         style="stop-color:#3d3001;stop-opacity:0"
         offset="1" /></linearGradient><linearGradient
       x1="24.213547"
       y1="116.09802"
       x2="23.555603"
       y2="104.70263"
       id="linearGradient2460"
       xlink:href="#linearGradient2310"
       gradientUnits="userSpaceOnUse"
       gradientTransform="matrix(1.3401228,0,0,0.74620027,158.13213,171.72624)" /><linearGradient
       id="linearGradient2310"><stop
         id="stop2311"
         style="stop-color:#6f6234;stop-opacity:1"
         offset="0" /><stop
         id="stop2312"
         style="stop-color:#7f7655;stop-opacity:1"
         offset="0.5" /><stop
         id="stop2313"
         style="stop-color:#2d2711;stop-opacity:1"
         offset="1" /></linearGradient><linearGradient
       x1="39.0186"
       y1="273.27609"
       x2="82.800323"
       y2="253.12456"
       id="linearGradient2341"
       xlink:href="#linearGradient2283"
       gradientUnits="userSpaceOnUse"
       gradientTransform="matrix(0.58792473,0,0,0.53193195,162.94371,162.29335)" /><linearGradient
       x1="66.331886"
       y1="210.39685"
       x2="45.223713"
       y2="233.75758"
       id="linearGradient2297"
       xlink:href="#linearGradient2300"
       gradientUnits="userSpaceOnUse"
       gradientTransform="matrix(0.50192253,0,0,0.62307612,162.94371,162.29335)" /><linearGradient
       x1="90.819748"
       y1="378.08109"
       x2="66.362534"
       y2="257.43356"
       id="linearGradient2309"
       xlink:href="#linearGradient2310"
       gradientUnits="userSpaceOnUse"
       gradientTransform="matrix(0.6826697,0,0,0.45810729,162.94371,162.29335)" /><linearGradient
       x1="23.702499"
       y1="838.7912"
       x2="24.908026"
       y2="894.38965"
       id="linearGradient2316"
       xlink:href="#linearGradient2310"
       gradientUnits="userSpaceOnUse"
       gradientTransform="matrix(2.4072417,0,0,0.12991465,162.94371,162.29335)" /><linearGradient
       x1="182.66629"
       y1="74.241096"
       x2="226.58182"
       y2="192.06569"
       id="linearGradient2305"
       xlink:href="#linearGradient2300"
       gradientUnits="userSpaceOnUse"
       gradientTransform="matrix(0.52410814,0,0,0.5967012,162.94371,162.29335)" /><linearGradient
       x1="106.914"
       y1="137.88609"
       x2="291.10141"
       y2="-13.31976"
       id="linearGradient2287"
       xlink:href="#linearGradient2288"
       gradientUnits="userSpaceOnUse"
       gradientTransform="matrix(0.4886735,0,0,0.63996911,162.94371,162.29335)" /><linearGradient
       id="linearGradient2288"><stop
         id="stop2289"
         style="stop-color:#ede1b9;stop-opacity:1"
         offset="0" /><stop
         id="stop2291"
         style="stop-color:#7a7152;stop-opacity:1"
         offset="0.5" /><stop
         id="stop2290"
         style="stop-color:#927f39;stop-opacity:1"
         offset="1" /></linearGradient><linearGradient
       x1="167.39171"
       y1="44.529011"
       x2="423.51007"
       y2="288.53598"
       id="linearGradient2293"
       xlink:href="#linearGradient2288"
       gradientUnits="userSpaceOnUse"
       gradientTransform="matrix(0.48918019,0,0,0.63930626,162.94371,162.29335)" /><linearGradient
       x1="281.13409"
       y1="52.915524"
       x2="139.00256"
       y2="167.97038"
       id="linearGradient2306"
       xlink:href="#linearGradient2288"
       gradientUnits="userSpaceOnUse"
       gradientTransform="matrix(0.48918019,0,0,0.63930626,162.94371,162.29335)" /><linearGradient
       x1="52.201797"
       y1="222.93559"
       x2="80.842079"
       y2="139.83662"
       id="linearGradient2296"
       xlink:href="#linearGradient2288"
       gradientUnits="userSpaceOnUse"
       gradientTransform="matrix(0.65514612,0,0,0.47735299,162.94371,162.29335)" /><linearGradient
       x1="187.51826"
       y1="82.686104"
       x2="197.01286"
       y2="82.686104"
       id="linearGradient2318"
       xlink:href="#linearGradient2310"
       gradientUnits="userSpaceOnUse"
       gradientTransform="matrix(0.25436979,0,0,1.229454,162.94371,162.29335)" /><radialGradient
       cx="198.31409"
       cy="109.0567"
       r="63.508423"
       fx="143.61588"
       fy="122.04253"
       id="radialGradient3175"
       xlink:href="#linearGradient2283"
       gradientUnits="userSpaceOnUse"
       gradientTransform="matrix(0.51681284,0,0,0.60512418,162.94371,162.29335)" /><filter
       color-interpolation-filters="sRGB"
       id="filter3581"><feFlood
         result="flood"
         flood-color="rgb(0,0,0)"
         flood-opacity="0.3"
         id="feFlood3583" /><feComposite
         in2="SourceGraphic"
         operator="in"
         in="flood"
         result="composite1"
         id="feComposite3585" /><feGaussianBlur
         result="blur"
         stdDeviation="4"
         id="feGaussianBlur3587" /><feOffset
         result="offset"
         dy="4"
         dx="4"
         id="feOffset3589" /><feComposite
         in2="offset"
         operator="over"
         in="SourceGraphic"
         result="composite2"
         id="feComposite3591" /></filter><filter
       color-interpolation-filters="sRGB"
       id="filter3593"><feFlood
         result="flood"
         flood-color="rgb(0,0,0)"
         flood-opacity="0.3"
         id="feFlood3595" /><feComposite
         in2="SourceGraphic"
         operator="in"
         in="flood"
         result="composite1"
         id="feComposite3597" /><feGaussianBlur
         result="blur"
         stdDeviation="4"
         id="feGaussianBlur3599" /><feOffset
         result="offset"
         dy="4"
         dx="4"
         id="feOffset3601" /><feComposite
         in2="offset"
         operator="over"
         in="SourceGraphic"
         result="composite2"
         id="feComposite3603" /></filter><filter
       color-interpolation-filters="sRGB"
       id="filter3605"><feFlood
         result="flood"
         flood-color="rgb(0,0,0)"
         flood-opacity="0.3"
         id="feFlood3607" /><feComposite
         in2="SourceGraphic"
         operator="in"
         in="flood"
         result="composite1"
         id="feComposite3609" /><feGaussianBlur
         result="blur"
         stdDeviation="4"
         id="feGaussianBlur3611" /><feOffset
         result="offset"
         dy="4"
         dx="4"
         id="feOffset3613" /><feComposite
         in2="offset"
         operator="over"
         in="SourceGraphic"
         result="composite2"
         id="feComposite3615" /></filter><filter
       color-interpolation-filters="sRGB"
       id="filter3617"><feFlood
         result="flood"
         flood-color="rgb(0,0,0)"
         flood-opacity="0.3"
         id="feFlood3619" /><feComposite
         in2="SourceGraphic"
         operator="in"
         in="flood"
         result="composite1"
         id="feComposite3621" /><feGaussianBlur
         result="blur"
         stdDeviation="4"
         id="feGaussianBlur3623" /><feOffset
         result="offset"
         dy="4"
         dx="4"
         id="feOffset3625" /><feComposite
         in2="offset"
         operator="over"
         in="SourceGraphic"
         result="composite2"
         id="feComposite3627" /></filter><filter
       color-interpolation-filters="sRGB"
       id="filter3629"><feFlood
         result="flood"
         flood-color="rgb(0,0,0)"
         flood-opacity="0.3"
         id="feFlood3631" /><feComposite
         in2="SourceGraphic"
         operator="in"
         in="flood"
         result="composite1"
         id="feComposite3633" /><feGaussianBlur
         result="blur"
         stdDeviation="4"
         id="feGaussianBlur3635" /><feOffset
         result="offset"
         dy="4"
         dx="4"
         id="feOffset3637" /><feComposite
         in2="offset"
         operator="over"
         in="SourceGraphic"
         result="composite2"
         id="feComposite3639" /></filter><filter
       color-interpolation-filters="sRGB"
       id="filter3641"><feFlood
         result="flood"
         flood-color="rgb(0,0,0)"
         flood-opacity="0.3"
         id="feFlood3643" /><feComposite
         in2="SourceGraphic"
         operator="in"
         in="flood"
         result="composite1"
         id="feComposite3645" /><feGaussianBlur
         result="blur"
         stdDeviation="4"
         id="feGaussianBlur3647" /><feOffset
         result="offset"
         dy="4"
         dx="4"
         id="feOffset3649" /><feComposite
         in2="offset"
         operator="over"
         in="SourceGraphic"
         result="composite2"
         id="feComposite3651" /></filter><filter
       color-interpolation-filters="sRGB"
       id="filter3653"><feFlood
         result="flood"
         flood-color="rgb(0,0,0)"
         flood-opacity="0.3"
         id="feFlood3655" /><feComposite
         in2="SourceGraphic"
         operator="in"
         in="flood"
         result="composite1"
         id="feComposite3657" /><feGaussianBlur
         result="blur"
         stdDeviation="4"
         id="feGaussianBlur3659" /><feOffset
         result="offset"
         dy="4"
         dx="4"
         id="feOffset3661" /><feComposite
         in2="offset"
         operator="over"
         in="SourceGraphic"
         result="composite2"
         id="feComposite3663" /></filter><filter
       color-interpolation-filters="sRGB"
       id="filter3665"><feFlood
         result="flood"
         flood-color="rgb(0,0,0)"
         flood-opacity="0.3"
         id="feFlood3667" /><feComposite
         in2="SourceGraphic"
         operator="in"
         in="flood"
         result="composite1"
         id="feComposite3669" /><feGaussianBlur
         result="blur"
         stdDeviation="4"
         id="feGaussianBlur3671" /><feOffset
         result="offset"
         dy="4"
         dx="4"
         id="feOffset3673" /><feComposite
         in2="offset"
         operator="over"
         in="SourceGraphic"
         result="composite2"
         id="feComposite3675" /></filter><filter
       color-interpolation-filters="sRGB"
       id="filter3677"><feFlood
         result="flood"
         flood-color="rgb(0,0,0)"
         flood-opacity="0.3"
         id="feFlood3679" /><feComposite
         in2="SourceGraphic"
         operator="in"
         in="flood"
         result="composite1"
         id="feComposite3681" /><feGaussianBlur
         result="blur"
         stdDeviation="4"
         id="feGaussianBlur3683" /><feOffset
         result="offset"
         dy="4"
         dx="4"
         id="feOffset3685" /><feComposite
         in2="offset"
         operator="over"
         in="SourceGraphic"
         result="composite2"
         id="feComposite3687" /></filter><filter
       color-interpolation-filters="sRGB"
       id="filter3689"><feFlood
         result="flood"
         flood-color="rgb(0,0,0)"
         flood-opacity="0.3"
         id="feFlood3691" /><feComposite
         in2="SourceGraphic"
         operator="in"
         in="flood"
         result="composite1"
         id="feComposite3693" /><feGaussianBlur
         result="blur"
         stdDeviation="4"
         id="feGaussianBlur3695" /><feOffset
         result="offset"
         dy="4"
         dx="4"
         id="feOffset3697" /><feComposite
         in2="offset"
         operator="over"
         in="SourceGraphic"
         result="composite2"
         id="feComposite3699" /></filter><filter
       color-interpolation-filters="sRGB"
       id="filter3701"><feFlood
         result="flood"
         flood-color="rgb(0,0,0)"
         flood-opacity="0.3"
         id="feFlood3703" /><feComposite
         in2="SourceGraphic"
         operator="in"
         in="flood"
         result="composite1"
         id="feComposite3705" /><feGaussianBlur
         result="blur"
         stdDeviation="4"
         id="feGaussianBlur3707" /><feOffset
         result="offset"
         dy="4"
         dx="4"
         id="feOffset3709" /><feComposite
         in2="offset"
         operator="over"
         in="SourceGraphic"
         result="composite2"
         id="feComposite3711" /></filter><filter
       color-interpolation-filters="sRGB"
       id="filter3713"><feFlood
         result="flood"
         flood-color="rgb(0,0,0)"
         flood-opacity="0.3"
         id="feFlood3715" /><feComposite
         in2="SourceGraphic"
         operator="in"
         in="flood"
         result="composite1"
         id="feComposite3717" /><feGaussianBlur
         result="blur"
         stdDeviation="4"
         id="feGaussianBlur3719" /><feOffset
         result="offset"
         dy="4"
         dx="4"
         id="feOffset3721" /><feComposite
         in2="offset"
         operator="over"
         in="SourceGraphic"
         result="composite2"
         id="feComposite3723" /></filter><filter
       color-interpolation-filters="sRGB"
       id="filter3725"><feFlood
         result="flood"
         flood-color="rgb(0,0,0)"
         flood-opacity="0.3"
         id="feFlood3727" /><feComposite
         in2="SourceGraphic"
         operator="in"
         in="flood"
         result="composite1"
         id="feComposite3729" /><feGaussianBlur
         result="blur"
         stdDeviation="4"
         id="feGaussianBlur3731" /><feOffset
         result="offset"
         dy="4"
         dx="4"
         id="feOffset3733" /><feComposite
         in2="offset"
         operator="over"
         in="SourceGraphic"
         result="composite2"
         id="feComposite3735" /></filter><filter
       color-interpolation-filters="sRGB"
       id="filter3737"><feFlood
         result="flood"
         flood-color="rgb(0,0,0)"
         flood-opacity="0.3"
         id="feFlood3739" /><feComposite
         in2="SourceGraphic"
         operator="in"
         in="flood"
         result="composite1"
         id="feComposite3741" /><feGaussianBlur
         result="blur"
         stdDeviation="4"
         id="feGaussianBlur3743" /><feOffset
         result="offset"
         dy="4"
         dx="4"
         id="feOffset3745" /><feComposite
         in2="offset"
         operator="over"
         in="SourceGraphic"
         result="composite2"
         id="feComposite3747" /></filter><filter
       color-interpolation-filters="sRGB"
       id="filter3749"><feFlood
         result="flood"
         flood-color="rgb(0,0,0)"
         flood-opacity="0.3"
         id="feFlood3751" /><feComposite
         in2="SourceGraphic"
         operator="in"
         in="flood"
         result="composite1"
         id="feComposite3753" /><feGaussianBlur
         result="blur"
         stdDeviation="4"
         id="feGaussianBlur3755" /><feOffset
         result="offset"
         dy="4"
         dx="4"
         id="feOffset3757" /><feComposite
         in2="offset"
         operator="over"
         in="SourceGraphic"
         result="composite2"
         id="feComposite3759" /></filter><filter
       color-interpolation-filters="sRGB"
       id="filter3999"><feFlood
         result="flood"
         flood-color="rgb(0,0,0)"
         flood-opacity="0.8"
         id="feFlood4001" /><feComposite
         in2="SourceGraphic"
         operator="in"
         in="flood"
         result="composite1"
         id="feComposite4003" /><feGaussianBlur
         result="blur"
         stdDeviation="0.5"
         id="feGaussianBlur4005" /><feOffset
         result="offset"
         dy="0.5"
         dx="0.5"
         id="feOffset4007" /><feComposite
         in2="offset"
         operator="over"
         in="SourceGraphic"
         result="composite2"
         id="feComposite4009" /></filter><filter
       color-interpolation-filters="sRGB"
       id="filter4011"><feFlood
         result="flood"
         flood-color="rgb(0,0,0)"
         flood-opacity="0.8"
         id="feFlood4013" /><feComposite
         in2="SourceGraphic"
         operator="in"
         in="flood"
         result="composite1"
         id="feComposite4015" /><feGaussianBlur
         result="blur"
         stdDeviation="0.5"
         id="feGaussianBlur4017" /><feOffset
         result="offset"
         dy="0.5"
         dx="0.5"
         id="feOffset4019" /><feComposite
         in2="offset"
         operator="over"
         in="SourceGraphic"
         result="composite2"
         id="feComposite4021" /></filter><filter
       color-interpolation-filters="sRGB"
       id="filter4035"><feFlood
         result="flood"
         flood-color="rgb(0,0,0)"
         flood-opacity="0.8"
         id="feFlood4037" /><feComposite
         in2="SourceGraphic"
         operator="in"
         in="flood"
         result="composite1"
         id="feComposite4039" /><feGaussianBlur
         result="blur"
         stdDeviation="0.5"
         id="feGaussianBlur4041" /><feOffset
         result="offset"
         dy="0.5"
         dx="0.5"
         id="feOffset4043" /><feComposite
         in2="offset"
         operator="over"
         in="SourceGraphic"
         result="composite2"
         id="feComposite4045" /></filter><filter
       color-interpolation-filters="sRGB"
       id="filter4047"><feFlood
         result="flood"
         flood-color="rgb(0,0,0)"
         flood-opacity="0.8"
         id="feFlood4049" /><feComposite
         in2="SourceGraphic"
         operator="in"
         in="flood"
         result="composite1"
         id="feComposite4051" /><feGaussianBlur
         result="blur"
         stdDeviation="0.5"
         id="feGaussianBlur4053" /><feOffset
         result="offset"
         dy="0.5"
         dx="0.5"
         id="feOffset4055" /><feComposite
         in2="offset"
         operator="over"
         in="SourceGraphic"
         result="composite2"
         id="feComposite4057" /></filter></defs><path
     d="m 65.840457,40.220841 0,490.995019 388.895103,0 c 0,0 0.0879,-259.81807 0,-335.35727 -0.0227,-19.47263 -2.21033,-30.63677 -14.21047,-43.39131 C 385.21346,93.678448 362.19141,71.631941 340.14323,51.220087 333.95591,45.491962 327.07219,40.426681 305.47897,40.220841 c -30.32991,-0.289103 -136.66255,-0.192659 -239.638513,0 z"
     transform="matrix(0.60095009,0,0,0.60990025,7.405256,12.544777)"
     id="path3431"
     style="fill:#0a0a0a;fill-opacity:0.39215686;fill-rule:evenodd;stroke:#000000;stroke-width:0.42872402;stroke-linecap:butt;stroke-linejoin:miter;stroke-miterlimit:4;stroke-opacity:1;stroke-dasharray:none;filter:url(#filter3731)" /><rect
     width="512"
     height="512"
     x="-63.87389"
     y="-157.88264"
     id="rect2482"
     style="fill:none;stroke:#000000;stroke-width:1.06089997;display:none" /><path
     d="m 50.331779,35.437445 0,293.768395 223.991331,0 c 0,0 0.28117,-152.22456 0.23056,-197.42061 -0.013,-11.6507 -1.95096,-20.74724 -9.2223,-28.03658 -35.77723,-35.865747 -43.50383,-43.407781 -56.20288,-55.620448 -3.5637,-3.427212 -9.7188,-12.106492 -20.77247,-12.690757 -17.46989,-0.03146 -78.71332,-0.11528 -138.024241,0 z"
     id="path3419"
     style="fill:#d7e3f4;fill-opacity:1;fill-rule:evenodd;stroke:#000000;stroke-width:0.25167563999999998;stroke-linecap:butt;stroke-linejoin:miter;stroke-miterlimit:4;stroke-opacity:1;stroke-dasharray:none;filter:url(#filter3999)" /><rect
     width="166.49677"
     height="206.69617"
     x="50.331779"
     y="122.50967"
     id="rect3395"
     style="fill:url(#linearGradient3405);fill-opacity:1;stroke:#000030;stroke-width:0;stroke-miterlimit:4;stroke-opacity:1;stroke-dasharray:none;filter:url(#filter4011)" /><path
     d="m 279.33417,-90.544749 -3.25663,71.544694 67.47259,-17.08596 -64.21596,-54.458734 z"
     transform="matrix(0.62918911,0,0,0.62918911,40.185405,125.96684)"
     id="path3605"
     style="fill:#464646;fill-opacity:1;fill-rule:evenodd;stroke:#000000;stroke-width:1px;stroke-linecap:butt;stroke-linejoin:miter;stroke-opacity:1;filter:url(#filter3715)" /><path
     d="m 217.20738,99.68529 c 14.98975,0.595 39.58408,4.63362 48.86639,11.07976 3.92779,2.72767 8.57919,5.03706 8.4799,21.02018 -0.50827,-13.88667 -1.95096,-20.74724 -9.2223,-28.03658 C 229.55414,67.882903 221.82754,60.340869 209.12849,48.128202 198.87863,37.092596 193.88285,35.729577 188.35602,35.437445 c 16.95253,1.321769 25.12944,17.978884 28.85136,64.247845 z"
     id="path3587"
     style="fill:url(#linearGradient3597);fill-opacity:1;fill-rule:evenodd;stroke:url(#linearGradient3257);stroke-width:0.25167564;stroke-linecap:butt;stroke-linejoin:miter;stroke-miterlimit:4;stroke-opacity:1;stroke-dasharray:none;filter:url(#filter4035)" /><g
     id="g3866"
     style="filter:url(#filter4047)"><g
       transform="matrix(0.69473434,0,0,0.69473434,-102.57811,-110.64912)"
       id="g2385"
       style="filter:url(#filter3749)"><path
         d="m 492.32487,361.86033 c -31.52764,0.35036 -52.24175,31.13956 -53.66996,60.24009 -6.77579,15.79859 11.31048,38.0886 -4.25587,48.44292 -9.50728,8.3168 -22.80738,17.11171 -19.87937,31.6308 2.60953,9.40103 -2.11438,16.6297 -12.28203,14.02507 -8.55418,-0.64335 -17.89262,1.99731 -25.87282,-1.14293 5.57483,-10.42858 -7.18489,-8.33216 -4.64431,1.28783 4.89555,8.33142 16.43414,4.01748 24.56775,5.79353 5.81362,0.59134 23.9162,-0.97983 14.95981,6.16019 -7.20563,1.23009 -17.27007,-2.66183 -22.45445,2.34375 5.2648,4.97804 15.37191,1.1311 22.65276,2.34375 6.1329,4.84812 -11.74191,2.35492 -16.89142,3.03926 -5.76743,0.43608 -17.85624,-0.60745 -19.8204,0.71888 -3.57377,-1.69923 5.16444,6.6794 5.67743,12.6603 -0.4457,10.60012 -0.89141,21.20021 -1.33712,31.80031 -5.65908,4.1325 -15.25944,5.5776 -14.03125,14.40625 3.4138,6.0883 4.8456,15.19451 9.47588,19.43053 42.42472,-0.24766 84.84941,-0.49535 127.27412,-0.74303 0.73475,-9.89461 -10.82933,-12.01763 -16.83813,-17.65102 -3.53621,-5.54798 -0.7664,-14.47965 -1.85209,-21.34254 0.2639,-10.76914 -2.47169,-22.12094 3.82216,-31.71886 -0.46677,-4.74303 -13.31144,-3.57422 -18.61821,-6.05541 -12.90336,-3.78062 -26.46424,-1.22775 -39.70123,-1.79467 -0.52548,-6.1227 13.17892,-1.13505 18.42686,-2.75 5.30367,0.9739 24.21249,-0.14749 12.24634,-4.6875 -10.84938,0 -21.6988,0 -32.5482,0 1.66483,-11.0946 -9.33225,10.30551 -8.90625,-5.4375 13.26125,-4.91039 1.74724,-21.35509 8.3127,-30.26247 8.63544,-0.7874 17.56269,0.67114 26.3123,0.76247 15.42758,30.0134 47.24169,60.24365 83.65628,52.27889 34.97666,-8.65585 46.81555,-49.7352 42.86759,-81.65924 -4.11533,-39.96562 -27.37043,-80.4692 -64.45647,-98.03482 -7.00833,-2.87239 -14.6067,-4.39876 -22.1924,-4.08483 z m -74.40625,171.125 c 13.82837,-2.22069 -0.20583,8.43368 0,0 z"
         id="path2367"
         style="fill:#000000;fill-opacity:0.08264465;fill-rule:evenodd;stroke:none" /><path
         d="m 486.4375,360.65625 c -24.6265,3.39703 -42.74384,25.74433 -47.51244,49.16544 -1.22151,9.89209 -5.16987,19.83603 -2.31668,29.82729 1.03447,9.35696 5.98914,20.92852 -1.92088,28.56977 -8.73867,7.81393 -20.32324,15.14904 -21.88557,27.81106 -1.46797,5.90715 3.81646,13.44997 -2.41488,17.70633 -4.48607,2.97089 -10.1042,-0.14422 -15.13846,0.88112 -5.56363,0.33689 -11.20611,0.62846 -16.65484,-0.77351 2.63225,-3.57704 -1.77427,-9.87514 -5.65417,-6.23376 -6.52315,4.29098 -1.81579,15.2058 5.55635,14.92861 10.6373,2.00614 21.84785,0.0225 32.34823,2.46845 0.34455,2.89372 -6.73679,1.70903 -9.31291,1.49295 -5.50061,-0.34564 -11.46388,0.008 -15.59375,4.15625 1.39258,2.61159 11.39657,4.39985 4.33669,3.79448 -6.18518,0.0729 -12.37006,0.19179 -18.55544,0.23677 2.02831,6.97601 8.8716,12.63111 6.83781,20.4085 -0.35217,8.37426 -0.70437,16.7485 -1.05656,25.12275 -6.09576,3.41514 -15.63342,7.26553 -14.03125,15.9375 3.78248,6.67265 4.62349,15.77105 11.0625,20.5 42.97917,-0.23806 85.95831,-0.48829 128.9375,-0.71875 1.496,-9.97281 -8.84186,-14.76618 -15.73562,-19.25362 -5.3883,-5.55207 -1.83342,-13.98985 -2.95898,-20.87461 0.0265,-10.75719 -2.05405,-22.58461 4.0071,-32.21552 -3.57387,-7.48075 -13.46786,-4.64336 -19.83009,-7.68108 -2.513,-0.82546 -8.07493,-1.38764 -8.79491,-1.66267 2.94081,-0.84843 7.28402,-2.8557 3.0625,-5.59375 -6.19999,-4.14852 -14.10853,-0.95952 -21.04046,-1.96875 -4.25962,-0.59166 -11.06414,1.19213 -13.70954,-0.90625 -1.21884,-4.8946 -6.17949,0.34107 -8.53125,0.71875 -1.25451,-4.30662 5.5931,-5.47093 5.56362,-9.9172 2.14284,-7.28856 -1.86367,-15.38966 1.68638,-22.3953 8.09257,-0.0484 16.17586,0.20236 24.25,0.75 13.07908,23.82726 33.60617,45.96111 60.93036,52.37064 19.92509,4.32482 42.42814,-3.28714 53.80557,-20.61747 16.97492,-23.30691 17.79257,-54.61272 10.90874,-81.69679 -7.99017,-31.72525 -27.56743,-61.5055 -56.47198,-77.65999 -10.44875,-5.94588 -22.26529,-7.92253 -34.17269,-6.67764 z m -65,173.65625 c -1.79245,0.78027 -1.59232,-0.71794 0,0 z"
         id="path2371"
         style="fill:#000000;fill-opacity:0.08264465;fill-rule:evenodd;stroke:none" /><path
         d="m 486.46875,358.15625 c -23.65384,3.73912 -42.22052,23.57219 -48.40515,46.12593 -4.01608,14.57317 -6.26419,30.13395 -2.19532,44.96393 1.55784,7.05022 0.79241,15.58747 -5.9763,19.63439 -9.19751,8.35417 -20.99257,18.05154 -19.39901,31.9395 1.03454,4.22866 1.40185,11.822 -4.98985,11.19781 -7.37912,0.31931 -14.93493,0.14259 -22.22905,0.0575 -2.52502,-1.66771 -1.78251,-7.00718 -6.03629,-7.28269 -7.54197,-2.41232 -12.23253,8.68847 -8.03119,14.25687 3.51677,7.44255 13.24668,6.00072 19.35591,6.82554 -5.08645,0.57482 -2.71205,7.07532 -6.09375,6.1875 -4.22174,0.9405 -11.34193,-2.38542 -13.03125,3.25 3.5548,7.70293 8.7424,15.68993 6.58907,24.53355 -0.25885,6.27009 -0.51771,12.54013 -0.77657,18.8102 -7.14649,3.45058 -16.68834,10.01502 -13.60113,19.21038 3.81926,7.21872 5.24865,16.97434 12.97613,21.16462 43.76042,-0.2382 87.52081,-0.48743 131.28125,-0.71875 2.35354,-10.35538 -6.856,-18.02266 -14.84375,-22.5625 -6.56375,-5.60988 -2.57093,-15.02191 -3.75676,-22.40949 -0.14178,-10.08626 -0.99123,-20.98068 4.38176,-29.99676 -4.08503,-5.23443 -2.69315,-3.69002 1.96875,-0.84375 13.48616,7.16268 29.4627,10.71696 44.42072,6.29718 16.22363,-4.13174 29.8002,-16.22797 36.20987,-31.65198 12.9146,-25.42782 10.91153,-55.82923 2.31477,-82.29674 -10.03654,-30.2627 -30.8069,-58.29379 -60.11588,-72.05197 -9.33816,-4.24465 -19.87046,-5.18815 -30.01698,-4.64024 z m -36.25,139.15625 c 8.62349,15.35688 20.05609,29.26273 34.40625,39.59375 -5.64847,-2.33739 -12.44544,-1.82113 -17.84375,-4.34375 0.33256,-3.91537 -1.78499,-7.49196 -6.05035,-7.38877 -9.55319,-2.87758 -19.82852,0.76194 -29.3992,-1.5379 -4.36475,-2.36842 -6.13389,-1.9884 -3.3317,-6.76083 1.57527,-6.64409 -0.76122,-13.6082 1.0625,-20.21875 7.05208,0.21875 14.10417,0.4375 21.15625,0.65625 z"
         id="path2375"
         style="fill:#000000;fill-opacity:0.08264465;fill-rule:evenodd;stroke:none" /><path
         d="m 486.25,355.75 c -25.79101,4.56407 -46.20004,26.80075 -51.35511,52.07471 -4.10986,15.18286 -4.18241,31.29069 -0.87345,46.638 0.56422,11.20822 -11.54062,16.0291 -17.14135,24.03205 -6.93761,7.2259 -10.51303,17.44031 -8.22384,27.34899 -1.18444,6.25533 -8.6309,2.92817 -12.98532,3.76246 -4.16604,-0.99344 -11.12612,2.56393 -12.54593,-2.91871 -3.15451,-5.75546 -11.48625,-6.00408 -15.17815,-0.69331 -6.10299,7.46993 -0.87063,20.21648 8.86073,21.03583 5.19685,-0.0401 7.97581,2.75315 1.06742,2.75123 -4.75922,-1.55055 -12.66608,1.95775 -10.05327,7.79202 5.13216,8.56041 6.97621,18.65702 5.51562,28.54967 -0.48336,5.14048 1.1148,11.92489 -5.15208,14.02873 -6.6162,3.633 -11.30074,11.39997 -8.60705,18.99136 3.86201,8.00197 6.28966,19.33398 15.85928,22.32572 44.21875,-0.23827 88.43748,-0.48701 132.65625,-0.71875 3.20022,-11.49328 -5.92709,-21.62962 -15.3125,-26.78125 -5.54132,-7.67493 -1.90733,-17.67622 -3.07419,-26.41175 -0.14908,-7.58251 0.53149,-15.3873 3.85544,-22.307 13.93738,6.74507 30.09002,10.23417 45.24267,5.66876 17.03523,-4.26289 30.95223,-17.29081 37.83507,-33.28746 13.8928,-28.99912 10.46209,-63.56398 -1.34039,-92.65191 -11.86102,-28.20661 -32.85736,-54.4324 -61.9561,-65.79189 C 504.646,355.97059 495.45004,355.35162 486.25,355.75 z M 433.4375,499 c 5.25338,1.46397 11.67573,-1.02987 16.22149,2.02883 7.07914,11.58017 15.45175,22.47024 25.84101,31.28367 -4.67717,0.28735 -6.72822,-3.073 -8.57777,-6.56564 -7.90176,-6.19216 -18.92808,-3.45826 -28.2538,-3.84714 -3.21882,-0.58742 -11.15538,-0.24401 -8.34536,-5.35564 1.49738,-5.62454 -0.89409,-12.67302 1.86443,-17.51283 0.41691,0.009 0.83319,-0.0323 1.25,-0.0313 z"
         id="path2384"
         style="fill:#000000;fill-opacity:0.08264465;fill-rule:evenodd;stroke:none" /></g><rect
       width="2.4151385"
       height="11.673169"
       rx="0.075111955"
       ry="5.8365846"
       x="210.6427"
       y="263.95209"
       transform="matrix(1.2423096,0,0,1.2423096,-75.875443,-80.309728)"
       id="rect2317"
       style="fill:url(#linearGradient2318);fill-opacity:1;fill-rule:evenodd;stroke-width:1pt;filter:url(#filter3737)" /><path
       d="m 187.99086,256.97627 -0.85388,3.41552 c -0.40969,1.63878 1.44396,3.89715 3.1309,3.98478 l 21.91626,1.13851 c 2.07798,0.10794 4.61181,-2.18943 4.55403,-4.26941 l -0.28463,-10.24656 c -0.0322,-1.15766 0.83573,-2.9041 1.99239,-2.84626 l 17.07761,0.85388 -6.54642,-18.78537 -13.37746,11.6697 c -2.43084,2.12052 -4.65478,5.3146 -4.55403,8.5388 l 0.28463,9.10805 c 0.0273,0.87429 -0.83316,1.97829 -1.70776,1.99239 l -17.64686,0.28463 c -0.89494,0.0144 -2.56006,-0.57402 -2.27702,-1.42314 l 1.13851,-3.41552 -2.84627,0 z"
       transform="matrix(1.2423096,0,0,1.2423096,-75.875443,-80.309728)"
       id="path2295"
       style="fill:url(#linearGradient2296);fill-opacity:1;fill-rule:evenodd;stroke-width:2.25;stroke-linecap:round;stroke-linejoin:round;filter:url(#filter3725)" /><path
       d="m 246.05473,176.99615 c 23.3394,-8.34905 43.83253,15.36985 52.37133,35.86297 8.5388,21.06239 7.4003,52.56108 -13.66208,63.18715 -22.2009,10.62607 -46.6788,-10.24656 -55.78686,-34.72447 -9.10806,-23.90865 -5.69253,-56.54585 17.07761,-64.32565 z"
       transform="matrix(1.2423096,0,0,1.2423096,-75.875443,-80.309728)"
       id="path2280"
       style="fill:url(#linearGradient2293);fill-opacity:1;fill-rule:evenodd;stroke:url(#linearGradient2306);stroke-width:0.55922799pt;filter:url(#filter3713)" /><path
       d="m 247.66869,183.26397 c 21.04667,-7.52889 39.52667,13.86 47.22667,32.33999 7.7,18.99333 6.67333,47.39777 -12.32,56.97999 -20.02,9.58222 -42.09333,-9.24 -50.30666,-31.31332 -8.21333,-21.56 -5.13333,-50.9911 15.39999,-58.00666 z"
       transform="matrix(1.2423096,0,0,1.2423096,-75.875443,-80.309728)"
       id="path2281"
       style="fill:url(#linearGradient2287);fill-opacity:1;fill-rule:evenodd;stroke-width:0.90176554pt;filter:url(#filter3701)" /><path
       d="m 240.72194,195.31395 c -9.32072,6.88646 -12.36826,27.97919 -3.96407,50.80266 8.3631,22.49545 39.7075,22.73429 48.13989,15.62593 8.47346,-6.78035 21.13358,-24.41281 3.19383,-52.37196 -17.85758,-27.30313 -37.76651,-20.97847 -47.36965,-14.05663 z"
       transform="matrix(1.2423096,0,0,1.2423096,-75.875443,-80.309728)"
       id="path2282"
       style="fill:url(#radialGradient3175);fill-opacity:1;fill-rule:evenodd;stroke-width:1pt;filter:url(#filter3689)" /><path
       d="m 281.5726,255.12607 c 13.31186,-17.33314 -4.82633,-55.707 6.57849,-38.93521 10.59978,16.7718 8.89597,43.90757 -2.37468,52.89725 -13.68579,12.20987 -33.67776,-6.57454 -42.66745,-16.10092 -8.98968,-9.52638 25.15177,18.90278 38.46364,2.13888 z"
       transform="matrix(1.2423096,0,0,1.2423096,-75.875443,-80.309728)"
       id="path2304"
       style="fill:url(#linearGradient2305);fill-opacity:1;fill-rule:evenodd;stroke-width:1pt;filter:url(#filter3677)" /><path
       d="m 188.30266,272.80761 5.63532,2.81766 57.76206,0.20126 -15.6984,-3.42145 -47.69898,0.40253 z"
       transform="matrix(1.2423096,0,0,1.2423096,-75.875443,-80.309728)"
       id="path2315"
       style="fill:url(#linearGradient2316);fill-opacity:1;fill-rule:evenodd;stroke-width:1pt;filter:url(#filter3665)" /><path
       d="m 193.53546,275.02149 21.93751,0.40252 1.81135,-9.86181 2.41514,9.66055 32.4031,0.60379 -2.81766,6.64162 0.40252,23.5476 9.66056,6.64163 0.60378,3.82397 -71.85036,0.40253 -4.62902,-10.86813 0.60379,-3.82397 7.24541,-4.22649 0.80505,-19.11984 -4.22649,-6.03785 5.63532,2.21388 z"
       transform="matrix(1.2423096,0,0,1.2423096,-75.875443,-80.309728)"
       id="path2307"
       style="fill:url(#linearGradient2309);fill-opacity:1;fill-rule:evenodd;stroke-width:1pt;filter:url(#filter3653)" /><path
       d="m 196.55438,304.60693 -6.84289,8.25172 -4.83028,-9.86181 6.84289,-4.62901 4.83028,6.2391 z"
       transform="matrix(1.2423096,0,0,1.2423096,-75.875443,-80.309728)"
       id="path2308"
       style="fill:url(#linearGradient2297);fill-opacity:1;fill-rule:evenodd;stroke-width:1pt;filter:url(#filter3641)" /><rect
       width="42.06366"
       height="2.6163998"
       rx="1.3081999"
       ry="1.3081999"
       x="196.75565"
       y="268.37988"
       transform="matrix(1.2423096,0,0,1.2423096,-75.875443,-80.309728)"
       id="rect2314"
       style="fill-rule:evenodd;stroke-width:1pt;filter:url(#filter3629)" /><path
       d="m 221.00757,282.30806 -21.63164,0.56925 0,21.63163 -6.26178,10.24657 35.86297,-0.56925 -7.96955,-31.8782 z"
       transform="matrix(1.2423096,0,0,1.2423096,-75.875443,-80.309728)"
       id="path2340"
       style="fill:url(#linearGradient2341);fill-opacity:1;fill-rule:evenodd;stroke-width:1pt;filter:url(#filter3617)" /><path
       d="m 195.54096,252.71728 c 0,1.51945 -2.84612,4.95473 -5.72584,4.95473 -2.87972,0 -4.70791,-3.43528 -4.70791,-4.95473 0,-1.51945 1.82819,-0.55053 4.70791,-0.55053 2.87972,0 5.72584,-0.96892 5.72584,0.55053 z"
       transform="matrix(1.2423096,0,0,1.2423096,-75.875443,-80.309728)"
       id="path2459"
       style="fill:url(#linearGradient2460);fill-opacity:1;fill-rule:evenodd;stroke-width:1pt;filter:url(#filter3605)" /><path
       d="m 240.07863,213.69217 c -5.39919,3.98911 -7.16454,16.20746 -2.29626,29.42837 4.84448,13.0309 23.00131,13.16925 27.88592,9.0516 4.9084,-3.92764 12.242,-14.14156 1.85007,-30.33741 -10.34432,-15.81583 -21.87693,-12.15216 -27.43973,-8.14256 z"
       transform="matrix(1.2423096,0,0,1.2423096,-75.875443,-80.309728)"
       id="path2534"
       style="fill:url(#radialGradient2286);fill-opacity:1;fill-rule:evenodd;stroke-width:1pt;filter:url(#filter3593)" /><path
       d="m 257.66036,315.25197 -24.52056,-0.58712 -1.29474,-8.97792 13.91395,0.67429 11.90135,8.89075 z"
       transform="matrix(1.2423096,0,0,1.2423096,-75.875443,-80.309728)"
       id="path2597"
       style="fill:url(#linearGradient2598);fill-opacity:1;fill-rule:evenodd;stroke-width:1pt;filter:url(#filter3581)" /></g></svg>