<?xml version="1.0" encoding="UTF-8"?>
<svg width="32" height="32" version="1.0" viewBox=".5 25.1 32 32" xmlns="http://www.w3.org/2000/svg" xmlns:xlink="http://www.w3.org/1999/xlink">
  <defs>
    <linearGradient id="linearGradient3251">
      <stop offset="0"/>
      <stop stop-opacity="0" offset="1"/>
    </linearGradient>
    <linearGradient id="linearGradient3405" x1="80.5" x2="229.87" y1="506" y2="357.6" gradientTransform="matrix(.62919 0 0 .62919 -.48738 11.006)" gradientUnits="userSpaceOnUse">
      <stop stop-opacity=".23529" offset="0"/>
      <stop stop-color="#969696" stop-opacity="0" offset="1"/>
    </linearGradient>
    <linearGradient id="linearGradient3597" x1="368.37" x2="389.52" y1="115.67" y2="95.825" gradientTransform="matrix(.62919 0 0 .62919 -.31794 10.836)" gradientUnits="userSpaceOnUse">
      <stop stop-color="#fff" offset="0"/>
      <stop stop-color="#969696" offset="1"/>
    </linearGradient>
    <linearGradient id="linearGradient3257" x1="348.04" x2="394.2" y1="139.48" y2="83.419" gradientTransform="matrix(.62919 0 0 .62919 -.31794 10.836)" gradientUnits="userSpaceOnUse" xlink:href="#linearGradient3251"/>
    <linearGradient id="linearGradient1159" x1="272.25" x2="201.71" y1="72.13" y2="122.51" gradientUnits="userSpaceOnUse" xlink:href="#linearGradient3251"/>
    <linearGradient id="linearGradient2318" x1="187.52" x2="197.01" y1="82.686" y2="82.686" gradientTransform="matrix(.25437 0 0 1.2295 162.94 162.29)" gradientUnits="userSpaceOnUse" xlink:href="#linearGradient2310"/>
    <linearGradient id="linearGradient2310">
      <stop stop-color="#6f6234" offset="0"/>
      <stop stop-color="#7f7655" offset=".5"/>
      <stop stop-color="#2d2711" offset="1"/>
    </linearGradient>
    <linearGradient id="linearGradient2296" x1="52.202" x2="80.842" y1="222.94" y2="139.84" gradientTransform="matrix(.65515 0 0 .47735 162.94 162.29)" gradientUnits="userSpaceOnUse" xlink:href="#linearGradient2288"/>
    <linearGradient id="linearGradient2288">
      <stop stop-color="#ede1b9" offset="0"/>
      <stop stop-color="#7a7152" offset=".5"/>
      <stop stop-color="#927f39" offset="1"/>
    </linearGradient>
    <linearGradient id="linearGradient2293" x1="167.39" x2="423.51" y1="44.529" y2="288.54" gradientTransform="matrix(.48918 0 0 .63931 162.94 162.29)" gradientUnits="userSpaceOnUse" xlink:href="#linearGradient2288"/>
    <linearGradient id="linearGradient2306" x1="281.13" x2="139" y1="52.916" y2="167.97" gradientTransform="matrix(.48918 0 0 .63931 162.94 162.29)" gradientUnits="userSpaceOnUse" xlink:href="#linearGradient2288"/>
    <linearGradient id="linearGradient2287" x1="106.91" x2="291.1" y1="137.89" y2="-13.32" gradientTransform="matrix(.48867 0 0 .63997 162.94 162.29)" gradientUnits="userSpaceOnUse" xlink:href="#linearGradient2288"/>
    <radialGradient id="radialGradient3175" cx="198.31" cy="109.06" r="63.508" fx="143.62" fy="122.04" gradientTransform="matrix(.51681 0 0 .60512 162.94 162.29)" gradientUnits="userSpaceOnUse" xlink:href="#linearGradient2283"/>
    <linearGradient id="linearGradient2283">
      <stop stop-color="#1d1100" stop-opacity=".66667" offset="0"/>
      <stop stop-color="#4f340c" stop-opacity=".30196" offset=".52659"/>
      <stop stop-color="#3d3001" stop-opacity="0" offset="1"/>
    </linearGradient>
    <linearGradient id="linearGradient2305" x1="182.67" x2="226.58" y1="74.241" y2="192.07" gradientTransform="matrix(.52411 0 0 .5967 162.94 162.29)" gradientUnits="userSpaceOnUse" xlink:href="#linearGradient2300"/>
    <linearGradient id="linearGradient2300">
      <stop stop-color="#fff" stop-opacity="0" offset="0"/>
      <stop stop-color="#fff" stop-opacity=".020833" offset=".4962"/>
      <stop stop-color="#fff" stop-opacity=".53125" offset="1"/>
    </linearGradient>
    <linearGradient id="linearGradient2316" x1="23.702" x2="24.908" y1="838.79" y2="894.39" gradientTransform="matrix(2.4072 0 0 .12991 162.94 162.29)" gradientUnits="userSpaceOnUse" xlink:href="#linearGradient2310"/>
    <linearGradient id="linearGradient2309" x1="90.82" x2="66.363" y1="378.08" y2="257.43" gradientTransform="matrix(.68267 0 0 .45811 162.94 162.29)" gradientUnits="userSpaceOnUse" xlink:href="#linearGradient2310"/>
    <linearGradient id="linearGradient2297" x1="66.332" x2="45.224" y1="210.4" y2="233.76" gradientTransform="matrix(.50192 0 0 .62308 162.94 162.29)" gradientUnits="userSpaceOnUse" xlink:href="#linearGradient2300"/>
    <linearGradient id="linearGradient2341" x1="39.019" x2="82.8" y1="273.28" y2="253.12" gradientTransform="matrix(.58792 0 0 .53193 162.94 162.29)" gradientUnits="userSpaceOnUse" xlink:href="#linearGradient2283"/>
    <linearGradient id="linearGradient2460" x1="24.214" x2="23.556" y1="116.1" y2="104.7" gradientTransform="matrix(1.3401 0 0 .7462 158.13 171.73)" gradientUnits="userSpaceOnUse" xlink:href="#linearGradient2310"/>
    <radialGradient id="radialGradient2286" cx="104.16" cy="56.434" r="20.573" fx="86.443" fy="60.641" gradientTransform="matrix(.92415 0 0 1.0821 158.13 171.73)" gradientUnits="userSpaceOnUse" xlink:href="#linearGradient2283"/>
    <linearGradient id="linearGradient2598" x1="37.51" x2="65.397" y1="233.71" y2="234.01" gradientTransform="matrix(1.6428 0 0 .6087 158.13 171.73)" gradientUnits="userSpaceOnUse" xlink:href="#linearGradient2300"/>
    <linearGradient id="linearGradient12904" x1="54.889" x2="55.889" y1="61.902" y2="70.901" gradientTransform="matrix(.76826 0 0 .76826 14.706 -22.961)" gradientUnits="userSpaceOnUse" xlink:href="#XMLID_112_-8"/>
    <linearGradient id="XMLID_112_-8" x1="54.889" x2="55.889" y1="61.902" y2="70.901" gradientUnits="userSpaceOnUse">
      <stop stop-color="#EEEEEC" offset=".0506"/>
      <stop stop-color="#888A85" offset="1"/>
    </linearGradient>
    <linearGradient id="linearGradient12906" x1="55.313" x2="55.313" y1="58" y2="119" gradientTransform="matrix(.76826 0 0 .76826 14.706 -22.961)" gradientUnits="userSpaceOnUse" xlink:href="#XMLID_140_-1"/>
    <linearGradient id="XMLID_140_-1" x1="55.313" x2="55.313" y1="58" y2="119" gradientUnits="userSpaceOnUse">
      <stop stop-color="#EEEEEC" offset=".0506"/>
      <stop stop-color="#888A85" offset="1"/>
    </linearGradient>
    <linearGradient id="linearGradient12924" x1="83.063" x2="84.395" y1="44.913" y2="51.571" gradientTransform="matrix(-.45804 .61676 .61676 .45804 61.146 -49.721)" gradientUnits="userSpaceOnUse" xlink:href="#XMLID_113_-9"/>
    <linearGradient id="XMLID_113_-9" x1="83.063" x2="84.395" y1="44.913" y2="51.571" gradientTransform="matrix(-.5962 .8028 .8028 .5962 60.448 -34.831)" gradientUnits="userSpaceOnUse">
      <stop stop-color="#EEEEEC" offset=".0506"/>
      <stop stop-color="#888A85" offset="1"/>
    </linearGradient>
    <linearGradient id="linearGradient12926" x1="48.586" x2="48.586" y1="58" y2="119" gradientTransform="matrix(.76826 0 0 .76826 14.706 -22.961)" gradientUnits="userSpaceOnUse" xlink:href="#XMLID_141_-1"/>
    <linearGradient id="XMLID_141_-1" x1="48.586" x2="48.586" y1="58" y2="119" gradientUnits="userSpaceOnUse">
      <stop stop-color="#EEEEEC" offset=".0506"/>
      <stop stop-color="#888A85" offset="1"/>
    </linearGradient>
    <linearGradient id="linearGradient12834" x1="61" x2="61" y1="58" y2="119" gradientTransform="matrix(.76826 0 0 .76826 14.706 -22.961)" gradientUnits="userSpaceOnUse" xlink:href="#XMLID_148_-9"/>
    <linearGradient id="XMLID_148_-9" x1="61" x2="61" y1="58" y2="119" gradientUnits="userSpaceOnUse">
      <stop stop-color="#EEEEEC" offset=".0506"/>
      <stop stop-color="#f3f3f2" offset="1"/>
    </linearGradient>
    <linearGradient id="linearGradient12836" x1="66.53" x2="67.862" y1="90.649" y2="97.31" gradientTransform="matrix(.76826 0 0 .76826 14.706 -22.961)" gradientUnits="userSpaceOnUse">
      <stop stop-color="#EEEEEC" offset=".0506"/>
      <stop stop-color="#888A85" offset="1"/>
    </linearGradient>
    <linearGradient id="linearGradient12838" x1="67" x2="67" y1="58" y2="119" gradientTransform="matrix(.76826 0 0 .76826 14.706 -22.961)" gradientUnits="userSpaceOnUse" xlink:href="#XMLID_147_-4"/>
    <linearGradient id="XMLID_147_-4" x1="67" x2="67" y1="58" y2="119" gradientUnits="userSpaceOnUse">
      <stop stop-color="#bdbec4" offset=".0506"/>
      <stop stop-color="#fff" offset="1"/>
    </linearGradient>
    <linearGradient id="linearGradient12840" x1="72.53" x2="73.862" y1="94.651" y2="101.31" gradientTransform="matrix(-.76826 0 0 .76826 117.65 -22.961)" gradientUnits="userSpaceOnUse" xlink:href="#XMLID_130_-1"/>
    <linearGradient id="XMLID_130_-1" x1="72.53" x2="73.862" y1="94.651" y2="101.31" gradientTransform="matrix(-1,0,0,1,134,0)" gradientUnits="userSpaceOnUse">
      <stop stop-color="#EEEEEC" offset=".0506"/>
      <stop stop-color="#888A85" offset="1"/>
    </linearGradient>
    <linearGradient id="linearGradient12844" x1="66.53" x2="67.862" y1="98.649" y2="105.31" gradientTransform="matrix(.76826 0 0 .76826 14.706 -22.961)" gradientUnits="userSpaceOnUse" xlink:href="#XMLID_121_-9"/>
    <linearGradient id="XMLID_121_-9" x1="66.53" x2="67.862" y1="98.649" y2="105.31" gradientUnits="userSpaceOnUse">
      <stop stop-color="#EEEEEC" offset=".0506"/>
      <stop stop-color="#888A85" offset="1"/>
    </linearGradient>
    <linearGradient id="linearGradient12848" x1="72.529" x2="73.862" y1="102.65" y2="109.31" gradientTransform="matrix(-.76826 0 0 .76826 117.65 -22.961)" gradientUnits="userSpaceOnUse" xlink:href="#XMLID_122_-9"/>
    <linearGradient id="XMLID_122_-9" x1="72.529" x2="73.862" y1="102.65" y2="109.31" gradientTransform="matrix(-1,0,0,1,134,0)" gradientUnits="userSpaceOnUse">
      <stop stop-color="#EEEEEC" offset=".0506"/>
      <stop stop-color="#888A85" offset="1"/>
    </linearGradient>
    <linearGradient id="linearGradient12852" x1="66.53" x2="67.862" y1="106.65" y2="113.31" gradientTransform="matrix(.76826 0 0 .76826 14.706 -22.961)" gradientUnits="userSpaceOnUse" xlink:href="#XMLID_119_-5"/>
    <linearGradient id="XMLID_119_-5" x1="66.53" x2="67.862" y1="106.65" y2="113.31" gradientUnits="userSpaceOnUse">
      <stop stop-color="#EEEEEC" offset=".0506"/>
      <stop stop-color="#888A85" offset="1"/>
    </linearGradient>
    <linearGradient id="linearGradient12856" x1="72.53" x2="73.862" y1="110.65" y2="117.31" gradientTransform="matrix(-.76826 0 0 .76826 117.65 -22.961)" gradientUnits="userSpaceOnUse" xlink:href="#XMLID_120_-9"/>
    <linearGradient id="XMLID_120_-9" x1="72.53" x2="73.862" y1="110.65" y2="117.31" gradientTransform="matrix(-1,0,0,1,134,0)" gradientUnits="userSpaceOnUse">
      <stop stop-color="#EEEEEC" offset=".0506"/>
      <stop stop-color="#888A85" offset="1"/>
    </linearGradient>
    <linearGradient id="linearGradient12860" x1="66.529" x2="67.861" y1="114.65" y2="121.31" gradientTransform="matrix(.76826 0 0 .76826 14.706 -22.961)" gradientUnits="userSpaceOnUse" xlink:href="#XMLID_123_-0"/>
    <linearGradient id="XMLID_123_-0" x1="66.529" x2="67.861" y1="114.65" y2="121.31" gradientUnits="userSpaceOnUse">
      <stop stop-color="#EEEEEC" offset=".0506"/>
      <stop stop-color="#888A85" offset="1"/>
    </linearGradient>
    <linearGradient id="linearGradient12864" x1="72.53" x2="73.862" y1="94.651" y2="101.31" gradientTransform="matrix(-.76826 0 0 .76826 117.65 -3.9614)" gradientUnits="userSpaceOnUse" xlink:href="#XMLID_130_-1"/>
    <linearGradient id="linearGradient12866" x1="61" x2="61" y1="58" y2="119" gradientTransform="matrix(.76826 0 0 .76826 14.706 -3.9614)" gradientUnits="userSpaceOnUse" xlink:href="#XMLID_148_-9"/>
    <linearGradient id="linearGradient12868" x1="66.53" x2="67.862" y1="98.649" y2="105.31" gradientTransform="matrix(.76826 0 0 .76826 14.706 -3.9614)" gradientUnits="userSpaceOnUse" xlink:href="#XMLID_121_-9"/>
    <linearGradient id="linearGradient12870" x1="67" x2="67" y1="58" y2="119" gradientTransform="matrix(.76826 0 0 .76826 14.706 -3.9614)" gradientUnits="userSpaceOnUse" xlink:href="#XMLID_147_-4"/>
    <linearGradient id="linearGradient12872" x1="72.529" x2="73.862" y1="102.65" y2="109.31" gradientTransform="matrix(-.76826 0 0 .76826 117.65 -3.9614)" gradientUnits="userSpaceOnUse" xlink:href="#XMLID_122_-9"/>
    <linearGradient id="linearGradient12876" x1="66.53" x2="67.862" y1="106.65" y2="113.31" gradientTransform="matrix(.76826 0 0 .76826 14.706 -3.9614)" gradientUnits="userSpaceOnUse" xlink:href="#XMLID_119_-5"/>
    <linearGradient id="linearGradient12880" x1="72.53" x2="73.862" y1="110.65" y2="117.31" gradientTransform="matrix(-.76826 0 0 .76826 117.65 -3.9614)" gradientUnits="userSpaceOnUse" xlink:href="#XMLID_120_-9"/>
    <linearGradient id="linearGradient12884" x1="66.529" x2="67.861" y1="114.65" y2="121.31" gradientTransform="matrix(.76826 0 0 .76826 14.706 -3.9614)" gradientUnits="userSpaceOnUse" xlink:href="#XMLID_123_-0"/>
    <linearGradient id="linearGradient12888" x1="72.53" x2="73.862" y1="110.65" y2="117.31" gradientTransform="matrix(-.76826 0 0 .76826 117.65 2.0386)" gradientUnits="userSpaceOnUse" xlink:href="#XMLID_120_-9"/>
    <linearGradient id="linearGradient12890" x1="61" x2="61" y1="58" y2="119" gradientTransform="matrix(.76826 0 0 .76826 14.706 2.0386)" gradientUnits="userSpaceOnUse" xlink:href="#XMLID_148_-9"/>
    <linearGradient id="linearGradient12892" x1="66.529" x2="67.861" y1="114.65" y2="121.31" gradientTransform="matrix(.76826 0 0 .76826 14.706 2.0386)" gradientUnits="userSpaceOnUse" xlink:href="#XMLID_123_-0"/>
    <linearGradient id="linearGradient12894" x1="67" x2="67" y1="58" y2="119" gradientTransform="matrix(.76826 0 0 .76826 14.706 2.0386)" gradientUnits="userSpaceOnUse" xlink:href="#XMLID_147_-4"/>
    <linearGradient id="linearGradient12896" x1="72.53" x2="73.862" y1="110.65" y2="117.31" gradientTransform="matrix(-.76826 0 0 .76826 117.65 8.0386)" gradientUnits="userSpaceOnUse" xlink:href="#XMLID_120_-9"/>
    <linearGradient id="linearGradient12898" x1="61" x2="61" y1="58" y2="119" gradientTransform="matrix(.76826 0 0 .76826 14.706 8.0386)" gradientUnits="userSpaceOnUse" xlink:href="#XMLID_148_-9"/>
    <linearGradient id="linearGradient12912" x1="83.388" x2="84.72" y1="36.475" y2="43.134" gradientTransform="matrix(-.32597 .69566 .69566 .32597 46.558 -50.872)" gradientUnits="userSpaceOnUse" xlink:href="#XMLID_114_-9"/>
    <linearGradient id="XMLID_114_-9" x1="83.388" x2="84.72" y1="36.475" y2="43.134" gradientTransform="matrix(-.4243 .9055 .9055 .4243 41.46 -36.33)" gradientUnits="userSpaceOnUse">
      <stop stop-color="#EEEEEC" offset=".0506"/>
      <stop stop-color="#888A85" offset="1"/>
    </linearGradient>
    <linearGradient id="linearGradient12914" x1="41.035" x2="41.035" y1="58" y2="119" gradientTransform="matrix(.76826 0 0 .76826 14.706 -22.961)" gradientUnits="userSpaceOnUse" xlink:href="#XMLID_142_-3"/>
    <linearGradient id="XMLID_142_-3" x1="41.035" x2="41.035" y1="58" y2="119" gradientUnits="userSpaceOnUse">
      <stop stop-color="#EEEEEC" offset=".0506"/>
      <stop stop-color="#888A85" offset="1"/>
    </linearGradient>
    <linearGradient id="linearGradient13183" x1="56.891" x2="68.891" y1="67.886" y2="82.886" gradientTransform="matrix(1.7263 0 0 1.4649 -2.2303 -43.345)" gradientUnits="userSpaceOnUse">
      <stop stop-color="#fff" offset="0"/>
      <stop stop-color="#373836" offset="1"/>
    </linearGradient>
    <linearGradient id="linearGradient13180" x1="62.05" x2="67.05" y1="69.625" y2="83.624" gradientTransform="matrix(1.7263 0 0 1.4649 -2.2303 -43.345)" gradientUnits="userSpaceOnUse">
      <stop stop-color="#fff" offset="0"/>
      <stop stop-color="#FAFAFA" offset=".1332"/>
      <stop stop-color="#ECEDEC" offset=".2876"/>
      <stop stop-color="#D5D6D5" offset=".4525"/>
      <stop stop-color="#B5B6B4" offset=".6249"/>
      <stop stop-color="#8C8D8A" offset=".8032"/>
      <stop stop-color="#5A5C58" offset=".9838"/>
      <stop stop-color="#555753" offset="1"/>
    </linearGradient>
    <linearGradient id="linearGradient13076" x1="63.542" x2="64.542" y1="74.092" y2="79.093" gradientTransform="matrix(.76826 0 0 .76826 14.706 -22.961)" gradientUnits="userSpaceOnUse">
      <stop stop-color="#a9ada4" offset="0"/>
      <stop stop-color="#3f403d" offset="1"/>
    </linearGradient>
    <linearGradient id="linearGradient13176" x1="61.316" x2="68.316" y1="83.099" y2="101.1" gradientTransform="matrix(1.7263 0 0 1.4649 -2.2303 -43.345)" gradientUnits="userSpaceOnUse">
      <stop stop-color="#fff" offset=".0056"/>
      <stop stop-color="#F0F0F0" offset=".1352"/>
      <stop stop-color="#CACAC9" offset=".384"/>
      <stop stop-color="#8C8D8B" offset=".7233"/>
      <stop stop-color="#555753" offset="1"/>
    </linearGradient>
    <linearGradient id="linearGradient13173" x1="61.707" x2="67.762" y1="77.532" y2="107.81" gradientTransform="matrix(1.7263 0 0 1.4649 -2.2303 -43.345)" gradientUnits="userSpaceOnUse">
      <stop stop-color="#EEEEEC" offset="0"/>
      <stop stop-color="#BABDB6" offset="1"/>
    </linearGradient>
    <linearGradient id="linearGradient13170" x1="62" x2="66" y1="76" y2="76" gradientTransform="matrix(1.7263 0 0 1.4649 -2.2303 -43.345)" gradientUnits="userSpaceOnUse">
      <stop stop-color="#fff" offset=".0506"/>
      <stop stop-color="#D3D7CF" offset=".9326"/>
      <stop stop-color="#888A85" offset="1"/>
    </linearGradient>
    <linearGradient id="linearGradient13167" x1="63.106" x2="65.106" y1="71.977" y2="80.977" gradientTransform="matrix(1.7263 0 0 1.4649 -2.2303 -43.345)" gradientUnits="userSpaceOnUse">
      <stop stop-color="#fff" offset=".0506"/>
      <stop stop-color="#D3D7CF" offset="1"/>
    </linearGradient>
    <linearGradient id="linearGradient13086" x1="66.53" x2="67.862" y1="106.65" y2="113.31" gradientTransform="matrix(0 .99985 -.99985 0 231.23 -28.173)" gradientUnits="userSpaceOnUse" xlink:href="#XMLID_119_-5"/>
    <linearGradient id="linearGradient13088" x1="67" x2="67" y1="58" y2="119" gradientTransform="matrix(0 .99985 -.99985 0 231.23 -28.173)" gradientUnits="userSpaceOnUse" xlink:href="#XMLID_147_-4"/>
    <linearGradient id="linearGradient12932" x1="84.012" x2="85.344" y1="28.52" y2="35.179" gradientTransform="matrix(-.19637 .74276 .74276 .19637 34.325 -50.553)" gradientUnits="userSpaceOnUse">
      <stop stop-color="#EEEEEC" offset=".0506"/>
      <stop stop-color="#888A85" offset="1"/>
    </linearGradient>
    <linearGradient id="linearGradient12934" x1="33.789" x2="33.789" y1="58" y2="119" gradientTransform="matrix(.76826 0 0 .76826 14.706 -22.961)" gradientUnits="userSpaceOnUse">
      <stop stop-color="#EEEEEC" offset=".0506"/>
      <stop stop-color="#888A85" offset="1"/>
    </linearGradient>
  </defs>
  <g transform="matrix(.096275 0 0 .098511 .97778 22.948)" stroke="#000" stroke-linejoin="bevel" stroke-opacity=".2">
    <path d="m52.166 42.151-0.2513 294.52h230.91s0.47764-152.39 0.42481-198.46c-0.0136-11.876-0.16044-18.115-7.3719-25.894-33.24-35.855-53.348-51.87-66.597-64.319-3.7183-3.4936-5.3777-6.5829-18.354-6.7084-18.227-0.17632-76.872 0.7385-138.76 0.85601z" fill="none" stroke-width="10.268" style="paint-order:stroke fill markers"/>
    <path transform="matrix(.60095 0 0 .6099 7.4053 12.545)" d="m65.84 40.221-0.41817 482.9h384.23s0.79481-249.85 0.7069-325.39c-0.0227-19.473-0.26699-29.701-12.267-42.456-55.312-58.789-88.772-85.046-110.82-105.46-6.1873-5.7281-8.9486-10.793-30.542-10.999-30.33-0.2891-127.92 1.2109-230.89 1.4035z" fill-opacity=".2" fill-rule="evenodd" stroke-width="8.4806" style="paint-order:stroke fill markers"/>
    <path d="m46.972 37.075-0.2513 294.52h230.91s0.47764-152.39 0.42482-198.46c-0.0136-11.876-0.16045-18.115-7.3719-25.894-33.24-35.855-53.348-51.87-66.597-64.319-3.7183-3.4936-5.3776-6.5829-18.354-6.7084-18.227-0.17632-76.872 0.7385-138.76 0.85601z" fill-opacity=".2" fill-rule="evenodd" stroke-linecap="round" stroke-width="10.268" style="paint-order:stroke fill markers"/>
  </g>
  <g transform="matrix(.099246 0 0 .099246 .48056 22.941)">
    <path d="m50.332 35.437v293.77h223.99s0.28117-152.22 0.23056-197.42c-0.013-11.651-1.951-20.747-9.2223-28.037-35.777-35.866-43.504-43.408-56.203-55.62-3.5637-3.4272-9.7188-12.106-20.772-12.691-17.47-0.03146-78.713-0.11528-138.02 0z" fill="#d7e3f4" fill-rule="evenodd" stroke="#000" stroke-width=".25168"/>
    <rect x="50.332" y="122.51" width="166.5" height="206.7" fill="url(#linearGradient3405)" stroke-width="0"/>
    <path d="m206.75 117.47c30.228-5.038 47.843-7.2551 61.724-3.5024 6.1724 1.6687 6.176 1.8328 6.0767 17.816-0.50827-13.887-1.951-20.747-9.2223-28.037-35.777-35.866-43.504-43.408-56.203-55.62-10.25-11.036-15.246-12.399-20.772-12.691 16.953 1.3218 18.397 31.655 18.397 82.034z" fill="url(#linearGradient1159)" fill-rule="evenodd"/>
    <path d="m217.21 99.685c14.99 0.595 39.584 4.6336 48.866 11.08 3.9278 2.7277 8.5792 5.0371 8.4799 21.02-0.50827-13.887-1.951-20.747-9.2223-28.037-35.777-35.866-43.504-43.408-56.203-55.62-10.25-11.036-15.246-12.399-20.772-12.691 16.953 1.3218 25.129 17.979 28.851 64.248z" fill="url(#linearGradient3597)" fill-rule="evenodd" stroke="url(#linearGradient3257)" stroke-width=".25168"/>
  </g>
  <g transform="matrix(.1 0 0 .1 .60746 22.436)" fill-rule="evenodd">
    <g>
      <path transform="matrix(.69473 0 0 .69473 -102.58 -110.65)" d="m486.25 355.75c-25.791 4.5641-46.2 26.801-51.355 52.075-4.1099 15.183-4.1824 31.291-0.87345 46.638 0.56422 11.208-11.541 16.029-17.141 24.032-6.9376 7.2259-10.513 17.44-8.2238 27.349-1.1844 6.2553-8.6309 2.9282-12.985 3.7625-4.166-0.99344-11.126 2.5639-12.546-2.9187-3.1545-5.7555-11.486-6.0041-15.178-0.69331-6.103 7.4699-0.87063 20.216 8.8607 21.036 5.1968-0.0401 7.9758 2.7532 1.0674 2.7512-4.7592-1.5506-12.666 1.9578-10.053 7.792 5.1322 8.5604 6.9762 18.657 5.5156 28.55-0.48336 5.1405 1.1148 11.925-5.1521 14.029-6.6162 3.633-11.301 11.4-8.607 18.991 3.862 8.002 6.2897 19.334 15.859 22.326 44.219-0.23827 88.437-0.48701 132.66-0.71875 3.2002-11.493-5.9271-21.63-15.312-26.781-5.5413-7.6749-1.9073-17.676-3.0742-26.412-0.14908-7.5825 0.53149-15.387 3.8554-22.307 13.937 6.7451 30.09 10.234 45.243 5.6688 17.035-4.2629 30.952-17.291 37.835-33.287 13.893-28.999 10.462-63.564-1.3404-92.652-11.861-28.207-32.857-54.432-61.956-65.792-8.6978-3.2169-17.894-3.8359-27.094-3.4375zm-52.812 143.25c5.2534 1.464 11.676-1.0299 16.221 2.0288 7.0791 11.58 15.452 22.47 25.841 31.284-4.6772 0.28735-6.7282-3.073-8.5778-6.5656-7.9018-6.1922-18.928-3.4583-28.254-3.8471-3.2188-0.58742-11.155-0.24401-8.3454-5.3556 1.4974-5.6245-0.89409-12.673 1.8644-17.513 0.41691 9e-3 0.83319-0.0323 1.25-0.0313z" fill-opacity=".2"/>
      <path transform="matrix(.69473 0 0 .69473 -102.58 -110.65)" d="m486.47 358.16c-23.654 3.7391-42.221 23.572-48.405 46.126-4.0161 14.573-6.2642 30.134-2.1953 44.964 1.5578 7.0502 0.79241 15.587-5.9763 19.634-9.1975 8.3542-20.993 18.052-19.399 31.94 1.0345 4.2287 1.4018 11.822-4.9898 11.198-7.3791 0.31931-14.935 0.14259-22.229 0.0575-2.525-1.6677-1.7825-7.0072-6.0363-7.2827-7.542-2.4123-12.233 8.6885-8.0312 14.257 3.5168 7.4426 13.247 6.0007 19.356 6.8255-5.0864 0.57482-2.712 7.0753-6.0938 6.1875-4.2217 0.9405-11.342-2.3854-13.031 3.25 3.5548 7.7029 8.7424 15.69 6.5891 24.534-0.25885 6.2701-0.51771 12.54-0.77657 18.81-7.1465 3.4506-16.688 10.015-13.601 19.21 3.8193 7.2187 5.2486 16.974 12.976 21.165 43.76-0.2382 87.521-0.48743 131.28-0.71875 2.3535-10.355-6.856-18.023-14.844-22.562-6.5638-5.6099-2.5709-15.022-3.7568-22.409-0.14178-10.086-0.99123-20.981 4.3818-29.997-4.085-5.2344-2.6932-3.69 1.9688-0.84375 13.486 7.1627 29.463 10.717 44.421 6.2972 16.224-4.1317 29.8-16.228 36.21-31.652 12.915-25.428 10.912-55.829 2.3148-82.297-10.037-30.263-30.807-58.294-60.116-72.052-9.3382-4.2446-19.87-5.1882-30.017-4.6402zm-36.25 139.16c8.6235 15.357 20.056 29.263 34.406 39.594-5.6485-2.3374-12.445-1.8211-17.844-4.3438 0.33256-3.9154-1.785-7.492-6.0504-7.3888-9.5532-2.8776-19.829 0.76194-29.399-1.5379-4.3648-2.3684-6.1339-1.9884-3.3317-6.7608 1.5753-6.6441-0.76122-13.608 1.0625-20.219 7.0521 0.21875 14.104 0.4375 21.156 0.65625z" fill-opacity=".2"/>
      <path transform="matrix(.69473 0 0 .69473 -102.58 -110.65)" d="m486.44 360.66c-24.626 3.397-42.744 25.744-47.512 49.165-1.2215 9.8921-5.1699 19.836-2.3167 29.827 1.0345 9.357 5.9891 20.929-1.9209 28.57-8.7387 7.8139-20.323 15.149-21.886 27.811-1.468 5.9072 3.8165 13.45-2.4149 17.706-4.4861 2.9709-10.104-0.14422-15.138 0.88112-5.5636 0.33689-11.206 0.62846-16.655-0.77351 2.6322-3.577-1.7743-9.8751-5.6542-6.2338-6.5232 4.291-1.8158 15.206 5.5564 14.929 10.637 2.0061 21.848 0.0225 32.348 2.4684 0.34455 2.8937-6.7368 1.709-9.3129 1.493-5.5006-0.34564-11.464 8e-3 -15.594 4.1562 1.3926 2.6116 11.397 4.3998 4.3367 3.7945-6.1852 0.0729-12.37 0.19179-18.555 0.23677 2.0283 6.976 8.8716 12.631 6.8378 20.408-0.35217 8.3743-0.70437 16.748-1.0566 25.123-6.0958 3.4151-15.633 7.2655-14.031 15.938 3.7825 6.6726 4.6235 15.771 11.062 20.5 42.979-0.23806 85.958-0.48829 128.94-0.71875 1.496-9.9728-8.8419-14.766-15.736-19.254-5.3883-5.5521-1.8334-13.99-2.959-20.875 0.0265-10.757-2.054-22.585 4.0071-32.216-3.5739-7.4808-13.468-4.6434-19.83-7.6811-2.513-0.82546-8.0749-1.3876-8.7949-1.6627 2.9408-0.84843 7.284-2.8557 3.0625-5.5938-6.2-4.1485-14.109-0.95952-21.04-1.9688-4.2596-0.59166-11.064 1.1921-13.71-0.90625-1.2188-4.8946-6.1795 0.34107-8.5312 0.71875-1.2545-4.3066 5.5931-5.4709 5.5636-9.9172 2.1428-7.2886-1.8637-15.39 1.6864-22.395 8.0926-0.0484 16.176 0.20236 24.25 0.75 13.079 23.827 33.606 45.961 60.93 52.371 19.925 4.3248 42.428-3.2871 53.806-20.617 16.975-23.307 17.793-54.613 10.909-81.697-7.9902-31.725-27.567-61.506-56.472-77.66-10.449-5.9459-22.265-7.9225-34.173-6.6776zm-65 173.66c-1.7924 0.78027-1.5923-0.71794 0 0z" fill-opacity=".12"/>
      <path transform="matrix(.69473 0 0 .69473 -102.58 -110.65)" d="m492.32 361.86c-31.528 0.35036-52.242 31.14-53.67 60.24-6.7758 15.799 11.31 38.089-4.2559 48.443-9.5073 8.3168-22.807 17.112-19.879 31.631 2.6095 9.401-2.1144 16.63-12.282 14.025-8.5542-0.64335-17.893 1.9973-25.873-1.1429 5.5748-10.429-7.1849-8.3322-4.6443 1.2878 4.8956 8.3314 16.434 4.0175 24.568 5.7935 5.8136 0.59134 23.916-0.97983 14.96 6.1602-7.2056 1.2301-17.27-2.6618-22.454 2.3438 5.2648 4.978 15.372 1.1311 22.653 2.3438 6.1329 4.8481-11.742 2.3549-16.891 3.0393-5.7674 0.43608-17.856-0.60745-19.82 0.71888-3.5738-1.6992 5.1644 6.6794 5.6774 12.66-0.4457 10.6-0.89141 21.2-1.3371 31.8-5.6591 4.1325-15.259 5.5776-14.031 14.406 3.4138 6.0883 4.8456 15.195 9.4759 19.431 42.425-0.24766 84.849-0.49535 127.27-0.74303 0.73475-9.8946-10.829-12.018-16.838-17.651-3.5362-5.548-0.7664-14.48-1.8521-21.343 0.2639-10.769-2.4717-22.121 3.8222-31.719-0.46677-4.743-13.311-3.5742-18.618-6.0554-12.903-3.7806-26.464-1.2278-39.701-1.7947-0.52548-6.1227 13.179-1.135 18.427-2.75 5.3037 0.9739 24.212-0.14749 12.246-4.6875h-32.548c1.6648-11.095-9.3322 10.306-8.9062-5.4375 13.261-4.9104 1.7472-21.355 8.3127-30.262 8.6354-0.7874 17.563 0.67114 26.312 0.76247 15.428 30.013 47.242 60.244 83.656 52.279 34.977-8.6558 46.816-49.735 42.868-81.659-4.1153-39.966-27.37-80.469-64.456-98.035-7.0083-2.8724-14.607-4.3988-22.192-4.0848zm-74.406 171.12c13.828-2.2207-0.20583 8.4337 0 0z" fill-opacity=".12"/>
    </g>
    <g>
      <rect transform="matrix(1.2423 0 0 1.2423 -75.875 -80.31)" x="210.64" y="263.95" width="2.4151" height="11.673" rx=".75112" ry="58.366" fill="url(#linearGradient2318)" stroke-width="1pt"/>
      <path transform="matrix(1.2423 0 0 1.2423 -75.875 -80.31)" d="m187.99 256.98-0.85388 3.4155c-0.40969 1.6388 1.444 3.8972 3.1309 3.9848l21.916 1.1385c2.078 0.10794 4.6118-2.1894 4.554-4.2694l-0.28463-10.247c-0.0322-1.1577 0.83573-2.9041 1.9924-2.8463l17.078 0.85388-6.5464-18.785-13.377 11.67c-2.4308 2.1205-4.6548 5.3146-4.554 8.5388l0.28463 9.108c0.0273 0.87429-0.83316 1.9783-1.7078 1.9924l-17.647 0.28463c-0.89494 0.0144-2.5601-0.57402-2.277-1.4231l1.1385-3.4155z" fill="url(#linearGradient2296)" stroke-linecap="round" stroke-linejoin="round" stroke-width="2.25"/>
      <path transform="matrix(1.2423 0 0 1.2423 -75.875 -80.31)" d="m246.05 177c23.339-8.349 43.833 15.37 52.371 35.863 8.5388 21.062 7.4003 52.561-13.662 63.187-22.201 10.626-46.679-10.247-55.787-34.724-9.1081-23.909-5.6925-56.546 17.078-64.326z" fill="url(#linearGradient2293)" stroke="url(#linearGradient2306)" stroke-width=".55923pt"/>
      <path transform="matrix(1.2423 0 0 1.2423 -75.875 -80.31)" d="m247.67 183.26c21.047-7.5289 39.527 13.86 47.227 32.34 7.7 18.993 6.6733 47.398-12.32 56.98-20.02 9.5822-42.093-9.24-50.307-31.313-8.2133-21.56-5.1333-50.991 15.4-58.007z" fill="url(#linearGradient2287)" stroke-width=".90177pt"/>
      <g stroke-width="1pt">
        <path transform="matrix(1.2423 0 0 1.2423 -75.875 -80.31)" d="m240.72 195.31c-9.3207 6.8865-12.368 27.979-3.9641 50.803 8.3631 22.495 39.708 22.734 48.14 15.626 8.4735-6.7804 21.134-24.413 3.1938-52.372-17.858-27.303-37.767-20.978-47.37-14.057z" fill="url(#radialGradient3175)"/>
        <path transform="matrix(1.2423 0 0 1.2423 -75.875 -80.31)" d="m281.57 255.13c13.312-17.333-4.8263-55.707 6.5785-38.935 10.6 16.772 8.896 43.908-2.3747 52.897-13.686 12.21-33.678-6.5745-42.667-16.101-8.9897-9.5264 25.152 18.903 38.464 2.1389z" fill="url(#linearGradient2305)"/>
        <path transform="matrix(1.2423 0 0 1.2423 -75.875 -80.31)" d="m188.3 272.81 5.6353 2.8177 57.762 0.20126-15.698-3.4214z" fill="url(#linearGradient2316)"/>
        <path transform="matrix(1.2423 0 0 1.2423 -75.875 -80.31)" d="m193.54 275.02 21.938 0.40252 1.8114-9.8618 2.4151 9.6606 32.403 0.60379-2.8177 6.6416 0.40252 23.548 9.6606 6.6416 0.60378 3.824-71.85 0.40253-4.629-10.868 0.60379-3.824 7.2454-4.2265 0.80505-19.12-4.2265-6.0378z" fill="url(#linearGradient2309)"/>
        <path transform="matrix(1.2423 0 0 1.2423 -75.875 -80.31)" d="m196.55 304.61-6.8429 8.2517-4.8303-9.8618 6.8429-4.629z" fill="url(#linearGradient2297)"/>
      </g>
    </g>
    <rect transform="matrix(1.2423 0 0 1.2423 -75.875 -80.31)" x="196.76" y="268.38" width="42.064" height="2.6164" rx="13.082" ry="13.082" stroke-width="1pt"/>
    <g stroke-width="1pt">
      <path transform="matrix(1.2423 0 0 1.2423 -75.875 -80.31)" d="m221.01 282.31-21.632 0.56925v21.632l-6.2618 10.247 35.863-0.56925z" fill="url(#linearGradient2341)"/>
      <path transform="matrix(1.2423 0 0 1.2423 -75.875 -80.31)" d="m195.54 252.72c0 1.5194-2.8461 4.9547-5.7258 4.9547s-4.7079-3.4353-4.7079-4.9547 1.8282-0.55053 4.7079-0.55053 5.7258-0.96892 5.7258 0.55053z" fill="url(#linearGradient2460)"/>
      <path transform="matrix(1.2423 0 0 1.2423 -75.875 -80.31)" d="m240.08 213.69c-5.3992 3.9891-7.1645 16.207-2.2963 29.428 4.8445 13.031 23.001 13.169 27.886 9.0516 4.9084-3.9276 12.242-14.142 1.8501-30.337-10.344-15.816-21.877-12.152-27.44-8.1426z" fill="url(#radialGradient2286)"/>
      <path transform="matrix(1.2423 0 0 1.2423 -75.875 -80.31)" d="m257.66 315.25-24.521-0.58712-1.2947-8.9779 13.914 0.67429z" fill="url(#linearGradient2598)"/>
    </g>
  </g>
  <g transform="matrix(.1 0 0 .1 .3876 22.926)">
    <g fill-opacity=".2" fill-rule="evenodd">
      <path d="m53.624 39.241v15c20 0 32.812 3.1247 50 10v265h25l-1.1742-265.53c26.174-14.473 32.652-10.612 71.174-9.4733v-15c-46.471 0-60-5-80 15-1.1785 1.1785-5 0-5 0-20.23-14.172-36.507-15-60-15z" display="none" style="paint-order:stroke fill markers"/>
      <path d="m51.124 36.741v15c20 0 32.812 3.1247 50 10v265h25l-1.1742-265.53c26.174-14.473 32.652-10.612 71.174-9.4733v-15c-46.471 0-50-5-80 15-1.3868 0.9245-5 0-5 0-20-15-36.507-15-60-15z" stroke="#000" stroke-linecap="round" stroke-linejoin="bevel" stroke-opacity=".2" stroke-width="5" style="paint-order:stroke fill markers"/>
    </g>
    <g opacity=".8">
      <g transform="matrix(1.4067 0 0 1.4067 18.649 -11.034)">
        <path d="m125.45 39.726c0-0.37894-0.21498-0.72489-0.55292-0.89486 0 0-0.18797-0.09399-0.23796-0.11798 0.47892-0.53192 0.79088-1.2178 0.79088-1.9867 0-1.6537-1.3458-2.9995-2.9995-2.9995h-1.9997c-0.5529 0-0.99984 0.44793-0.99984 0.99985v9.9985c0 0.55292 0.44694 0.99985 0.99984 0.99985h3.9994c0.55292 0 0.99985-0.44693 0.99985-0.99985v-4.9992z" fill-opacity=".6568"/>
        <path d="m124.25 38.817-1.9997-0.99985c1.1048 0 1.9997-0.89586 1.9997-1.9997 0-1.1048-0.89487-1.9997-1.9997-1.9997h-1.9997v9.9985h3.9994z" fill="url(#linearGradient13086)"/>
        <path d="m123.25 39.435c-0.5789-0.28995-1.4468-0.72389-1.4468-0.72389-0.34395-0.17197-0.55292-0.52092-0.55292-0.89386v4.9982h1.9997v-3.3805zm-0.99985-4.6173h-0.99984v2.9985c0-0.07498 9e-3 -0.15198 0.026-0.22896 0.10699-0.45093 0.50993-0.76988 0.97385-0.76988 0.55192 0 0.99985-0.44893 0.99985-0.99985s-0.44793-0.99985-0.99985-0.99985z" fill="url(#linearGradient13088)"/>
      </g>
      <g transform="matrix(1.4067 0 0 1.4067 8.5466 -11.034)">
        <path d="m125.45 39.726c0-0.37894-0.21498-0.72489-0.55292-0.89486 0 0-0.18797-0.09399-0.23796-0.11798 0.47892-0.53192 0.79088-1.2178 0.79088-1.9867 0-1.6537-1.3458-2.9995-2.9995-2.9995h-1.9997c-0.5529 0-0.99984 0.44793-0.99984 0.99985v9.9985c0 0.55292 0.44694 0.99985 0.99984 0.99985h3.9994c0.55292 0 0.99985-0.44693 0.99985-0.99985v-4.9992z" fill-opacity=".6568"/>
        <path d="m124.25 38.817-1.9997-0.99985c1.1048 0 1.9997-0.89586 1.9997-1.9997 0-1.1048-0.89487-1.9997-1.9997-1.9997h-1.9997v9.9985h3.9994z" fill="url(#linearGradient13086)"/>
        <path d="m123.25 39.435c-0.5789-0.28995-1.4468-0.72389-1.4468-0.72389-0.34395-0.17197-0.55292-0.52092-0.55292-0.89386v4.9982h1.9997v-3.3805zm-0.99985-4.6173h-0.99984v2.9985c0-0.07498 9e-3 -0.15198 0.026-0.22896 0.10699-0.45093 0.50993-0.76988 0.97385-0.76988 0.55192 0 0.99985-0.44893 0.99985-0.99985s-0.44793-0.99985-0.99985-0.99985z" fill="url(#linearGradient13088)"/>
      </g>
      <g transform="matrix(1.4067 0 0 1.4067 -1.5028 -11.034)">
        <path d="m125.45 39.726c0-0.37894-0.21498-0.72489-0.55292-0.89486 0 0-0.18797-0.09399-0.23796-0.11798 0.47892-0.53192 0.79088-1.2178 0.79088-1.9867 0-1.6537-1.3458-2.9995-2.9995-2.9995h-1.9997c-0.5529 0-0.99984 0.44793-0.99984 0.99985v9.9985c0 0.55292 0.44694 0.99985 0.99984 0.99985h3.9994c0.55292 0 0.99985-0.44693 0.99985-0.99985v-4.9992z" fill-opacity=".6568"/>
        <path d="m124.25 38.817-1.9997-0.99985c1.1048 0 1.9997-0.89586 1.9997-1.9997 0-1.1048-0.89487-1.9997-1.9997-1.9997h-1.9997v9.9985h3.9994z" fill="url(#linearGradient13086)"/>
        <path d="m123.25 39.435c-0.5789-0.28995-1.4468-0.72389-1.4468-0.72389-0.34395-0.17197-0.55292-0.52092-0.55292-0.89386v4.9982h1.9997v-3.3805zm-0.99985-4.6173h-0.99984v2.9985c0-0.07498 9e-3 -0.15198 0.026-0.22896 0.10699-0.45093 0.50993-0.76988 0.97385-0.76988 0.55192 0 0.99985-0.44893 0.99985-0.99985s-0.44793-0.99985-0.99985-0.99985z" fill="url(#linearGradient13088)"/>
      </g>
      <g transform="matrix(1.4067 0 0 1.4067 -11.552 -11.034)">
        <path d="m125.45 39.726c0-0.37894-0.21498-0.72489-0.55292-0.89486 0 0-0.18797-0.09399-0.23796-0.11798 0.47892-0.53192 0.79088-1.2178 0.79088-1.9867 0-1.6537-1.3458-2.9995-2.9995-2.9995h-1.9997c-0.5529 0-0.99984 0.44793-0.99984 0.99985v9.9985c0 0.55292 0.44694 0.99985 0.99984 0.99985h3.9994c0.55292 0 0.99985-0.44693 0.99985-0.99985v-4.9992z" fill-opacity=".6568"/>
        <path d="m124.25 38.817-1.9997-0.99985c1.1048 0 1.9997-0.89586 1.9997-1.9997 0-1.1048-0.89487-1.9997-1.9997-1.9997h-1.9997v9.9985h3.9994z" fill="url(#linearGradient13086)"/>
        <path d="m123.25 39.435c-0.5789-0.28995-1.4468-0.72389-1.4468-0.72389-0.34395-0.17197-0.55292-0.52092-0.55292-0.89386v4.9982h1.9997v-3.3805zm-0.99985-4.6173h-0.99984v2.9985c0-0.07498 9e-3 -0.15198 0.026-0.22896 0.10699-0.45093 0.50993-0.76988 0.97385-0.76988 0.55192 0 0.99985-0.44893 0.99985-0.99985s-0.44793-0.99985-0.99985-0.99985z" fill="url(#linearGradient13088)"/>
      </g>
      <g transform="matrix(1.4067 0 0 1.4067 -21.602 -11.034)">
        <path d="m125.45 39.726c0-0.37894-0.21498-0.72489-0.55292-0.89486 0 0-0.18797-0.09399-0.23796-0.11798 0.47892-0.53192 0.79088-1.2178 0.79088-1.9867 0-1.6537-1.3458-2.9995-2.9995-2.9995h-1.9997c-0.5529 0-0.99984 0.44793-0.99984 0.99985v9.9985c0 0.55292 0.44694 0.99985 0.99984 0.99985h3.9994c0.55292 0 0.99985-0.44693 0.99985-0.99985v-4.9992z" fill-opacity=".6568"/>
        <path d="m124.25 38.817-1.9997-0.99985c1.1048 0 1.9997-0.89586 1.9997-1.9997 0-1.1048-0.89487-1.9997-1.9997-1.9997h-1.9997v9.9985h3.9994z" fill="url(#linearGradient13086)"/>
        <path d="m123.25 39.435c-0.5789-0.28995-1.4468-0.72389-1.4468-0.72389-0.34395-0.17197-0.55292-0.52092-0.55292-0.89386v4.9982h1.9997v-3.3805zm-0.99985-4.6173h-0.99984v2.9985c0-0.07498 9e-3 -0.15198 0.026-0.22896 0.10699-0.45093 0.50993-0.76988 0.97385-0.76988 0.55192 0 0.99985-0.44893 0.99985-0.99985s-0.44793-0.99985-0.99985-0.99985z" fill="url(#linearGradient13088)"/>
      </g>
      <g transform="matrix(-1.5472 0 0 1.8796 203.47 10.106)">
        <path d="m40.095 14.811c-0.53164 0.30961-0.91192 0.80744-1.0687 1.4028-0.05224 0.19668-0.07759 0.39565-0.07759 0.59387 0 0.36108 0.11293 0.7091 0.28118 1.0364-0.04456 0.0092-0.20743 0.04302-0.20743 0.04302-0.28503 0.05916-0.51166 0.27427-0.58618 0.55545l-0.98184 3.7122c-0.0169 0.06607-0.02612 0.13214-0.02612 0.19668 0 0.34034 0.2274 0.65148 0.57235 0.74214l2.9709 0.78593c0.19668 0.05224 0.40641 0.02305 0.58311-0.07913 0.17593-0.10218 0.30423-0.27043 0.35647-0.46787l1.9637-7.4283c0.05224-0.19668 0.02382-0.40641-0.07913-0.58234-0.10295-0.17593-0.2712-0.30423-0.46787-0.35647l-1.4843-0.39181c-0.59463-0.15673-1.2169-0.07298-1.7486 0.23739z" fill="#4a4a4a"/>
        <path d="m39.179 17.868 1.6817-0.3511c-0.82127-0.21742-1.3099-1.0579-1.0925-1.8784 0.21588-0.8205 1.0564-1.3099 1.8784-1.0917l1.485 0.39104-1.9637 7.4283-2.9709-0.78593z" fill="url(#linearGradient12932)"/>
        <path d="m40.868 15.367c-0.1767 0.10295-0.30346 0.26889-0.3557 0.4671v7.68e-4c-0.01767 0.0653-0.02612 0.13214-0.02612 0.19821 0 0.13368 0.03534 0.26582 0.10448 0.38413 0.10295 0.17747 0.26966 0.30423 0.46787 0.35647 0.33727 0.08989 0.57159 0.39489 0.57159 0.74214v0.02074c-0.0092 0.3557-0.26198 0.6584-0.61077 0.73138 0 0-0.73062 0.15212-1.2177 0.25429-0.14367 0.54393-0.45174 1.7071-0.66378 2.5107 0.55699 0.14751 0.92806 0.24584 1.485 0.39335 0.28272-1.0702 1.2876-4.8723 1.5703-5.9417-0.3703-0.09757-0.7406-0.19591-0.7406-0.19591-0.20052-0.05301-0.40718-0.02535-0.58465 0.07836z" fill="url(#linearGradient12934)"/>
        <path d="m46.423 16.637c-0.5785 0.20897-1.0402 0.63228-1.2999 1.1893-0.14751 0.31499-0.21819 0.64688-0.21819 0.97339 0 0.22741 0.03765 0.45174 0.10295 0.66762-0.03688 7.69e-4 -0.18822 0.0046-0.18822 0.0046-0.2904 0.0077-0.55238 0.17824-0.6753 0.44175l-1.6302 3.4771c-0.04917 0.10525-0.07298 0.21665-0.07298 0.32574 0 0.2881 0.16364 0.56544 0.44252 0.69604l2.7826 1.3045c0.18438 0.08681 0.39565 0.09603 0.58772 0.02689 0.19206-0.06914 0.34802-0.21204 0.43407-0.39642l3.2597-6.9581c0.08604-0.18438 0.09603-0.39642 0.02689-0.58772-0.06991-0.1913-0.21204-0.34802-0.39719-0.43407l-1.3906-0.65072c-0.55699-0.26121-1.1839-0.28964-1.7639-0.0799z" fill="#4a4a4a"/>
        <path d="m44.84 19.469 1.7178-0.04456c-0.76903-0.36108-1.1002-1.2753-0.73907-2.0436 0.35955-0.76826 1.2738-1.1001 2.0436-0.7383l1.3906 0.65072-3.2597 6.9581-2.7826-1.3045 1.6295-3.4779z" fill="url(#linearGradient12912)"/>
        <path d="m46.947 17.31c-0.19206 0.06991-0.34572 0.20974-0.43176 0.39489 0 7.68e-4 0 0.0015-7.68e-4 0.0015-0.04917 0.10525-0.07222 0.21511-0.07222 0.32421 0 0.28887 0.16364 0.56698 0.44329 0.69835 0.27273 0.1283 0.44098 0.4018 0.44098 0.69451 0 0.05224-0.0054 0.10525-0.01613 0.15826-0.07299 0.34879-0.37568 0.60078-0.73215 0.61 0 0-0.74675 0.01921-1.2438 0.03227-0.23893 0.50936-0.74982 1.5995-1.1025 2.3516 0.52165 0.24431 0.8689 0.40795 1.3913 0.65225 0.46941-1.0018 2.1381-4.5635 2.6075-5.5661-0.34725-0.1621-0.69451-0.32498-0.69451-0.32498-0.18746-0.08758-0.39642-0.0968-0.58926-0.02689z" fill="url(#linearGradient12914)"/>
      </g>
      <g transform="matrix(-1.5472 0 0 1.8796 203.47 10.106)">
        <path d="m53.072 20.09c-0.60846 0.08989-1.1462 0.41179-1.5135 0.90578-0.30577 0.41179-0.45404 0.89349-0.45404 1.3713 0 0.07606 0.04379 0.14443 0.05071 0.22049-0.04994-0.0092-0.22203-0.03918-0.22203-0.03918-0.28656-0.05071-0.5762 0.06453-0.75059 0.29885l-2.2902 3.0823c-0.25276 0.34034-0.18208 0.82127 0.15826 1.0748l2.4669 1.8331c0.16364 0.12139 0.36876 0.1744 0.57082 0.14443 0.20128-0.02996 0.38336-0.13829 0.50475-0.30193l4.5811-6.1691c0.12138-0.16364 0.17286-0.36876 0.14366-0.57082-0.02996-0.20128-0.13829-0.38336-0.3027-0.50475l-1.2331-0.915c-0.49399-0.36723-1.1009-0.52011-1.7101-0.43023z" fill-opacity=".6568"/>
        <path d="m50.8 22.533 1.6917 0.29885c-0.68145-0.50782-0.82281-1.4689-0.31652-2.1496 0.50628-0.68145 1.4681-0.82358 2.1496-0.31729l1.2331 0.915-4.5811 6.1684-2.4669-1.8331z" fill="url(#linearGradient12924)"/>
        <path d="m53.296 20.838c-0.20282 0.02996-0.38183 0.13675-0.50475 0.30193-0.25276 0.33957-0.18131 0.82204 0.15903 1.0756 0.28579 0.21281 0.3872 0.5931 0.24661 0.92038-0.14136 0.32651-0.48861 0.51397-0.83894 0.45174 0 0-0.73522-0.12984-1.2246-0.21665-0.33573 0.45174-1.0533 1.4174-1.5488 2.0843 0.46249 0.34341 0.77057 0.57312 1.2331 0.91654 0.65994-0.88811 3.0047-4.0457 3.6646-4.9338-0.30807-0.22817-0.61538-0.45712-0.61538-0.45712-0.16518-0.12138-0.368-0.17286-0.57082-0.1429z" fill="url(#linearGradient12926)"/>
      </g>
      <g transform="matrix(-1.5472 0 0 1.8796 203.47 10.106)" display="none">
        <path d="m57.588 25.064c-0.46787 0.36723-0.70219 0.89118-0.79438 1.4359-0.05147-0.02458-0.21588-0.10141-0.21588-0.10141-0.26351-0.12446-0.57389-0.08912-0.80283 0.09065l-3.0193 2.3724c-0.33343 0.26274-0.39104 0.74598-0.12907 1.0786l1.8991 2.4169c0.126 0.15903 0.31038 0.26275 0.51243 0.2881 0.20282 0.02382 0.40641-0.03303 0.56621-0.15903l6.0393-4.7494c0.1598-0.126 0.26351-0.31038 0.2881-0.5132 0.02382-0.20282-0.03303-0.40564-0.15903-0.56621l-0.94957-1.2069c-0.38106-0.484-0.92729-0.79131-1.5381-0.86429-0.61-0.07222-1.2131 0.0968-1.6971 0.47786z" fill-opacity=".6568"/>
        <path d="m56.251 26.321 1.5542 0.73292c-0.52472-0.66839-0.40948-1.6333 0.25814-2.158 0.66685-0.52472 1.6326-0.40948 2.158 0.2589l0.94957 1.2069-6.0393 4.7494-1.8991-2.4169z" fill="url(#linearGradient12904)"/>
        <path d="m58.538 25.5v0c-0.33342 0.26198-0.39104 0.74675-0.12907 1.0802 0.21972 0.28042 0.21819 0.67453-0.0038 0.95264-0.22203 0.27888-0.60616 0.368-0.92806 0.21588 0 0-0.67453-0.31806-1.1247-0.5301-0.44252 0.34802-1.3882 1.0917-2.042 1.6049 0.3557 0.45327 0.5931 0.7552 0.94957 1.2085 0.86967-0.68452 3.9619-3.1153 4.8316-3.799-0.23739-0.30116-0.47479-0.60308-0.47479-0.60308-0.12753-0.1621-0.30961-0.26428-0.5132-0.28887-0.20282-0.02382-0.4041 0.03227-0.56544 0.15903z" fill="url(#linearGradient12906)"/>
      </g>
      <g transform="matrix(-1.4067 0 0 1.4067 228.5 -11.034)">
        <path d="m125.45 39.726c0-0.37894-0.21498-0.72489-0.55292-0.89486 0 0-0.18797-0.09399-0.23796-0.11798 0.47892-0.53192 0.79088-1.2178 0.79088-1.9867 0-1.6537-1.3458-2.9995-2.9995-2.9995h-1.9997c-0.5529 0-0.99984 0.44793-0.99984 0.99985v9.9985c0 0.55292 0.44694 0.99985 0.99984 0.99985h3.9994c0.55292 0 0.99985-0.44693 0.99985-0.99985v-4.9992z" fill-opacity=".6568"/>
        <path d="m124.25 38.817-1.9997-0.99985c1.1048 0 1.9997-0.89586 1.9997-1.9997 0-1.1048-0.89487-1.9997-1.9997-1.9997h-1.9997v9.9985h3.9994z" fill="url(#linearGradient13086)"/>
        <path d="m123.25 39.435c-0.5789-0.28995-1.4468-0.72389-1.4468-0.72389-0.34395-0.17197-0.55292-0.52092-0.55292-0.89386v4.9982h1.9997v-3.3805zm-0.99985-4.6173h-0.99984v2.9985c0-0.07498 9e-3 -0.15198 0.026-0.22896 0.10699-0.45093 0.50993-0.76988 0.97385-0.76988 0.55192 0 0.99985-0.44893 0.99985-0.99985s-0.44793-0.99985-0.99985-0.99985z" fill="url(#linearGradient13088)"/>
      </g>
      <g transform="matrix(-1.4067 0 0 1.4067 238.55 -11.034)">
        <path d="m125.45 39.726c0-0.37894-0.21498-0.72489-0.55292-0.89486 0 0-0.18797-0.09399-0.23796-0.11798 0.47892-0.53192 0.79088-1.2178 0.79088-1.9867 0-1.6537-1.3458-2.9995-2.9995-2.9995h-1.9997c-0.5529 0-0.99984 0.44793-0.99984 0.99985v9.9985c0 0.55292 0.44694 0.99985 0.99984 0.99985h3.9994c0.55292 0 0.99985-0.44693 0.99985-0.99985v-4.9992z" fill-opacity=".6568"/>
        <path d="m124.25 38.817-1.9997-0.99985c1.1048 0 1.9997-0.89586 1.9997-1.9997 0-1.1048-0.89487-1.9997-1.9997-1.9997h-1.9997v9.9985h3.9994z" fill="url(#linearGradient13086)"/>
        <path d="m123.25 39.435c-0.5789-0.28995-1.4468-0.72389-1.4468-0.72389-0.34395-0.17197-0.55292-0.52092-0.55292-0.89386v4.9982h1.9997v-3.3805zm-0.99985-4.6173h-0.99984v2.9985c0-0.07498 9e-3 -0.15198 0.026-0.22896 0.10699-0.45093 0.50993-0.76988 0.97385-0.76988 0.55192 0 0.99985-0.44893 0.99985-0.99985s-0.44793-0.99985-0.99985-0.99985z" fill="url(#linearGradient13088)"/>
      </g>
      <g transform="matrix(-1.4013 -.1226 -.1226 1.4013 253.89 5.9517)">
        <path d="m125.45 39.726c0-0.37894-0.21498-0.72489-0.55292-0.89486 0 0-0.18797-0.09399-0.23796-0.11798 0.47892-0.53192 0.79088-1.2178 0.79088-1.9867 0-1.6537-1.3458-2.9995-2.9995-2.9995h-1.9997c-0.5529 0-0.99984 0.44793-0.99984 0.99985v9.9985c0 0.55292 0.44694 0.99985 0.99984 0.99985h3.9994c0.55292 0 0.99985-0.44693 0.99985-0.99985v-4.9992z" fill-opacity=".6568"/>
        <path d="m124.25 38.817-1.9997-0.99985c1.1048 0 1.9997-0.89586 1.9997-1.9997 0-1.1048-0.89487-1.9997-1.9997-1.9997h-1.9997v9.9985h3.9994z" fill="url(#linearGradient13086)"/>
        <path d="m123.25 39.435c-0.5789-0.28995-1.4468-0.72389-1.4468-0.72389-0.34395-0.17197-0.55292-0.52092-0.55292-0.89386v4.9982h1.9997v-3.3805zm-0.99985-4.6173h-0.99984v2.9985c0-0.07498 9e-3 -0.15198 0.026-0.22896 0.10699-0.45093 0.50993-0.76988 0.97385-0.76988 0.55192 0 0.99985-0.44893 0.99985-0.99985s-0.44793-0.99985-0.99985-0.99985z" fill="url(#linearGradient13088)"/>
      </g>
      <g transform="matrix(1.5237 -.26867 .32639 1.851 10.759 22.796)">
        <path d="m46.423 16.637c-0.5785 0.20897-1.0402 0.63228-1.2999 1.1893-0.14751 0.31499-0.21819 0.64688-0.21819 0.97339 0 0.22741 0.03765 0.45174 0.10295 0.66762-0.03688 7.69e-4 -0.18822 0.0046-0.18822 0.0046-0.2904 0.0077-0.55238 0.17824-0.6753 0.44175l-1.6302 3.4771c-0.04917 0.10525-0.07298 0.21665-0.07298 0.32574 0 0.2881 0.16364 0.56544 0.44252 0.69604l2.7826 1.3045c0.18438 0.08681 0.39565 0.09603 0.58772 0.02689 0.19206-0.06914 0.34802-0.21204 0.43407-0.39642l3.2597-6.9581c0.08604-0.18438 0.09603-0.39642 0.02689-0.58772-0.06991-0.1913-0.21204-0.34802-0.39719-0.43407l-1.3906-0.65072c-0.55699-0.26121-1.1839-0.28964-1.7639-0.0799z" fill-opacity=".6568"/>
        <path d="m44.84 19.469 1.7178-0.04456c-0.76903-0.36108-1.1002-1.2753-0.73907-2.0436 0.35955-0.76826 1.2738-1.1001 2.0436-0.7383l1.3906 0.65072-3.2597 6.9581-2.7826-1.3045 1.6295-3.4779z" fill="url(#linearGradient12912)"/>
        <path d="m46.947 17.31c-0.19206 0.06991-0.34572 0.20974-0.43176 0.39489 0 7.68e-4 0 0.0015-7.68e-4 0.0015-0.04917 0.10525-0.07222 0.21511-0.07222 0.32421 0 0.28887 0.16364 0.56698 0.44329 0.69835 0.27273 0.1283 0.44098 0.4018 0.44098 0.69451 0 0.05224-0.0054 0.10525-0.01613 0.15826-0.07299 0.34879-0.37568 0.60078-0.73215 0.61 0 0-0.74675 0.01921-1.2438 0.03227-0.23893 0.50936-0.74982 1.5995-1.1025 2.3516 0.52165 0.24431 0.8689 0.40795 1.3913 0.65225 0.46941-1.0018 2.1381-4.5635 2.6075-5.5661-0.34725-0.1621-0.69451-0.32498-0.69451-0.32498-0.18746-0.08758-0.39642-0.0968-0.58926-0.02689z" fill="url(#linearGradient12914)"/>
      </g>
      <g transform="matrix(1.4945 -.40044 .48647 1.8155 8.7405 30.547)">
        <path d="m53.072 20.09c-0.60846 0.08989-1.1462 0.41179-1.5135 0.90578-0.30577 0.41179-0.45404 0.89349-0.45404 1.3713 0 0.07606 0.04379 0.14443 0.05071 0.22049-0.04994-0.0092-0.22203-0.03918-0.22203-0.03918-0.28656-0.05071-0.5762 0.06453-0.75059 0.29885l-2.2902 3.0823c-0.25276 0.34034-0.18208 0.82127 0.15826 1.0748l2.4669 1.8331c0.16364 0.12139 0.36876 0.1744 0.57082 0.14443 0.20128-0.02996 0.38336-0.13829 0.50475-0.30193l4.5811-6.1691c0.12138-0.16364 0.17286-0.36876 0.14366-0.57082-0.02996-0.20128-0.13829-0.38336-0.3027-0.50475l-1.2331-0.915c-0.49399-0.36723-1.1009-0.52011-1.7101-0.43023z" fill-opacity=".6568"/>
        <path d="m50.8 22.533 1.6917 0.29885c-0.68145-0.50782-0.82281-1.4689-0.31652-2.1496 0.50628-0.68145 1.4681-0.82358 2.1496-0.31729l1.2331 0.915-4.5811 6.1684-2.4669-1.8331z" fill="url(#linearGradient12924)"/>
        <path d="m53.296 20.838c-0.20282 0.02996-0.38183 0.13675-0.50475 0.30193-0.25276 0.33957-0.18131 0.82204 0.15903 1.0756 0.28579 0.21281 0.3872 0.5931 0.24661 0.92038-0.14136 0.32651-0.48861 0.51397-0.83894 0.45174 0 0-0.73522-0.12984-1.2246-0.21665-0.33573 0.45174-1.0533 1.4174-1.5488 2.0843 0.46249 0.34341 0.77057 0.57312 1.2331 0.91654 0.65994-0.88811 3.0047-4.0457 3.6646-4.9338-0.30807-0.22817-0.61538-0.45712-0.61538-0.45712-0.16518-0.12138-0.368-0.17286-0.57082-0.1429z" fill="url(#linearGradient12926)"/>
      </g>
      <g transform="matrix(1.4945 -.40044 .48647 1.8155 8.7405 30.547)">
        <path d="m57.588 25.064c-0.46787 0.36723-0.70219 0.89118-0.79438 1.4359-0.05147-0.02458-0.21588-0.10141-0.21588-0.10141-0.26351-0.12446-0.57389-0.08912-0.80283 0.09065l-3.0193 2.3724c-0.33343 0.26274-0.39104 0.74598-0.12907 1.0786l1.8991 2.4169c0.126 0.15903 0.31038 0.26275 0.51243 0.2881 0.20282 0.02382 0.40641-0.03303 0.56621-0.15903l6.0393-4.7494c0.1598-0.126 0.26351-0.31038 0.2881-0.5132 0.02382-0.20282-0.03303-0.40564-0.15903-0.56621l-0.94957-1.2069c-0.38106-0.484-0.92729-0.79131-1.5381-0.86429-0.61-0.07222-1.2131 0.0968-1.6971 0.47786z" fill-opacity=".6568"/>
        <path d="m56.251 26.321 1.5542 0.73292c-0.52472-0.66839-0.40948-1.6333 0.25814-2.158 0.66685-0.52472 1.6326-0.40948 2.158 0.2589l0.94957 1.2069-6.0393 4.7494-1.8991-2.4169z" fill="url(#linearGradient12904)"/>
        <path d="m58.538 25.5v0c-0.33342 0.26198-0.39104 0.74675-0.12907 1.0802 0.21972 0.28042 0.21819 0.67453-0.0038 0.95264-0.22203 0.27888-0.60616 0.368-0.92806 0.21588 0 0-0.67453-0.31806-1.1247-0.5301-0.44252 0.34802-1.3882 1.0917-2.042 1.6049 0.3557 0.45327 0.5931 0.7552 0.94957 1.2085 0.86967-0.68452 3.9619-3.1153 4.8316-3.799-0.23739-0.30116-0.47479-0.60308-0.47479-0.60308-0.12753-0.1621-0.30961-0.26428-0.5132-0.28887-0.20282-0.02382-0.4041 0.03227-0.56544 0.15903z" fill="url(#linearGradient12906)"/>
      </g>
      <g transform="matrix(1.9349 0 0 1.9349 -10.829 -29.163)">
        <path d="m66.18 46.953c-0.29117 0-0.55699 0.16518-0.68759 0.42485 0 0-0.07222 0.14443-0.09065 0.18285-0.40872-0.368-0.93574-0.60769-1.5265-0.60769-1.2707 0-2.3048 1.0341-2.3048 2.3048v1.5365c0 0.42485 0.34418 0.76826 0.76826 0.76826h7.6826c0.42485 0 0.76826-0.34341 0.76826-0.76826v-3.073c0-0.42485-0.34341-0.76826-0.76826-0.76826h-3.8413z" fill-opacity=".6568"/>
        <path d="m66.18 46.95-0.76826 1.5365c0-0.84893-0.68836-1.5365-1.5365-1.5365-0.84893 0-1.5365 0.68759-1.5365 1.5365v1.5365h7.6826v-3.073z" fill="url(#linearGradient12836)"/>
        <path d="m66.654 47.719c-0.2228 0.44482-0.55622 1.1117-0.55622 1.1117-0.13137 0.26428-0.40026 0.42485-0.68606 0.42485h3.8405v-1.5365h-2.5983zm-3.5478 0.76826v0.76826h2.304c-0.05762 0-0.11678-0.0069-0.17593-0.01997-0.34649-0.0822-0.59156-0.39181-0.59156-0.74829 0-0.42408-0.34495-0.76826-0.76826-0.76826s-0.76826 0.34418-0.76826 0.76826z" fill="url(#linearGradient12838)"/>
      </g>
      <g transform="matrix(1.9349 0 0 1.9349 -10.829 -29.163)">
        <path d="m62.348 50.634c-0.01844-0.03918-0.09065-0.18285-0.09065-0.18285-0.12984-0.25967-0.39642-0.42485-0.68759-0.42485h-3.8413c-0.42408 0-0.76826 0.34341-0.76826 0.76826v3.073c0 0.42485 0.34418 0.76826 0.76826 0.76826h7.6826c0.42485 0 0.76826-0.34341 0.76826-0.76826v-1.5365c0-1.2707-1.0341-2.3048-2.3048-2.3048-0.59156 0-1.1186 0.2397-1.5265 0.60769z" fill-opacity=".6568"/>
        <path d="m61.57 50.023 0.76826 1.5365c0-0.84893 0.68836-1.5365 1.5365-1.5365 0.84893 0 1.5365 0.68759 1.5365 1.5365v1.5365h-7.6826v-3.073z" fill="url(#linearGradient12840)"/>
        <path d="m63.107 51.56c0 0.35647-0.24508 0.66608-0.59156 0.74829-0.05916 0.01306-0.11754 0.01998-0.1767 0.01998h2.3048v-0.76826c0-0.42408-0.34495-0.76826-0.76826-0.76826s-0.76826 0.34418-0.76826 0.76826zm-4.6096-0.76826v1.5365h3.8413c-0.28579 0-0.55468-0.16057-0.68682-0.42485 0 0-0.33343-0.66685-0.55622-1.1117h-2.5983z" fill="url(#linearGradient12834)"/>
        <path d="m66.18 53.099c-0.29117 0-0.55699 0.16518-0.68759 0.42485 0 0-0.07222 0.14443-0.09065 0.18285-0.40872-0.368-0.93574-0.60769-1.5265-0.60769-1.2707 0-2.3048 1.0341-2.3048 2.3048v1.5365c0 0.42485 0.34418 0.76826 0.76826 0.76826h7.6826c0.42485 0 0.76826-0.34341 0.76826-0.76826v-3.073c0-0.42485-0.34341-0.76826-0.76826-0.76826h-3.8413z" fill-opacity=".6568"/>
        <path d="m66.18 53.096-0.76826 1.5365c0-0.84893-0.68836-1.5365-1.5365-1.5365-0.84893 0-1.5365 0.68759-1.5365 1.5365v1.5365h7.6826v-3.073z" fill="url(#linearGradient12844)"/>
        <path d="m66.654 53.865c-0.2228 0.44482-0.55622 1.1117-0.55622 1.1117-0.13214 0.26428-0.40026 0.42485-0.68682 0.42485h3.8405v-1.5365h-2.5975zm-3.5478 0.76826v0.76826h2.304c-0.05762 0-0.11678-0.0069-0.17593-0.01998-0.34649-0.0822-0.59156-0.39181-0.59156-0.74829 0-0.42408-0.34495-0.76826-0.76826-0.76826s-0.76826 0.34418-0.76826 0.76826z" fill="url(#linearGradient12838)"/>
        <path d="m62.348 56.78c-0.01844-0.03918-0.09065-0.18285-0.09065-0.18285-0.12984-0.25967-0.39642-0.42485-0.68759-0.42485h-3.8413c-0.42408 0-0.76826 0.34341-0.76826 0.76826v3.073c0 0.42485 0.34418 0.76826 0.76826 0.76826h7.6826c0.42485 0 0.76826-0.34341 0.76826-0.76826v-1.5365c0-1.2707-1.0341-2.3048-2.3048-2.3048-0.59156 0-1.1186 0.2397-1.5265 0.60769z" fill-opacity=".6568"/>
        <path d="m61.57 56.169 0.76826 1.5365c0-0.84893 0.68836-1.5365 1.5365-1.5365 0.84893 0 1.5365 0.68759 1.5365 1.5365v1.5365h-7.6826v-3.073z" fill="url(#linearGradient12848)"/>
        <path d="m63.107 57.706c0 0.35647-0.24508 0.66608-0.59156 0.74829-0.05916 0.01306-0.11754 0.01997-0.1767 0.01997h2.3048v-0.76826c0-0.42408-0.34495-0.76826-0.76826-0.76826s-0.76826 0.34418-0.76826 0.76826zm-4.6096-0.76826v1.5365h3.8413c-0.28579 0-0.55468-0.16057-0.68682-0.42485 0 0-0.33343-0.66685-0.55622-1.1117h-2.5983z" fill="url(#linearGradient12834)"/>
      </g>
      <g transform="matrix(1.9349 0 0 1.9349 -10.922 -29.163)">
        <path d="m66.18 59.246c-0.29117 0-0.55699 0.16518-0.68759 0.42485 0 0-0.07222 0.14443-0.09065 0.18285-0.40872-0.368-0.93574-0.60769-1.5265-0.60769-1.2707 0-2.3048 1.0341-2.3048 2.3048v1.5365c0 0.42485 0.34418 0.76826 0.76826 0.76826h7.6826c0.42485 0 0.76826-0.34341 0.76826-0.76826v-3.073c0-0.42485-0.34341-0.76826-0.76826-0.76826h-3.8413z" fill-opacity=".6568"/>
        <path d="m66.18 59.242-0.76826 1.5365c0-0.84893-0.68836-1.5365-1.5365-1.5365-0.84893 0-1.5365 0.68759-1.5365 1.5365v1.5365h7.6826v-3.073z" fill="url(#linearGradient12852)"/>
        <path d="m66.654 60.011c-0.2228 0.44482-0.55622 1.1117-0.55622 1.1117-0.13214 0.26428-0.40026 0.42485-0.68682 0.42485h3.8405v-1.5365h-2.5975zm-3.5478 0.76826v0.76826h2.304c-0.05762 0-0.11678-0.0069-0.17593-0.01998-0.34649-0.0822-0.59156-0.39181-0.59156-0.74829 0-0.42408-0.34495-0.76826-0.76826-0.76826s-0.76826 0.34418-0.76826 0.76826z" fill="url(#linearGradient12838)"/>
      </g>
      <g transform="matrix(1.9349 0 0 1.9349 -10.829 -29.163)">
        <path d="m62.348 62.926c-0.01844-0.03918-0.09065-0.18285-0.09065-0.18285-0.12984-0.25967-0.39642-0.42485-0.68759-0.42485h-3.8413c-0.42408 0-0.76826 0.34341-0.76826 0.76826v3.073c0 0.42485 0.34418 0.76826 0.76826 0.76826h7.6826c0.42485 0 0.76826-0.34341 0.76826-0.76826v-1.5365c0-1.2707-1.0341-2.3048-2.3048-2.3048-0.59156 0-1.1186 0.2397-1.5265 0.60769z" fill-opacity=".6568"/>
        <path d="m61.57 62.316 0.76826 1.5365c0-0.84893 0.68836-1.5365 1.5365-1.5365 0.84893 0 1.5365 0.68759 1.5365 1.5365v1.5365h-7.6826v-3.073z" fill="url(#linearGradient12856)"/>
        <path d="m63.107 63.852c0 0.35647-0.24508 0.66608-0.59156 0.74829-0.05916 0.01306-0.11754 0.01998-0.1767 0.01998h2.3048v-0.76826c0-0.42408-0.34495-0.76826-0.76826-0.76826s-0.76826 0.34418-0.76826 0.76826zm-4.6096-0.76826v1.5365h3.8413c-0.28579 0-0.55468-0.16057-0.68682-0.42485 0 0-0.33343-0.66685-0.55622-1.1117h-2.5983z" fill="url(#linearGradient12834)"/>
      </g>
      <g transform="matrix(1.9349 0 0 1.9349 -10.922 -29.163)">
        <path d="m66.18 65.392c-0.29117 0-0.55699 0.16518-0.68759 0.42485 0 0-0.07222 0.14443-0.09065 0.18285-0.40872-0.368-0.93574-0.60769-1.5265-0.60769-1.2707 0-2.3048 1.0341-2.3048 2.3048v1.5365c0 0.42485 0.34418 0.76826 0.76826 0.76826h7.6826c0.42485 0 0.76826-0.34341 0.76826-0.76826v-3.073c0-0.42485-0.34341-0.76826-0.76826-0.76826h-3.8413z" fill-opacity=".6568"/>
        <path d="m66.18 65.389-0.76826 1.5365c0-0.84893-0.68836-1.5365-1.5365-1.5365-0.84893 0-1.5365 0.68759-1.5365 1.5365v1.5365h7.6826v-3.073z" fill="url(#linearGradient12860)"/>
        <path d="m66.654 66.157c-0.2228 0.44482-0.55622 1.1117-0.55622 1.1117-0.13214 0.26428-0.40026 0.42485-0.68682 0.42485h3.8405v-1.5365h-2.5975zm-3.5478 0.76826v0.76826h2.304c-0.05762 0-0.11678-0.0069-0.17593-0.01998-0.34649-0.0822-0.59156-0.39181-0.59156-0.74829 0-0.42408-0.34495-0.76826-0.76826-0.76826s-0.76826 0.34418-0.76826 0.76826z" fill="url(#linearGradient12838)"/>
      </g>
      <g transform="matrix(1.9349 0 0 1.9349 -10.829 -29.163)">
        <path d="m62.348 69.634c-0.01844-0.03918-0.09065-0.18284-0.09065-0.18284-0.12984-0.25968-0.39642-0.42485-0.68759-0.42485h-3.8413c-0.42408 0-0.76826 0.34341-0.76826 0.76826v3.073c0 0.42485 0.34418 0.76826 0.76826 0.76826h7.6826c0.42485 0 0.76826-0.34341 0.76826-0.76826v-1.5365c0-1.2707-1.0341-2.3048-2.3048-2.3048-0.59156 0-1.1186 0.2397-1.5265 0.60769z" fill-opacity=".6568"/>
        <path d="m61.57 69.023 0.76826 1.5365c0-0.84893 0.68836-1.5365 1.5365-1.5365 0.84893 0 1.5365 0.68759 1.5365 1.5365v1.5365h-7.6826v-3.073z" fill="url(#linearGradient12864)"/>
        <path d="m63.107 70.56c0 0.35647-0.24508 0.66608-0.59156 0.74828-0.05916 0.01306-0.11754 0.01998-0.1767 0.01998h2.3048v-0.76826c0-0.42408-0.34495-0.76826-0.76826-0.76826s-0.76826 0.34418-0.76826 0.76826zm-4.6096-0.76826v1.5365h3.8413c-0.28579 0-0.55468-0.16057-0.68682-0.42485 0 0-0.33343-0.66685-0.55622-1.1117h-2.5983z" fill="url(#linearGradient12866)"/>
      </g>
      <g transform="matrix(1.9349 0 0 1.9349 -10.922 -29.163)">
        <path d="m66.18 72.099c-0.29117 0-0.55699 0.16518-0.68759 0.42485 0 0-0.07222 0.14443-0.09065 0.18285-0.40872-0.368-0.93574-0.6077-1.5265-0.6077-1.2707 0-2.3048 1.0341-2.3048 2.3048v1.5365c0 0.42485 0.34418 0.76826 0.76826 0.76826h7.6826c0.42485 0 0.76826-0.34341 0.76826-0.76826v-3.073c0-0.42485-0.34341-0.76826-0.76826-0.76826h-3.8413z" fill-opacity=".6568"/>
        <path d="m66.18 72.096-0.76826 1.5365c0-0.84893-0.68836-1.5365-1.5365-1.5365-0.84893 0-1.5365 0.68759-1.5365 1.5365v1.5365h7.6826v-3.073z" fill="url(#linearGradient12868)"/>
        <path d="m66.654 72.865c-0.2228 0.44482-0.55622 1.1117-0.55622 1.1117-0.13214 0.26429-0.40026 0.42485-0.68682 0.42485h3.8405v-1.5365h-2.5975zm-3.5478 0.76826v0.76826h2.304c-0.05762 0-0.11678-0.0069-0.17593-0.01997-0.34649-0.08221-0.59156-0.39182-0.59156-0.74829 0-0.42408-0.34495-0.76826-0.76826-0.76826s-0.76826 0.34418-0.76826 0.76826z" fill="url(#linearGradient12870)"/>
      </g>
      <g transform="matrix(1.9349 0 0 1.9349 -10.829 -29.163)">
        <path d="m62.348 75.78c-0.01844-0.03918-0.09065-0.18285-0.09065-0.18285-0.12984-0.25967-0.39642-0.42484-0.68759-0.42484h-3.8413c-0.42408 0-0.76826 0.34341-0.76826 0.76826v3.073c0 0.42485 0.34418 0.76826 0.76826 0.76826h7.6826c0.42485 0 0.76826-0.34341 0.76826-0.76826v-1.5365c0-1.2707-1.0341-2.3048-2.3048-2.3048-0.59156 0-1.1186 0.23969-1.5265 0.60769z" fill-opacity=".6568"/>
        <path d="m61.57 75.169 0.76826 1.5365c0-0.84893 0.68836-1.5365 1.5365-1.5365 0.84893 0 1.5365 0.6876 1.5365 1.5365v1.5365h-7.6826v-3.073z" fill="url(#linearGradient12872)"/>
        <path d="m63.107 76.706c0 0.35647-0.24508 0.66608-0.59156 0.74828-0.05916 0.01306-0.11754 0.01998-0.1767 0.01998h2.3048v-0.76826c0-0.42409-0.34495-0.76827-0.76826-0.76827s-0.76826 0.34418-0.76826 0.76827zm-4.6096-0.76827v1.5365h3.8413c-0.28579 0-0.55468-0.16057-0.68682-0.42485 0 0-0.33343-0.66685-0.55622-1.1117h-2.5983z" fill="url(#linearGradient12866)"/>
      </g>
      <g transform="matrix(1.9349 0 0 1.9349 -10.922 -29.416)">
        <path d="m66.18 78.246c-0.29117 0-0.55699 0.16518-0.68759 0.42485 0 0-0.07222 0.14443-0.09065 0.18284-0.40872-0.36799-0.93574-0.60769-1.5265-0.60769-1.2707 0-2.3048 1.0341-2.3048 2.3048v1.5365c0 0.42484 0.34418 0.76826 0.76826 0.76826h7.6826c0.42485 0 0.76826-0.34342 0.76826-0.76826v-3.073c0-0.42485-0.34341-0.76826-0.76826-0.76826h-3.8413z" fill-opacity=".6568"/>
        <path d="m66.18 78.242-0.76826 1.5365c0-0.84893-0.68836-1.5365-1.5365-1.5365-0.84893 0-1.5365 0.68759-1.5365 1.5365v1.5365h7.6826v-3.073z" fill="url(#linearGradient12876)"/>
        <path d="m66.654 79.011c-0.2228 0.44482-0.55622 1.1117-0.55622 1.1117-0.13214 0.26428-0.40026 0.42485-0.68682 0.42485h3.8405v-1.5365h-2.5975zm-3.5478 0.76826v0.76826h2.304c-0.05762 0-0.11678-0.0069-0.17593-0.01997-0.34649-0.08221-0.59156-0.39182-0.59156-0.74829 0-0.42408-0.34495-0.76826-0.76826-0.76826s-0.76826 0.34418-0.76826 0.76826z" fill="url(#linearGradient12870)"/>
      </g>
      <g transform="matrix(1.9349 0 0 1.9349 -10.829 -29.163)">
        <path d="m62.348 81.926c-0.01844-0.03918-0.09065-0.18285-0.09065-0.18285-0.12984-0.25967-0.39642-0.42485-0.68759-0.42485h-3.8413c-0.42408 0-0.76826 0.34342-0.76826 0.76827v3.073c0 0.42485 0.34418 0.76826 0.76826 0.76826h7.6826c0.42485 0 0.76826-0.34341 0.76826-0.76826v-1.5365c0-1.2707-1.0341-2.3048-2.3048-2.3048-0.59156 0-1.1186 0.2397-1.5265 0.6077z" fill-opacity=".6568"/>
        <path d="m61.57 81.316 0.76826 1.5365c0-0.84893 0.68836-1.5365 1.5365-1.5365 0.84893 0 1.5365 0.68759 1.5365 1.5365v1.5365h-7.6826v-3.073z" fill="url(#linearGradient12880)"/>
        <path d="m63.107 82.852c0 0.35648-0.24508 0.66609-0.59156 0.74829-0.05916 0.01306-0.11754 0.01997-0.1767 0.01997h2.3048v-0.76826c0-0.42408-0.34495-0.76826-0.76826-0.76826s-0.76826 0.34418-0.76826 0.76826zm-4.6096-0.76826v1.5365h3.8413c-0.28579 0-0.55468-0.16056-0.68682-0.42484 0 0-0.33343-0.66685-0.55622-1.1117h-2.5983z" fill="url(#linearGradient12866)"/>
      </g>
      <g transform="matrix(1.9349 0 0 1.9349 -10.922 -29.416)">
        <path d="m66.18 84.392c-0.29117 0-0.55699 0.16517-0.68759 0.42485 0 0-0.07222 0.14443-0.09065 0.18284-0.40872-0.36799-0.93574-0.60769-1.5265-0.60769-1.2707 0-2.3048 1.0341-2.3048 2.3048v1.5365c0 0.42485 0.34418 0.76826 0.76826 0.76826h7.6826c0.42485 0 0.76826-0.34341 0.76826-0.76826v-3.073c0-0.42485-0.34341-0.76826-0.76826-0.76826h-3.8413z" fill-opacity=".6568"/>
        <path d="m66.18 84.389-0.76826 1.5365c0-0.84893-0.68836-1.5365-1.5365-1.5365-0.84893 0-1.5365 0.6876-1.5365 1.5365v1.5365h7.6826v-3.073z" fill="url(#linearGradient12884)"/>
        <path d="m66.654 85.157c-0.2228 0.44482-0.55622 1.1117-0.55622 1.1117-0.13214 0.26428-0.40026 0.42485-0.68682 0.42485h3.8405v-1.5365h-2.5975zm-3.5478 0.76826v0.76826h2.304c-0.05762 0-0.11678-0.0069-0.17593-0.01998-0.34649-0.0822-0.59156-0.39181-0.59156-0.74828 0-0.42408-0.34495-0.76826-0.76826-0.76826s-0.76826 0.34418-0.76826 0.76826z" fill="url(#linearGradient12870)"/>
      </g>
      <g transform="matrix(1.9349 0 0 1.9349 -10.829 -29.163)">
        <path d="m62.348 87.926c-0.01844-0.03918-0.09065-0.18285-0.09065-0.18285-0.12984-0.25967-0.39642-0.42485-0.68759-0.42485h-3.8413c-0.42408 0-0.76826 0.34342-0.76826 0.76827v3.073c0 0.42485 0.34418 0.76826 0.76826 0.76826h7.6826c0.42485 0 0.76826-0.34341 0.76826-0.76826v-1.5365c0-1.2707-1.0341-2.3048-2.3048-2.3048-0.59156 0-1.1186 0.2397-1.5265 0.6077z" fill-opacity=".6568"/>
        <path d="m61.57 87.316 0.76826 1.5365c0-0.84893 0.68836-1.5365 1.5365-1.5365 0.84893 0 1.5365 0.68759 1.5365 1.5365v1.5365h-7.6826v-3.073z" fill="url(#linearGradient12888)"/>
        <path d="m63.107 88.852c0 0.35648-0.24508 0.66609-0.59156 0.74829-0.05916 0.01306-0.11754 0.01997-0.1767 0.01997h2.3048v-0.76826c0-0.42408-0.34495-0.76826-0.76826-0.76826s-0.76826 0.34418-0.76826 0.76826zm-4.6096-0.76826v1.5365h3.8413c-0.28579 0-0.55468-0.16056-0.68682-0.42484 0 0-0.33343-0.66685-0.55622-1.1117h-2.5983z" fill="url(#linearGradient12890)"/>
      </g>
      <g transform="matrix(1.9349 0 0 1.9349 -10.922 -29.416)">
        <path d="m66.18 90.392c-0.29117 0-0.55699 0.16517-0.68759 0.42485 0 0-0.07222 0.14443-0.09065 0.18284-0.40872-0.36799-0.93574-0.60769-1.5265-0.60769-1.2707 0-2.3048 1.0341-2.3048 2.3048v1.5365c0 0.42485 0.34418 0.76826 0.76826 0.76826h7.6826c0.42485 0 0.76826-0.34341 0.76826-0.76826v-3.073c0-0.42485-0.34341-0.76826-0.76826-0.76826h-3.8413z" fill-opacity=".6568"/>
        <path d="m66.18 90.389-0.76826 1.5365c0-0.84893-0.68836-1.5365-1.5365-1.5365-0.84893 0-1.5365 0.6876-1.5365 1.5365v1.5365h7.6826v-3.073z" fill="url(#linearGradient12892)"/>
        <path d="m66.654 91.157c-0.2228 0.44482-0.55622 1.1117-0.55622 1.1117-0.13214 0.26428-0.40026 0.42485-0.68682 0.42485h3.8405v-1.5365h-2.5975zm-3.5478 0.76826v0.76826h2.304c-0.05762 0-0.11678-0.0069-0.17593-0.01998-0.34649-0.0822-0.59156-0.39181-0.59156-0.74828 0-0.42408-0.34495-0.76826-0.76826-0.76826s-0.76826 0.34418-0.76826 0.76826z" fill="url(#linearGradient12894)"/>
      </g>
      <g transform="matrix(1.9349 0 0 1.9349 -10.829 -29.163)">
        <path d="m62.348 93.926c-0.01844-0.03918-0.09065-0.18285-0.09065-0.18285-0.12984-0.25967-0.39642-0.42485-0.68759-0.42485h-3.8413c-0.42408 0-0.76826 0.34342-0.76826 0.76827v3.073c0 0.42485 0.34418 0.76826 0.76826 0.76826h7.6826c0.42485 0 0.76826-0.34341 0.76826-0.76826v-1.5365c0-1.2707-1.0341-2.3048-2.3048-2.3048-0.59156 0-1.1186 0.2397-1.5265 0.6077z" fill-opacity=".6568"/>
        <path d="m61.57 93.316 0.76826 1.5365c0-0.84893 0.68836-1.5365 1.5365-1.5365 0.84893 0 1.5365 0.68759 1.5365 1.5365v1.5365h-7.6826v-3.073z" fill="url(#linearGradient12896)"/>
        <path d="m63.107 94.852c0 0.35648-0.24508 0.66609-0.59156 0.74829-0.05916 0.01306-0.11754 0.01997-0.1767 0.01997h2.3048v-0.76826c0-0.42408-0.34495-0.76826-0.76826-0.76826s-0.76826 0.34418-0.76826 0.76826zm-4.6096-0.76826v1.5365h3.8413c-0.28579 0-0.55468-0.16056-0.68682-0.42484 0 0-0.33343-0.66685-0.55622-1.1117h-2.5983z" fill="url(#linearGradient12898)"/>
      </g>
      <g transform="matrix(1.9349 0 0 1.9349 -10.922 6.216)">
        <path d="m66.18 78.246c-0.29117 0-0.55699 0.16518-0.68759 0.42485 0 0-0.07222 0.14443-0.09065 0.18284-0.40872-0.36799-0.93574-0.60769-1.5265-0.60769-1.2707 0-2.3048 1.0341-2.3048 2.3048v1.5365c0 0.42484 0.34418 0.76826 0.76826 0.76826h7.6826c0.42485 0 0.76826-0.34342 0.76826-0.76826v-3.073c0-0.42485-0.34341-0.76826-0.76826-0.76826h-3.8413z" fill-opacity=".6568"/>
        <path d="m66.18 78.242-0.76826 1.5365c0-0.84893-0.68836-1.5365-1.5365-1.5365-0.84893 0-1.5365 0.68759-1.5365 1.5365v1.5365h7.6826v-3.073z" fill="url(#linearGradient12876)"/>
        <path d="m66.654 79.011c-0.2228 0.44482-0.55622 1.1117-0.55622 1.1117-0.13214 0.26428-0.40026 0.42485-0.68682 0.42485h3.8405v-1.5365h-2.5975zm-3.5478 0.76826v0.76826h2.304c-0.05762 0-0.11678-0.0069-0.17593-0.01997-0.34649-0.08221-0.59156-0.39182-0.59156-0.74829 0-0.42408-0.34495-0.76826-0.76826-0.76826s-0.76826 0.34418-0.76826 0.76826z" fill="url(#linearGradient12870)"/>
      </g>
      <g transform="matrix(1.9349 0 0 1.9349 -10.829 6.4692)">
        <path d="m62.348 81.926c-0.01844-0.03918-0.09065-0.18285-0.09065-0.18285-0.12984-0.25967-0.39642-0.42485-0.68759-0.42485h-3.8413c-0.42408 0-0.76826 0.34342-0.76826 0.76827v3.073c0 0.42485 0.34418 0.76826 0.76826 0.76826h7.6826c0.42485 0 0.76826-0.34341 0.76826-0.76826v-1.5365c0-1.2707-1.0341-2.3048-2.3048-2.3048-0.59156 0-1.1186 0.2397-1.5265 0.6077z" fill-opacity=".6568"/>
        <path d="m61.57 81.316 0.76826 1.5365c0-0.84893 0.68836-1.5365 1.5365-1.5365 0.84893 0 1.5365 0.68759 1.5365 1.5365v1.5365h-7.6826v-3.073z" fill="url(#linearGradient12880)"/>
        <path d="m63.107 82.852c0 0.35648-0.24508 0.66609-0.59156 0.74829-0.05916 0.01306-0.11754 0.01997-0.1767 0.01997h2.3048v-0.76826c0-0.42408-0.34495-0.76826-0.76826-0.76826s-0.76826 0.34418-0.76826 0.76826zm-4.6096-0.76826v1.5365h3.8413c-0.28579 0-0.55468-0.16056-0.68682-0.42484 0 0-0.33343-0.66685-0.55622-1.1117h-2.5983z" fill="url(#linearGradient12866)"/>
      </g>
      <g transform="matrix(1.9349 0 0 1.9349 -10.922 6.216)">
        <path d="m66.18 84.392c-0.29117 0-0.55699 0.16517-0.68759 0.42485 0 0-0.07222 0.14443-0.09065 0.18284-0.40872-0.36799-0.93574-0.60769-1.5265-0.60769-1.2707 0-2.3048 1.0341-2.3048 2.3048v1.5365c0 0.42485 0.34418 0.76826 0.76826 0.76826h7.6826c0.42485 0 0.76826-0.34341 0.76826-0.76826v-3.073c0-0.42485-0.34341-0.76826-0.76826-0.76826h-3.8413z" fill-opacity=".6568"/>
        <path d="m66.18 84.389-0.76826 1.5365c0-0.84893-0.68836-1.5365-1.5365-1.5365-0.84893 0-1.5365 0.6876-1.5365 1.5365v1.5365h7.6826v-3.073z" fill="url(#linearGradient12884)"/>
        <path d="m66.654 85.157c-0.2228 0.44482-0.55622 1.1117-0.55622 1.1117-0.13214 0.26428-0.40026 0.42485-0.68682 0.42485h3.8405v-1.5365h-2.5975zm-3.5478 0.76826v0.76826h2.304c-0.05762 0-0.11678-0.0069-0.17593-0.01998-0.34649-0.0822-0.59156-0.39181-0.59156-0.74828 0-0.42408-0.34495-0.76826-0.76826-0.76826s-0.76826 0.34418-0.76826 0.76826z" fill="url(#linearGradient12870)"/>
      </g>
      <g transform="matrix(1.9349 0 0 1.9349 -10.829 6.4692)">
        <path d="m62.348 87.926c-0.01844-0.03918-0.09065-0.18285-0.09065-0.18285-0.12984-0.25967-0.39642-0.42485-0.68759-0.42485h-3.8413c-0.42408 0-0.76826 0.34342-0.76826 0.76827v3.073c0 0.42485 0.34418 0.76826 0.76826 0.76826h7.6826c0.42485 0 0.76826-0.34341 0.76826-0.76826v-1.5365c0-1.2707-1.0341-2.3048-2.3048-2.3048-0.59156 0-1.1186 0.2397-1.5265 0.6077z" fill-opacity=".6568"/>
        <path d="m61.57 87.316 0.76826 1.5365c0-0.84893 0.68836-1.5365 1.5365-1.5365 0.84893 0 1.5365 0.68759 1.5365 1.5365v1.5365h-7.6826v-3.073z" fill="url(#linearGradient12888)"/>
        <path d="m63.107 88.852c0 0.35648-0.24508 0.66609-0.59156 0.74829-0.05916 0.01306-0.11754 0.01997-0.1767 0.01997h2.3048v-0.76826c0-0.42408-0.34495-0.76826-0.76826-0.76826s-0.76826 0.34418-0.76826 0.76826zm-4.6096-0.76826v1.5365h3.8413c-0.28579 0-0.55468-0.16056-0.68682-0.42484 0 0-0.33343-0.66685-0.55622-1.1117h-2.5983z" fill="url(#linearGradient12890)"/>
      </g>
      <g transform="matrix(1.9349 0 0 1.9349 -10.922 6.216)">
        <path d="m66.18 90.392c-0.29117 0-0.55699 0.16517-0.68759 0.42485 0 0-0.07222 0.14443-0.09065 0.18284-0.40872-0.36799-0.93574-0.60769-1.5265-0.60769-1.2707 0-2.3048 1.0341-2.3048 2.3048v1.5365c0 0.42485 0.34418 0.76826 0.76826 0.76826h7.6826c0.42485 0 0.76826-0.34341 0.76826-0.76826v-3.073c0-0.42485-0.34341-0.76826-0.76826-0.76826h-3.8413z" fill-opacity=".6568"/>
        <path d="m66.18 90.389-0.76826 1.5365c0-0.84893-0.68836-1.5365-1.5365-1.5365-0.84893 0-1.5365 0.6876-1.5365 1.5365v1.5365h7.6826v-3.073z" fill="url(#linearGradient12892)"/>
        <path d="m66.654 91.157c-0.2228 0.44482-0.55622 1.1117-0.55622 1.1117-0.13214 0.26428-0.40026 0.42485-0.68682 0.42485h3.8405v-1.5365h-2.5975zm-3.5478 0.76826v0.76826h2.304c-0.05762 0-0.11678-0.0069-0.17593-0.01998-0.34649-0.0822-0.59156-0.39181-0.59156-0.74828 0-0.42408-0.34495-0.76826-0.76826-0.76826s-0.76826 0.34418-0.76826 0.76826z" fill="url(#linearGradient12894)"/>
      </g>
      <g transform="matrix(1.9349 0 0 1.9349 -10.829 6.4692)">
        <path d="m62.348 93.926c-0.01844-0.03918-0.09065-0.18285-0.09065-0.18285-0.12984-0.25967-0.39642-0.42485-0.68759-0.42485h-3.8413c-0.42408 0-0.76826 0.34342-0.76826 0.76827v3.073c0 0.42485 0.34418 0.76826 0.76826 0.76826h7.6826c0.42485 0 0.76826-0.34341 0.76826-0.76826v-1.5365c0-1.2707-1.0341-2.3048-2.3048-2.3048-0.59156 0-1.1186 0.2397-1.5265 0.6077z" fill-opacity=".6568"/>
        <path d="m61.57 93.316 0.76826 1.5365c0-0.84893 0.68836-1.5365 1.5365-1.5365 0.84893 0 1.5365 0.68759 1.5365 1.5365v1.5365h-7.6826v-3.073z" fill="url(#linearGradient12896)"/>
        <path d="m63.107 94.852c0 0.35648-0.24508 0.66609-0.59156 0.74829-0.05916 0.01306-0.11754 0.01997-0.1767 0.01997h2.3048v-0.76826c0-0.42408-0.34495-0.76826-0.76826-0.76826s-0.76826 0.34418-0.76826 0.76826zm-4.6096-0.76826v1.5365h3.8413c-0.28579 0-0.55468-0.16056-0.68682-0.42484 0 0-0.33343-0.66685-0.55622-1.1117h-2.5983z" fill="url(#linearGradient12898)"/>
      </g>
      <g transform="matrix(1.9349 0 0 1.9349 -10.922 41.533)">
        <path d="m66.18 78.246c-0.29117 0-0.55699 0.16518-0.68759 0.42485 0 0-0.07222 0.14443-0.09065 0.18284-0.40872-0.36799-0.93574-0.60769-1.5265-0.60769-1.2707 0-2.3048 1.0341-2.3048 2.3048v1.5365c0 0.42484 0.34418 0.76826 0.76826 0.76826h7.6826c0.42485 0 0.76826-0.34342 0.76826-0.76826v-3.073c0-0.42485-0.34341-0.76826-0.76826-0.76826h-3.8413z" fill-opacity=".6568"/>
        <path d="m66.18 78.242-0.76826 1.5365c0-0.84893-0.68836-1.5365-1.5365-1.5365-0.84893 0-1.5365 0.68759-1.5365 1.5365v1.5365h7.6826v-3.073z" fill="url(#linearGradient12876)"/>
        <path d="m66.654 79.011c-0.2228 0.44482-0.55622 1.1117-0.55622 1.1117-0.13214 0.26428-0.40026 0.42485-0.68682 0.42485h3.8405v-1.5365h-2.5975zm-3.5478 0.76826v0.76826h2.304c-0.05762 0-0.11678-0.0069-0.17593-0.01997-0.34649-0.08221-0.59156-0.39182-0.59156-0.74829 0-0.42408-0.34495-0.76826-0.76826-0.76826s-0.76826 0.34418-0.76826 0.76826z" fill="url(#linearGradient12870)"/>
      </g>
      <g transform="matrix(1.9349 0 0 1.9349 -10.829 41.786)">
        <path d="m62.348 81.926c-0.01844-0.03918-0.09065-0.18285-0.09065-0.18285-0.12984-0.25967-0.39642-0.42485-0.68759-0.42485h-3.8413c-0.42408 0-0.76826 0.34342-0.76826 0.76827v3.073c0 0.42485 0.34418 0.76826 0.76826 0.76826h7.6826c0.42485 0 0.76826-0.34341 0.76826-0.76826v-1.5365c0-1.2707-1.0341-2.3048-2.3048-2.3048-0.59156 0-1.1186 0.2397-1.5265 0.6077z" fill-opacity=".6568"/>
        <path d="m61.57 81.316 0.76826 1.5365c0-0.84893 0.68836-1.5365 1.5365-1.5365 0.84893 0 1.5365 0.68759 1.5365 1.5365v1.5365h-7.6826v-3.073z" fill="url(#linearGradient12880)"/>
        <path d="m63.107 82.852c0 0.35648-0.24508 0.66609-0.59156 0.74829-0.05916 0.01306-0.11754 0.01997-0.1767 0.01997h2.3048v-0.76826c0-0.42408-0.34495-0.76826-0.76826-0.76826s-0.76826 0.34418-0.76826 0.76826zm-4.6096-0.76826v1.5365h3.8413c-0.28579 0-0.55468-0.16056-0.68682-0.42484 0 0-0.33343-0.66685-0.55622-1.1117h-2.5983z" fill="url(#linearGradient12866)"/>
      </g>
      <g transform="matrix(1.9349 0 0 1.9349 -10.922 41.533)">
        <path d="m66.18 84.392c-0.29117 0-0.55699 0.16517-0.68759 0.42485 0 0-0.07222 0.14443-0.09065 0.18284-0.40872-0.36799-0.93574-0.60769-1.5265-0.60769-1.2707 0-2.3048 1.0341-2.3048 2.3048v1.5365c0 0.42485 0.34418 0.76826 0.76826 0.76826h7.6826c0.42485 0 0.76826-0.34341 0.76826-0.76826v-3.073c0-0.42485-0.34341-0.76826-0.76826-0.76826h-3.8413z" fill-opacity=".6568"/>
        <path d="m66.18 84.389-0.76826 1.5365c0-0.84893-0.68836-1.5365-1.5365-1.5365-0.84893 0-1.5365 0.6876-1.5365 1.5365v1.5365h7.6826v-3.073z" fill="url(#linearGradient12884)"/>
        <path d="m66.654 85.157c-0.2228 0.44482-0.55622 1.1117-0.55622 1.1117-0.13214 0.26428-0.40026 0.42485-0.68682 0.42485h3.8405v-1.5365h-2.5975zm-3.5478 0.76826v0.76826h2.304c-0.05762 0-0.11678-0.0069-0.17593-0.01998-0.34649-0.0822-0.59156-0.39181-0.59156-0.74828 0-0.42408-0.34495-0.76826-0.76826-0.76826s-0.76826 0.34418-0.76826 0.76826z" fill="url(#linearGradient12870)"/>
      </g>
      <g transform="matrix(1.9349 0 0 1.9349 -10.829 41.786)">
        <path d="m62.348 87.926c-0.01844-0.03918-0.09065-0.18285-0.09065-0.18285-0.12984-0.25967-0.39642-0.42485-0.68759-0.42485h-3.8413c-0.42408 0-0.76826 0.34342-0.76826 0.76827v3.073c0 0.42485 0.34418 0.76826 0.76826 0.76826h7.6826c0.42485 0 0.76826-0.34341 0.76826-0.76826v-1.5365c0-1.2707-1.0341-2.3048-2.3048-2.3048-0.59156 0-1.1186 0.2397-1.5265 0.6077z" fill-opacity=".6568"/>
        <path d="m61.57 87.316 0.76826 1.5365c0-0.84893 0.68836-1.5365 1.5365-1.5365 0.84893 0 1.5365 0.68759 1.5365 1.5365v1.5365h-7.6826v-3.073z" fill="url(#linearGradient12888)"/>
        <path d="m63.107 88.852c0 0.35648-0.24508 0.66609-0.59156 0.74829-0.05916 0.01306-0.11754 0.01997-0.1767 0.01997h2.3048v-0.76826c0-0.42408-0.34495-0.76826-0.76826-0.76826s-0.76826 0.34418-0.76826 0.76826zm-4.6096-0.76826v1.5365h3.8413c-0.28579 0-0.55468-0.16056-0.68682-0.42484 0 0-0.33343-0.66685-0.55622-1.1117h-2.5983z" fill="url(#linearGradient12890)"/>
      </g>
      <g transform="matrix(1.9349 0 0 1.9349 -10.922 41.533)">
        <path d="m66.18 90.392c-0.29117 0-0.55699 0.16517-0.68759 0.42485 0 0-0.07222 0.14443-0.09065 0.18284-0.40872-0.36799-0.93574-0.60769-1.5265-0.60769-1.2707 0-2.3048 1.0341-2.3048 2.3048v1.5365c0 0.42485 0.34418 0.76826 0.76826 0.76826h7.6826c0.42485 0 0.76826-0.34341 0.76826-0.76826v-3.073c0-0.42485-0.34341-0.76826-0.76826-0.76826h-3.8413z" fill-opacity=".6568"/>
        <path d="m66.18 90.389-0.76826 1.5365c0-0.84893-0.68836-1.5365-1.5365-1.5365-0.84893 0-1.5365 0.6876-1.5365 1.5365v1.5365h7.6826v-3.073z" fill="url(#linearGradient12892)"/>
        <path d="m66.654 91.157c-0.2228 0.44482-0.55622 1.1117-0.55622 1.1117-0.13214 0.26428-0.40026 0.42485-0.68682 0.42485h3.8405v-1.5365h-2.5975zm-3.5478 0.76826v0.76826h2.304c-0.05762 0-0.11678-0.0069-0.17593-0.01998-0.34649-0.0822-0.59156-0.39181-0.59156-0.74828 0-0.42408-0.34495-0.76826-0.76826-0.76826s-0.76826 0.34418-0.76826 0.76826z" fill="url(#linearGradient12894)"/>
      </g>
      <g transform="matrix(1.9349 0 0 1.9349 -10.829 41.786)">
        <path d="m62.348 93.926c-0.01844-0.03918-0.09065-0.18285-0.09065-0.18285-0.12984-0.25967-0.39642-0.42485-0.68759-0.42485h-3.8413c-0.42408 0-0.76826 0.34342-0.76826 0.76827v3.073c0 0.42485 0.34418 0.76826 0.76826 0.76826h7.6826c0.42485 0 0.76826-0.34341 0.76826-0.76826v-1.5365c0-1.2707-1.0341-2.3048-2.3048-2.3048-0.59156 0-1.1186 0.2397-1.5265 0.6077z" fill-opacity=".6568"/>
        <path d="m61.57 93.316 0.76826 1.5365c0-0.84893 0.68836-1.5365 1.5365-1.5365 0.84893 0 1.5365 0.68759 1.5365 1.5365v1.5365h-7.6826v-3.073z" fill="url(#linearGradient12896)"/>
        <path d="m63.107 94.852c0 0.35648-0.24508 0.66609-0.59156 0.74829-0.05916 0.01306-0.11754 0.01997-0.1767 0.01997h2.3048v-0.76826c0-0.42408-0.34495-0.76826-0.76826-0.76826s-0.76826 0.34418-0.76826 0.76826zm-4.6096-0.76826v1.5365h3.8413c-0.28579 0-0.55468-0.16056-0.68682-0.42484 0 0-0.33343-0.66685-0.55622-1.1117h-2.5983z" fill="url(#linearGradient12898)"/>
      </g>
      <g transform="matrix(1.9349 0 0 1.9349 -10.922 64.956)">
        <path d="m66.18 84.392c-0.29117 0-0.55699 0.16517-0.68759 0.42485 0 0-0.07222 0.14443-0.09065 0.18284-0.40872-0.36799-0.93574-0.60769-1.5265-0.60769-1.2707 0-2.3048 1.0341-2.3048 2.3048v1.5365c0 0.42485 0.34418 0.76826 0.76826 0.76826h7.6826c0.42485 0 0.76826-0.34341 0.76826-0.76826v-3.073c0-0.42485-0.34341-0.76826-0.76826-0.76826h-3.8413z" fill-opacity=".6568"/>
        <path d="m66.18 84.389-0.76826 1.5365c0-0.84893-0.68836-1.5365-1.5365-1.5365-0.84893 0-1.5365 0.6876-1.5365 1.5365v1.5365h7.6826v-3.073z" fill="url(#linearGradient12884)"/>
        <path d="m66.654 85.157c-0.2228 0.44482-0.55622 1.1117-0.55622 1.1117-0.13214 0.26428-0.40026 0.42485-0.68682 0.42485h3.8405v-1.5365h-2.5975zm-3.5478 0.76826v0.76826h2.304c-0.05762 0-0.11678-0.0069-0.17593-0.01998-0.34649-0.0822-0.59156-0.39181-0.59156-0.74828 0-0.42408-0.34495-0.76826-0.76826-0.76826s-0.76826 0.34418-0.76826 0.76826z" fill="url(#linearGradient12870)"/>
      </g>
      <g transform="matrix(1.9349 0 0 1.9349 -10.829 65.209)">
        <path d="m62.348 87.926c-0.01844-0.03918-0.09065-0.18285-0.09065-0.18285-0.12984-0.25967-0.39642-0.42485-0.68759-0.42485h-3.8413c-0.42408 0-0.76826 0.34342-0.76826 0.76827v3.073c0 0.42485 0.34418 0.76826 0.76826 0.76826h7.6826c0.42485 0 0.76826-0.34341 0.76826-0.76826v-1.5365c0-1.2707-1.0341-2.3048-2.3048-2.3048-0.59156 0-1.1186 0.2397-1.5265 0.6077z" fill-opacity=".6568"/>
        <path d="m61.57 87.316 0.76826 1.5365c0-0.84893 0.68836-1.5365 1.5365-1.5365 0.84893 0 1.5365 0.68759 1.5365 1.5365v1.5365h-7.6826v-3.073z" fill="url(#linearGradient12888)"/>
        <path d="m63.107 88.852c0 0.35648-0.24508 0.66609-0.59156 0.74829-0.05916 0.01306-0.11754 0.01997-0.1767 0.01997h2.3048v-0.76826c0-0.42408-0.34495-0.76826-0.76826-0.76826s-0.76826 0.34418-0.76826 0.76826zm-4.6096-0.76826v1.5365h3.8413c-0.28579 0-0.55468-0.16056-0.68682-0.42484 0 0-0.33343-0.66685-0.55622-1.1117h-2.5983z" fill="url(#linearGradient12890)"/>
      </g>
      <g transform="matrix(1.9349 0 0 1.9349 -10.922 64.956)">
        <path d="m66.18 90.392c-0.29117 0-0.55699 0.16517-0.68759 0.42485 0 0-0.07222 0.14443-0.09065 0.18284-0.40872-0.36799-0.93574-0.60769-1.5265-0.60769-1.2707 0-2.3048 1.0341-2.3048 2.3048v1.5365c0 0.42485 0.34418 0.76826 0.76826 0.76826h7.6826c0.42485 0 0.76826-0.34341 0.76826-0.76826v-3.073c0-0.42485-0.34341-0.76826-0.76826-0.76826h-3.8413z" fill-opacity=".6568"/>
        <path d="m66.18 90.389-0.76826 1.5365c0-0.84893-0.68836-1.5365-1.5365-1.5365-0.84893 0-1.5365 0.6876-1.5365 1.5365v1.5365h7.6826v-3.073z" fill="url(#linearGradient12892)"/>
        <path d="m66.654 91.157c-0.2228 0.44482-0.55622 1.1117-0.55622 1.1117-0.13214 0.26428-0.40026 0.42485-0.68682 0.42485h3.8405v-1.5365h-2.5975zm-3.5478 0.76826v0.76826h2.304c-0.05762 0-0.11678-0.0069-0.17593-0.01998-0.34649-0.0822-0.59156-0.39181-0.59156-0.74828 0-0.42408-0.34495-0.76826-0.76826-0.76826s-0.76826 0.34418-0.76826 0.76826z" fill="url(#linearGradient12894)"/>
      </g>
      <g transform="matrix(1.9349 0 0 1.9349 -10.829 65.209)">
        <path d="m62.348 93.926c-0.01844-0.03918-0.09065-0.18285-0.09065-0.18285-0.12984-0.25967-0.39642-0.42485-0.68759-0.42485h-3.8413c-0.42408 0-0.76826 0.34342-0.76826 0.76827v3.073c0 0.42485 0.34418 0.76826 0.76826 0.76826h7.6826c0.42485 0 0.76826-0.34341 0.76826-0.76826v-1.5365c0-1.2707-1.0341-2.3048-2.3048-2.3048-0.59156 0-1.1186 0.2397-1.5265 0.6077z" fill-opacity=".6568"/>
        <path d="m61.57 93.316 0.76826 1.5365c0-0.84893 0.68836-1.5365 1.5365-1.5365 0.84893 0 1.5365 0.68759 1.5365 1.5365v1.5365h-7.6826v-3.073z" fill="url(#linearGradient12896)"/>
        <path d="m63.107 94.852c0 0.35648-0.24508 0.66609-0.59156 0.74829-0.05916 0.01306-0.11754 0.01997-0.1767 0.01997h2.3048v-0.76826c0-0.42408-0.34495-0.76826-0.76826-0.76826s-0.76826 0.34418-0.76826 0.76826zm-4.6096-0.76826v1.5365h3.8413c-0.28579 0-0.55468-0.16056-0.68682-0.42484 0 0-0.33343-0.66685-0.55622-1.1117h-2.5983z" fill="url(#linearGradient12898)"/>
      </g>
      <g transform="matrix(1.9349 0 0 1.9349 -10.922 100.59)">
        <path d="m66.18 78.246c-0.29117 0-0.55699 0.16518-0.68759 0.42485 0 0-0.07222 0.14443-0.09065 0.18284-0.40872-0.36799-0.93574-0.60769-1.5265-0.60769-1.2707 0-2.3048 1.0341-2.3048 2.3048v1.5365c0 0.42484 0.34418 0.76826 0.76826 0.76826h7.6826c0.42485 0 0.76826-0.34342 0.76826-0.76826v-3.073c0-0.42485-0.34341-0.76826-0.76826-0.76826h-3.8413z" fill-opacity=".6568"/>
        <path d="m66.18 78.242-0.76826 1.5365c0-0.84893-0.68836-1.5365-1.5365-1.5365-0.84893 0-1.5365 0.68759-1.5365 1.5365v1.5365h7.6826v-3.073z" fill="url(#linearGradient12876)"/>
        <path d="m66.654 79.011c-0.2228 0.44482-0.55622 1.1117-0.55622 1.1117-0.13214 0.26428-0.40026 0.42485-0.68682 0.42485h3.8405v-1.5365h-2.5975zm-3.5478 0.76826v0.76826h2.304c-0.05762 0-0.11678-0.0069-0.17593-0.01997-0.34649-0.08221-0.59156-0.39182-0.59156-0.74829 0-0.42408-0.34495-0.76826-0.76826-0.76826s-0.76826 0.34418-0.76826 0.76826z" fill="url(#linearGradient12870)"/>
      </g>
      <g transform="matrix(1.9349 0 0 1.9349 -10.829 100.84)">
        <path d="m62.348 81.926c-0.01844-0.03918-0.09065-0.18285-0.09065-0.18285-0.12984-0.25967-0.39642-0.42485-0.68759-0.42485h-3.8413c-0.42408 0-0.76826 0.34342-0.76826 0.76827v3.073c0 0.42485 0.34418 0.76826 0.76826 0.76826h7.6826c0.42485 0 0.76826-0.34341 0.76826-0.76826v-1.5365c0-1.2707-1.0341-2.3048-2.3048-2.3048-0.59156 0-1.1186 0.2397-1.5265 0.6077z" fill-opacity=".6568"/>
        <path d="m61.57 81.316 0.76826 1.5365c0-0.84893 0.68836-1.5365 1.5365-1.5365 0.84893 0 1.5365 0.68759 1.5365 1.5365v1.5365h-7.6826v-3.073z" fill="url(#linearGradient12880)"/>
        <path d="m63.107 82.852c0 0.35648-0.24508 0.66609-0.59156 0.74829-0.05916 0.01306-0.11754 0.01997-0.1767 0.01997h2.3048v-0.76826c0-0.42408-0.34495-0.76826-0.76826-0.76826s-0.76826 0.34418-0.76826 0.76826zm-4.6096-0.76826v1.5365h3.8413c-0.28579 0-0.55468-0.16056-0.68682-0.42484 0 0-0.33343-0.66685-0.55622-1.1117h-2.5983z" fill="url(#linearGradient12866)"/>
      </g>
      <g transform="matrix(1.9349 0 0 1.9349 -10.922 100.59)">
        <path d="m66.18 84.392c-0.29117 0-0.55699 0.16517-0.68759 0.42485 0 0-0.07222 0.14443-0.09065 0.18284-0.40872-0.36799-0.93574-0.60769-1.5265-0.60769-1.2707 0-2.3048 1.0341-2.3048 2.3048v1.5365c0 0.42485 0.34418 0.76826 0.76826 0.76826h7.6826c0.42485 0 0.76826-0.34341 0.76826-0.76826v-3.073c0-0.42485-0.34341-0.76826-0.76826-0.76826h-3.8413z" fill-opacity=".6568"/>
        <path d="m66.18 84.389-0.76826 1.5365c0-0.84893-0.68836-1.5365-1.5365-1.5365-0.84893 0-1.5365 0.6876-1.5365 1.5365v1.5365h7.6826v-3.073z" fill="url(#linearGradient12884)"/>
        <path d="m66.654 85.157c-0.2228 0.44482-0.55622 1.1117-0.55622 1.1117-0.13214 0.26428-0.40026 0.42485-0.68682 0.42485h3.8405v-1.5365h-2.5975zm-3.5478 0.76826v0.76826h2.304c-0.05762 0-0.11678-0.0069-0.17593-0.01998-0.34649-0.0822-0.59156-0.39181-0.59156-0.74828 0-0.42408-0.34495-0.76826-0.76826-0.76826s-0.76826 0.34418-0.76826 0.76826z" fill="url(#linearGradient12870)"/>
      </g>
      <g transform="matrix(1.9349 0 0 1.9349 -10.829 100.84)">
        <path d="m62.348 87.926c-0.01844-0.03918-0.09065-0.18285-0.09065-0.18285-0.12984-0.25967-0.39642-0.42485-0.68759-0.42485h-3.8413c-0.42408 0-0.76826 0.34342-0.76826 0.76827v3.073c0 0.42485 0.34418 0.76826 0.76826 0.76826h7.6826c0.42485 0 0.76826-0.34341 0.76826-0.76826v-1.5365c0-1.2707-1.0341-2.3048-2.3048-2.3048-0.59156 0-1.1186 0.2397-1.5265 0.6077z" fill-opacity=".6568"/>
        <path d="m61.57 87.316 0.76826 1.5365c0-0.84893 0.68836-1.5365 1.5365-1.5365 0.84893 0 1.5365 0.68759 1.5365 1.5365v1.5365h-7.6826v-3.073z" fill="url(#linearGradient12888)"/>
        <path d="m63.107 88.852c0 0.35648-0.24508 0.66609-0.59156 0.74829-0.05916 0.01306-0.11754 0.01997-0.1767 0.01997h2.3048v-0.76826c0-0.42408-0.34495-0.76826-0.76826-0.76826s-0.76826 0.34418-0.76826 0.76826zm-4.6096-0.76826v1.5365h3.8413c-0.28579 0-0.55468-0.16056-0.68682-0.42484 0 0-0.33343-0.66685-0.55622-1.1117h-2.5983z" fill="url(#linearGradient12890)"/>
      </g>
      <g transform="matrix(1.9349 0 0 1.9349 -10.922 100.59)">
        <path d="m66.18 90.392c-0.29117 0-0.55699 0.16517-0.68759 0.42485 0 0-0.07222 0.14443-0.09065 0.18284-0.40872-0.36799-0.93574-0.60769-1.5265-0.60769-1.2707 0-2.3048 1.0341-2.3048 2.3048v1.5365c0 0.42485 0.34418 0.76826 0.76826 0.76826h7.6826c0.42485 0 0.76826-0.34341 0.76826-0.76826v-3.073c0-0.42485-0.34341-0.76826-0.76826-0.76826h-3.8413z" fill-opacity=".6568"/>
        <path d="m66.18 90.389-0.76826 1.5365c0-0.84893-0.68836-1.5365-1.5365-1.5365-0.84893 0-1.5365 0.6876-1.5365 1.5365v1.5365h7.6826v-3.073z" fill="url(#linearGradient12892)"/>
        <path d="m66.654 91.157c-0.2228 0.44482-0.55622 1.1117-0.55622 1.1117-0.13214 0.26428-0.40026 0.42485-0.68682 0.42485h3.8405v-1.5365h-2.5975zm-3.5478 0.76826v0.76826h2.304c-0.05762 0-0.11678-0.0069-0.17593-0.01998-0.34649-0.0822-0.59156-0.39181-0.59156-0.74828 0-0.42408-0.34495-0.76826-0.76826-0.76826s-0.76826 0.34418-0.76826 0.76826z" fill="url(#linearGradient12894)"/>
      </g>
      <g transform="matrix(1.9349 0 0 1.9349 -10.829 100.84)">
        <path d="m62.348 93.926c-0.01844-0.03918-0.09065-0.18285-0.09065-0.18285-0.12984-0.25967-0.39642-0.42485-0.68759-0.42485h-3.8413c-0.42408 0-0.76826 0.34342-0.76826 0.76827v3.073c0 0.42485 0.34418 0.76826 0.76826 0.76826h7.6826c0.42485 0 0.76826-0.34341 0.76826-0.76826v-1.5365c0-1.2707-1.0341-2.3048-2.3048-2.3048-0.59156 0-1.1186 0.2397-1.5265 0.6077z" fill-opacity=".6568"/>
        <path d="m61.57 93.316 0.76826 1.5365c0-0.84893 0.68836-1.5365 1.5365-1.5365 0.84893 0 1.5365 0.68759 1.5365 1.5365v1.5365h-7.6826v-3.073z" fill="url(#linearGradient12896)"/>
        <path d="m63.107 94.852c0 0.35648-0.24508 0.66609-0.59156 0.74829-0.05916 0.01306-0.11754 0.01997-0.1767 0.01997h2.3048v-0.76826c0-0.42408-0.34495-0.76826-0.76826-0.76826s-0.76826 0.34418-0.76826 0.76826zm-4.6096-0.76826v1.5365h3.8413c-0.28579 0-0.55468-0.16056-0.68682-0.42484 0 0-0.33343-0.66685-0.55622-1.1117h-2.5983z" fill="url(#linearGradient12898)"/>
      </g>
      <g transform="matrix(1.9349 0 0 1.9349 -10.922 135.9)">
        <path d="m66.18 78.246c-0.29117 0-0.55699 0.16518-0.68759 0.42485 0 0-0.07222 0.14443-0.09065 0.18284-0.40872-0.36799-0.93574-0.60769-1.5265-0.60769-1.2707 0-2.3048 1.0341-2.3048 2.3048v1.5365c0 0.42484 0.34418 0.76826 0.76826 0.76826h7.6826c0.42485 0 0.76826-0.34342 0.76826-0.76826v-3.073c0-0.42485-0.34341-0.76826-0.76826-0.76826h-3.8413z" fill-opacity=".6568"/>
        <path d="m66.18 78.242-0.76826 1.5365c0-0.84893-0.68836-1.5365-1.5365-1.5365-0.84893 0-1.5365 0.68759-1.5365 1.5365v1.5365h7.6826v-3.073z" fill="url(#linearGradient12876)"/>
        <path d="m66.654 79.011c-0.2228 0.44482-0.55622 1.1117-0.55622 1.1117-0.13214 0.26428-0.40026 0.42485-0.68682 0.42485h3.8405v-1.5365h-2.5975zm-3.5478 0.76826v0.76826h2.304c-0.05762 0-0.11678-0.0069-0.17593-0.01997-0.34649-0.08221-0.59156-0.39182-0.59156-0.74829 0-0.42408-0.34495-0.76826-0.76826-0.76826s-0.76826 0.34418-0.76826 0.76826z" fill="url(#linearGradient12870)"/>
      </g>
      <g transform="matrix(1.9349 0 0 1.9349 -10.829 136.16)">
        <path d="m62.348 81.926c-0.01844-0.03918-0.09065-0.18285-0.09065-0.18285-0.12984-0.25967-0.39642-0.42485-0.68759-0.42485h-3.8413c-0.42408 0-0.76826 0.34342-0.76826 0.76827v3.073c0 0.42485 0.34418 0.76826 0.76826 0.76826h7.6826c0.42485 0 0.76826-0.34341 0.76826-0.76826v-1.5365c0-1.2707-1.0341-2.3048-2.3048-2.3048-0.59156 0-1.1186 0.2397-1.5265 0.6077z" fill-opacity=".6568"/>
        <path d="m61.57 81.316 0.76826 1.5365c0-0.84893 0.68836-1.5365 1.5365-1.5365 0.84893 0 1.5365 0.68759 1.5365 1.5365v1.5365h-7.6826v-3.073z" fill="url(#linearGradient12880)"/>
        <path d="m63.107 82.852c0 0.35648-0.24508 0.66609-0.59156 0.74829-0.05916 0.01306-0.11754 0.01997-0.1767 0.01997h2.3048v-0.76826c0-0.42408-0.34495-0.76826-0.76826-0.76826s-0.76826 0.34418-0.76826 0.76826zm-4.6096-0.76826v1.5365h3.8413c-0.28579 0-0.55468-0.16056-0.68682-0.42484 0 0-0.33343-0.66685-0.55622-1.1117h-2.5983z" fill="url(#linearGradient12866)"/>
      </g>
      <g transform="matrix(1.9349 0 0 1.9349 -10.922 135.9)">
        <path d="m66.18 84.392c-0.29117 0-0.55699 0.16517-0.68759 0.42485 0 0-0.07222 0.14443-0.09065 0.18284-0.40872-0.36799-0.93574-0.60769-1.5265-0.60769-1.2707 0-2.3048 1.0341-2.3048 2.3048v1.5365c0 0.42485 0.34418 0.76826 0.76826 0.76826h7.6826c0.42485 0 0.76826-0.34341 0.76826-0.76826v-3.073c0-0.42485-0.34341-0.76826-0.76826-0.76826h-3.8413z" fill-opacity=".6568"/>
        <path d="m66.18 84.389-0.76826 1.5365c0-0.84893-0.68836-1.5365-1.5365-1.5365-0.84893 0-1.5365 0.6876-1.5365 1.5365v1.5365h7.6826v-3.073z" fill="url(#linearGradient12884)"/>
        <path d="m66.654 85.157c-0.2228 0.44482-0.55622 1.1117-0.55622 1.1117-0.13214 0.26428-0.40026 0.42485-0.68682 0.42485h3.8405v-1.5365h-2.5975zm-3.5478 0.76826v0.76826h2.304c-0.05762 0-0.11678-0.0069-0.17593-0.01998-0.34649-0.0822-0.59156-0.39181-0.59156-0.74828 0-0.42408-0.34495-0.76826-0.76826-0.76826s-0.76826 0.34418-0.76826 0.76826z" fill="url(#linearGradient12870)"/>
      </g>
      <g transform="matrix(1.9349 0 0 1.9349 -10.829 136.16)">
        <path d="m62.348 87.926c-0.01844-0.03918-0.09065-0.18285-0.09065-0.18285-0.12984-0.25967-0.39642-0.42485-0.68759-0.42485h-3.8413c-0.42408 0-0.76826 0.34342-0.76826 0.76827v3.073c0 0.42485 0.34418 0.76826 0.76826 0.76826h7.6826c0.42485 0 0.76826-0.34341 0.76826-0.76826v-1.5365c0-1.2707-1.0341-2.3048-2.3048-2.3048-0.59156 0-1.1186 0.2397-1.5265 0.6077z" fill-opacity=".6568"/>
        <path d="m61.57 87.316 0.76826 1.5365c0-0.84893 0.68836-1.5365 1.5365-1.5365 0.84893 0 1.5365 0.68759 1.5365 1.5365v1.5365h-7.6826v-3.073z" fill="url(#linearGradient12888)"/>
        <path d="m63.107 88.852c0 0.35648-0.24508 0.66609-0.59156 0.74829-0.05916 0.01306-0.11754 0.01997-0.1767 0.01997h2.3048v-0.76826c0-0.42408-0.34495-0.76826-0.76826-0.76826s-0.76826 0.34418-0.76826 0.76826zm-4.6096-0.76826v1.5365h3.8413c-0.28579 0-0.55468-0.16056-0.68682-0.42484 0 0-0.33343-0.66685-0.55622-1.1117h-2.5983z" fill="url(#linearGradient12890)"/>
      </g>
      <g transform="matrix(1.9349 0 0 1.9349 -10.922 135.9)">
        <path d="m66.18 90.392c-0.29117 0-0.55699 0.16517-0.68759 0.42485 0 0-0.07222 0.14443-0.09065 0.18284-0.40872-0.36799-0.93574-0.60769-1.5265-0.60769-1.2707 0-2.3048 1.0341-2.3048 2.3048v1.5365c0 0.42485 0.34418 0.76826 0.76826 0.76826h7.6826c0.42485 0 0.76826-0.34341 0.76826-0.76826v-3.073c0-0.42485-0.34341-0.76826-0.76826-0.76826h-3.8413z" fill-opacity=".6568"/>
        <path d="m66.18 90.389-0.76826 1.5365c0-0.84893-0.68836-1.5365-1.5365-1.5365-0.84893 0-1.5365 0.6876-1.5365 1.5365v1.5365h7.6826v-3.073z" fill="url(#linearGradient12892)"/>
        <path d="m66.654 91.157c-0.2228 0.44482-0.55622 1.1117-0.55622 1.1117-0.13214 0.26428-0.40026 0.42485-0.68682 0.42485h3.8405v-1.5365h-2.5975zm-3.5478 0.76826v0.76826h2.304c-0.05762 0-0.11678-0.0069-0.17593-0.01998-0.34649-0.0822-0.59156-0.39181-0.59156-0.74828 0-0.42408-0.34495-0.76826-0.76826-0.76826s-0.76826 0.34418-0.76826 0.76826z" fill="url(#linearGradient12894)"/>
      </g>
      <g transform="matrix(1.9349 0 0 1.9349 -10.829 136.16)">
        <path d="m62.348 93.926c-0.01844-0.03918-0.09065-0.18285-0.09065-0.18285-0.12984-0.25967-0.39642-0.42485-0.68759-0.42485h-3.8413c-0.42408 0-0.76826 0.34342-0.76826 0.76827v3.073c0 0.42485 0.34418 0.76826 0.76826 0.76826h7.6826c0.42485 0 0.76826-0.34341 0.76826-0.76826v-1.5365c0-1.2707-1.0341-2.3048-2.3048-2.3048-0.59156 0-1.1186 0.2397-1.5265 0.6077z" fill-opacity=".6568"/>
        <path d="m61.57 93.316 0.76826 1.5365c0-0.84893 0.68836-1.5365 1.5365-1.5365 0.84893 0 1.5365 0.68759 1.5365 1.5365v1.5365h-7.6826v-3.073z" fill="url(#linearGradient12896)"/>
        <path d="m63.107 94.852c0 0.35648-0.24508 0.66609-0.59156 0.74829-0.05916 0.01306-0.11754 0.01997-0.1767 0.01997h2.3048v-0.76826c0-0.42408-0.34495-0.76826-0.76826-0.76826s-0.76826 0.34418-0.76826 0.76826zm-4.6096-0.76826v1.5365h3.8413c-0.28579 0-0.55468-0.16056-0.68682-0.42484 0 0-0.33343-0.66685-0.55622-1.1117h-2.5983z" fill="url(#linearGradient12898)"/>
      </g>
    </g>
    <g transform="matrix(1.1072 0 0 1.1072 -13.512 -8.1777)">
      <g fill-opacity=".2" stroke="#000" stroke-opacity=".2">
        <path d="m108.81 75.347c-2.101 0-3.8095 1.4499-3.8095 3.2327v35.56c0 1.7828 1.7086 3.2327 3.8095 3.2327h15.238c2.1009 0 3.8095-1.4499 3.8095-3.2327v-35.56c0-1.7828-1.7086-3.2327-3.8095-3.2327zm3.8095 6.4654h7.6191v11.314h-7.6191zm7.6191 25.862v1.6164h-7.6191v-1.6164h7.6191zm-17.107-34.672c-0.0343 0.58674 0.31238 1.1444 0.90095 1.4531 2.9029 1.5242 4.7772 5.0446 4.7772 8.974 0 0.89384 0.85333 1.6163 1.9048 1.6163h11.429c1.0533 0 1.9048-0.72251 1.9048-1.6163 0-3.9293 1.8743-7.4498 4.779-8.974 0.59047-0.30872 0.93333-0.86636 0.90096-1.4531-0.3962-6.8436-6.2362-12.202-13.299-12.202s-12.903 5.3582-13.297 12.202z" stroke-width="9.0314"/>
        <path transform="matrix(1.1034 0 0 1.1034 -5.2692 -3.5424)" d="m101.35 69.45c-1.9041 0-3.4525 1.314-3.4525 2.9298v32.227c0 1.6158 1.5485 2.9298 3.4525 2.9298h13.81c1.9041 0 3.4525-1.314 3.4525-2.9298v-32.227c0-1.6158-1.5485-2.9298-3.4525-2.9298zm3.4525 5.8595h6.9051v10.254h-6.9051zm6.9051 23.438v1.4649h-6.9051v-1.4649h6.9051zm-15.504-31.423c-0.03108 0.53175 0.28311 1.0371 0.81652 1.3169 2.6308 1.3814 4.3295 4.5719 4.3295 8.133 0 0.81008 0.77337 1.4649 1.7263 1.4649h10.358c0.95463 0 1.7263-0.6548 1.7263-1.4649 0-3.5611 1.6986-6.7516 4.3312-8.133 0.53514-0.27979 0.84587-0.78517 0.81653-1.3169-0.35907-6.2023-5.6518-11.058-12.053-11.058s-11.694 4.8561-12.051 11.058z" stroke-width="8.1851"/>
        <path transform="matrix(1.1034 0 0 1.1034 -5.2692 -3.5424)" d="m101.35 69.45c-1.9041 0-3.4525 1.314-3.4525 2.9298v32.227c0 1.6158 1.5485 2.9298 3.4525 2.9298h13.81c1.9041 0 3.4525-1.314 3.4525-2.9298v-32.227c0-1.6158-1.5485-2.9298-3.4525-2.9298zm3.4525 5.8595h6.9051v10.254h-6.9051zm6.9051 23.438v1.4649h-6.9051v-1.4649h6.9051zm-15.504-31.423c-0.03108 0.53175 0.28311 1.0371 0.81652 1.3169 2.6308 1.3814 4.3295 4.5719 4.3295 8.133 0 0.81008 0.77337 1.4649 1.7263 1.4649h10.358c0.95463 0 1.7263-0.6548 1.7263-1.4649 0-3.5611 1.6986-6.7516 4.3312-8.133 0.53514-0.27979 0.84587-0.78517 0.81653-1.3169-0.35907-6.2023-5.6518-11.058-12.053-11.058s-11.694 4.8561-12.051 11.058z" stroke-width="4.0925"/>
      </g>
      <path transform="matrix(1.1034 0 0 1.1034 -5.2692 -3.5424)" d="m94.444 68.718c-0.06042 1.0664 0.56621 2.0743 1.633 2.6353 2.1009 1.1016 3.5112 3.8702 3.5112 6.8864 0 1.6158 1.5485 2.9298 3.4525 2.9298h10.358c1.9058 0 3.4525-1.314 3.4525-2.9298 0-3.0176 1.4121-5.7848 3.513-6.8864 1.0686-0.56105 1.6917-1.5689 1.6313-2.6339-0.4005-6.9845-6.4511-12.453-13.774-12.453s-13.373 5.4684-13.777 12.451z" fill="url(#linearGradient13183)"/>
      <path transform="matrix(1.1034 0 0 1.1034 -5.2692 -3.5424)" d="m96.2 67.325c-0.03108 0.53175 0.28311 1.0371 0.81652 1.3169 2.6308 1.3814 4.3295 4.5719 4.3295 8.133 0 0.81008 0.77337 1.4649 1.7263 1.4649h10.358c0.95463 0 1.7263-0.6548 1.7263-1.4649 0-3.5611 1.6986-6.7516 4.3312-8.133 0.53514-0.27979 0.84587-0.78517 0.81653-1.3169-0.35907-6.2023-5.6518-11.058-12.053-11.058s-11.694 4.8561-12.051 11.058z" fill="url(#linearGradient13180)"/>
      <path transform="matrix(2.4793 0 0 2.1039 -44.191 -3.0611)" d="m68.054 36.195c0.13445-0.11217 0.27196-0.21972 0.4164-0.30884-0.02074-0.42485-0.08835-0.83433-0.18899-1.2277h-8.8143c-0.09987 0.39335-0.16825 0.80283-0.18899 1.2277 0.14443 0.08912 0.28195 0.19668 0.4164 0.30884z" fill="url(#linearGradient13076)"/>
      <path transform="matrix(1.1034 0 0 1.1034 -5.2692 -3.5424)" d="m101.35 69.45c-1.9041 0-3.4525 1.314-3.4525 2.9298v32.227c0 1.6158 1.5485 2.9298 3.4525 2.9298h13.81c1.9041 0 3.4525-1.314 3.4525-2.9298v-32.227c0-1.6158-1.5485-2.9298-3.4525-2.9298zm3.4525 5.8595h6.9051v10.254h-6.9051zm6.9051 23.438v1.4649h-6.9051v-1.4649h6.9051z" fill="url(#linearGradient13176)"/>
      <path transform="matrix(1.1034 0 0 1.1034 -5.2692 -3.5424)" d="m115.16 69.45h-13.81c-0.95289 0-1.7263 0.6548-1.7263 1.4649v32.227c0 0.81008 0.77337 1.4649 1.7263 1.4649h13.81c0.95462 0 1.7263-0.6548 1.7263-1.4649v-32.227c0-0.81008-0.77164-1.4649-1.7263-1.4649zm-1.7263 31.129c0 0.60646-0.58002 1.0987-1.2947 1.0987h-7.7682c-0.71467 0-1.2947-0.4922-1.2947-1.0987v-2.1973c0-0.60646 0.58003-1.0987 1.2947-1.0987h7.7682c0.71468 0 1.2947 0.4922 1.2947 1.0987zm0-15.015c0 0.81008-0.77164 1.4649-1.7263 1.4649h-6.9051c-0.9529 0-1.7263-0.6548-1.7263-1.4649v-11.719c0-0.81008 0.77337-1.4649 1.7263-1.4649h6.9051c0.95462 0 1.7263 0.6548 1.7263 1.4649z" fill="url(#linearGradient13173)"/>
      <path transform="matrix(1.1034 0 0 1.1034 -5.2692 -3.5424)" d="m111.7 75.31c0 0.81008-0.77164 1.4649-1.7263 1.4649h-3.4525c-0.9529 0-1.7263-0.6548-1.7263-1.4649v-14.649c0-0.81008 0.77337-1.4649 1.7263-1.4649h3.4525c0.95463 0 1.7263 0.6548 1.7263 1.4649z" fill="url(#linearGradient13170)"/>
      <rect transform="matrix(1.1034 0 0 1.1034 -5.2692 -3.5424)" x="106.52" y="60.661" width="3.4525" height="14.649" fill="url(#linearGradient13167)"/>
    </g>
  </g>
</svg>
