<?xml version="1.0" encoding="UTF-8"?>
<svg width="32" height="32" version="1.0" viewBox=".5 25.1 32 32" xmlns="http://www.w3.org/2000/svg" xmlns:xlink="http://www.w3.org/1999/xlink">
  <defs>
    <linearGradient id="linearGradient3251">
      <stop offset="0"/>
      <stop stop-opacity="0" offset="1"/>
    </linearGradient>
    <linearGradient id="linearGradient3405" x1="80.5" x2="229.87" y1="506" y2="357.6" gradientTransform="matrix(.62919 0 0 .62919 -.48738 11.006)" gradientUnits="userSpaceOnUse">
      <stop stop-opacity=".23529" offset="0"/>
      <stop stop-color="#969696" stop-opacity="0" offset="1"/>
    </linearGradient>
    <linearGradient id="linearGradient3597" x1="368.37" x2="389.52" y1="115.67" y2="95.825" gradientTransform="matrix(.62919 0 0 .62919 -.31794 10.836)" gradientUnits="userSpaceOnUse">
      <stop stop-color="#fff" offset="0"/>
      <stop stop-color="#969696" offset="1"/>
    </linearGradient>
    <linearGradient id="linearGradient3257" x1="348.04" x2="394.2" y1="139.48" y2="83.419" gradientTransform="matrix(.62919 0 0 .62919 -.31794 10.836)" gradientUnits="userSpaceOnUse" xlink:href="#linearGradient3251"/>
    <linearGradient id="linearGradient1159" x1="272.25" x2="201.71" y1="72.13" y2="122.51" gradientUnits="userSpaceOnUse" xlink:href="#linearGradient3251"/>
    <linearGradient id="linearGradient2318" x1="187.52" x2="197.01" y1="82.686" y2="82.686" gradientTransform="matrix(.25437 0 0 1.2295 162.94 162.29)" gradientUnits="userSpaceOnUse" xlink:href="#linearGradient2310"/>
    <linearGradient id="linearGradient2310">
      <stop stop-color="#6f6234" offset="0"/>
      <stop stop-color="#7f7655" offset=".5"/>
      <stop stop-color="#2d2711" offset="1"/>
    </linearGradient>
    <linearGradient id="linearGradient2296" x1="52.202" x2="80.842" y1="222.94" y2="139.84" gradientTransform="matrix(.65515 0 0 .47735 162.94 162.29)" gradientUnits="userSpaceOnUse" xlink:href="#linearGradient2288"/>
    <linearGradient id="linearGradient2288">
      <stop stop-color="#ede1b9" offset="0"/>
      <stop stop-color="#7a7152" offset=".5"/>
      <stop stop-color="#927f39" offset="1"/>
    </linearGradient>
    <linearGradient id="linearGradient2293" x1="167.39" x2="423.51" y1="44.529" y2="288.54" gradientTransform="matrix(.48918 0 0 .63931 162.94 162.29)" gradientUnits="userSpaceOnUse" xlink:href="#linearGradient2288"/>
    <linearGradient id="linearGradient2306" x1="281.13" x2="139" y1="52.916" y2="167.97" gradientTransform="matrix(.48918 0 0 .63931 162.94 162.29)" gradientUnits="userSpaceOnUse" xlink:href="#linearGradient2288"/>
    <linearGradient id="linearGradient2287" x1="106.91" x2="291.1" y1="137.89" y2="-13.32" gradientTransform="matrix(.48867 0 0 .63997 162.94 162.29)" gradientUnits="userSpaceOnUse" xlink:href="#linearGradient2288"/>
    <radialGradient id="radialGradient3175" cx="198.31" cy="109.06" r="63.508" fx="143.62" fy="122.04" gradientTransform="matrix(.51681 0 0 .60512 162.94 162.29)" gradientUnits="userSpaceOnUse" xlink:href="#linearGradient2283"/>
    <linearGradient id="linearGradient2283">
      <stop stop-color="#1d1100" stop-opacity=".66667" offset="0"/>
      <stop stop-color="#4f340c" stop-opacity=".30196" offset=".52659"/>
      <stop stop-color="#3d3001" stop-opacity="0" offset="1"/>
    </linearGradient>
    <linearGradient id="linearGradient2305" x1="182.67" x2="226.58" y1="74.241" y2="192.07" gradientTransform="matrix(.52411 0 0 .5967 162.94 162.29)" gradientUnits="userSpaceOnUse" xlink:href="#linearGradient2300"/>
    <linearGradient id="linearGradient2300">
      <stop stop-color="#fff" stop-opacity="0" offset="0"/>
      <stop stop-color="#fff" stop-opacity=".020833" offset=".4962"/>
      <stop stop-color="#fff" stop-opacity=".53125" offset="1"/>
    </linearGradient>
    <linearGradient id="linearGradient2316" x1="23.702" x2="24.908" y1="838.79" y2="894.39" gradientTransform="matrix(2.4072 0 0 .12991 162.94 162.29)" gradientUnits="userSpaceOnUse" xlink:href="#linearGradient2310"/>
    <linearGradient id="linearGradient2309" x1="90.82" x2="66.363" y1="378.08" y2="257.43" gradientTransform="matrix(.68267 0 0 .45811 162.94 162.29)" gradientUnits="userSpaceOnUse" xlink:href="#linearGradient2310"/>
    <linearGradient id="linearGradient2297" x1="66.332" x2="45.224" y1="210.4" y2="233.76" gradientTransform="matrix(.50192 0 0 .62308 162.94 162.29)" gradientUnits="userSpaceOnUse" xlink:href="#linearGradient2300"/>
    <linearGradient id="linearGradient2341" x1="39.019" x2="82.8" y1="273.28" y2="253.12" gradientTransform="matrix(.58792 0 0 .53193 162.94 162.29)" gradientUnits="userSpaceOnUse" xlink:href="#linearGradient2283"/>
    <linearGradient id="linearGradient2460" x1="24.214" x2="23.556" y1="116.1" y2="104.7" gradientTransform="matrix(1.3401 0 0 .7462 158.13 171.73)" gradientUnits="userSpaceOnUse" xlink:href="#linearGradient2310"/>
    <radialGradient id="radialGradient2286" cx="104.16" cy="56.434" r="20.573" fx="86.443" fy="60.641" gradientTransform="matrix(.92415 0 0 1.0821 158.13 171.73)" gradientUnits="userSpaceOnUse" xlink:href="#linearGradient2283"/>
    <linearGradient id="linearGradient2598" x1="37.51" x2="65.397" y1="233.71" y2="234.01" gradientTransform="matrix(1.6428 0 0 .6087 158.13 171.73)" gradientUnits="userSpaceOnUse" xlink:href="#linearGradient2300"/>
  </defs>
  <g transform="matrix(.096275 0 0 .098511 .97778 22.948)" stroke="#000" stroke-linejoin="bevel" stroke-opacity=".2">
    <path d="m52.166 42.151-0.2513 294.52h230.91s0.47764-152.39 0.42481-198.46c-0.0136-11.876-0.16044-18.115-7.3719-25.894-33.24-35.855-53.348-51.87-66.597-64.319-3.7183-3.4936-5.3777-6.5829-18.354-6.7084-18.227-0.17632-76.872 0.7385-138.76 0.85601z" fill="none" stroke-width="10.268" style="paint-order:stroke fill markers"/>
    <path transform="matrix(.60095 0 0 .6099 7.4053 12.545)" d="m65.84 40.221-0.41817 482.9h384.23s0.79481-249.85 0.7069-325.39c-0.0227-19.473-0.26699-29.701-12.267-42.456-55.312-58.789-88.772-85.046-110.82-105.46-6.1873-5.7281-8.9486-10.793-30.542-10.999-30.33-0.2891-127.92 1.2109-230.89 1.4035z" fill-opacity=".2" fill-rule="evenodd" stroke-width="8.4806" style="paint-order:stroke fill markers"/>
    <path d="m46.972 37.075-0.2513 294.52h230.91s0.47764-152.39 0.42482-198.46c-0.0136-11.876-0.16045-18.115-7.3719-25.894-33.24-35.855-53.348-51.87-66.597-64.319-3.7183-3.4936-5.3776-6.5829-18.354-6.7084-18.227-0.17632-76.872 0.7385-138.76 0.85601z" fill-opacity=".2" fill-rule="evenodd" stroke-linecap="round" stroke-width="10.268" style="paint-order:stroke fill markers"/>
  </g>
  <g transform="matrix(.099246 0 0 .099246 .48056 22.941)">
    <path d="m50.332 35.437v293.77h223.99s0.28117-152.22 0.23056-197.42c-0.013-11.651-1.951-20.747-9.2223-28.037-35.777-35.866-43.504-43.408-56.203-55.62-3.5637-3.4272-9.7188-12.106-20.772-12.691-17.47-0.03146-78.713-0.11528-138.02 0z" fill="#d7e3f4" fill-rule="evenodd" stroke="#000" stroke-width=".25168"/>
    <rect x="50.332" y="122.51" width="166.5" height="206.7" fill="url(#linearGradient3405)" stroke-width="0"/>
    <path d="m206.75 117.47c30.228-5.038 47.843-7.2551 61.724-3.5024 6.1724 1.6687 6.176 1.8328 6.0767 17.816-0.50827-13.887-1.951-20.747-9.2223-28.037-35.777-35.866-43.504-43.408-56.203-55.62-10.25-11.036-15.246-12.399-20.772-12.691 16.953 1.3218 18.397 31.655 18.397 82.034z" fill="url(#linearGradient1159)" fill-rule="evenodd"/>
    <path d="m217.21 99.685c14.99 0.595 39.584 4.6336 48.866 11.08 3.9278 2.7277 8.5792 5.0371 8.4799 21.02-0.50827-13.887-1.951-20.747-9.2223-28.037-35.777-35.866-43.504-43.408-56.203-55.62-10.25-11.036-15.246-12.399-20.772-12.691 16.953 1.3218 25.129 17.979 28.851 64.248z" fill="url(#linearGradient3597)" fill-rule="evenodd" stroke="url(#linearGradient3257)" stroke-width=".25168"/>
  </g>
  <g transform="matrix(.1 0 0 .1 .60746 22.436)" fill-rule="evenodd">
    <g>
      <path transform="matrix(.69473 0 0 .69473 -102.58 -110.65)" d="m486.25 355.75c-25.791 4.5641-46.2 26.801-51.355 52.075-4.1099 15.183-4.1824 31.291-0.87345 46.638 0.56422 11.208-11.541 16.029-17.141 24.032-6.9376 7.2259-10.513 17.44-8.2238 27.349-1.1844 6.2553-8.6309 2.9282-12.985 3.7625-4.166-0.99344-11.126 2.5639-12.546-2.9187-3.1545-5.7555-11.486-6.0041-15.178-0.69331-6.103 7.4699-0.87063 20.216 8.8607 21.036 5.1968-0.0401 7.9758 2.7532 1.0674 2.7512-4.7592-1.5506-12.666 1.9578-10.053 7.792 5.1322 8.5604 6.9762 18.657 5.5156 28.55-0.48336 5.1405 1.1148 11.925-5.1521 14.029-6.6162 3.633-11.301 11.4-8.607 18.991 3.862 8.002 6.2897 19.334 15.859 22.326 44.219-0.23827 88.437-0.48701 132.66-0.71875 3.2002-11.493-5.9271-21.63-15.312-26.781-5.5413-7.6749-1.9073-17.676-3.0742-26.412-0.14908-7.5825 0.53149-15.387 3.8554-22.307 13.937 6.7451 30.09 10.234 45.243 5.6688 17.035-4.2629 30.952-17.291 37.835-33.287 13.893-28.999 10.462-63.564-1.3404-92.652-11.861-28.207-32.857-54.432-61.956-65.792-8.6978-3.2169-17.894-3.8359-27.094-3.4375zm-52.812 143.25c5.2534 1.464 11.676-1.0299 16.221 2.0288 7.0791 11.58 15.452 22.47 25.841 31.284-4.6772 0.28735-6.7282-3.073-8.5778-6.5656-7.9018-6.1922-18.928-3.4583-28.254-3.8471-3.2188-0.58742-11.155-0.24401-8.3454-5.3556 1.4974-5.6245-0.89409-12.673 1.8644-17.513 0.41691 9e-3 0.83319-0.0323 1.25-0.0313z" fill-opacity=".2"/>
      <path transform="matrix(.69473 0 0 .69473 -102.58 -110.65)" d="m486.47 358.16c-23.654 3.7391-42.221 23.572-48.405 46.126-4.0161 14.573-6.2642 30.134-2.1953 44.964 1.5578 7.0502 0.79241 15.587-5.9763 19.634-9.1975 8.3542-20.993 18.052-19.399 31.94 1.0345 4.2287 1.4018 11.822-4.9898 11.198-7.3791 0.31931-14.935 0.14259-22.229 0.0575-2.525-1.6677-1.7825-7.0072-6.0363-7.2827-7.542-2.4123-12.233 8.6885-8.0312 14.257 3.5168 7.4426 13.247 6.0007 19.356 6.8255-5.0864 0.57482-2.712 7.0753-6.0938 6.1875-4.2217 0.9405-11.342-2.3854-13.031 3.25 3.5548 7.7029 8.7424 15.69 6.5891 24.534-0.25885 6.2701-0.51771 12.54-0.77657 18.81-7.1465 3.4506-16.688 10.015-13.601 19.21 3.8193 7.2187 5.2486 16.974 12.976 21.165 43.76-0.2382 87.521-0.48743 131.28-0.71875 2.3535-10.355-6.856-18.023-14.844-22.562-6.5638-5.6099-2.5709-15.022-3.7568-22.409-0.14178-10.086-0.99123-20.981 4.3818-29.997-4.085-5.2344-2.6932-3.69 1.9688-0.84375 13.486 7.1627 29.463 10.717 44.421 6.2972 16.224-4.1317 29.8-16.228 36.21-31.652 12.915-25.428 10.912-55.829 2.3148-82.297-10.037-30.263-30.807-58.294-60.116-72.052-9.3382-4.2446-19.87-5.1882-30.017-4.6402zm-36.25 139.16c8.6235 15.357 20.056 29.263 34.406 39.594-5.6485-2.3374-12.445-1.8211-17.844-4.3438 0.33256-3.9154-1.785-7.492-6.0504-7.3888-9.5532-2.8776-19.829 0.76194-29.399-1.5379-4.3648-2.3684-6.1339-1.9884-3.3317-6.7608 1.5753-6.6441-0.76122-13.608 1.0625-20.219 7.0521 0.21875 14.104 0.4375 21.156 0.65625z" fill-opacity=".2"/>
      <path transform="matrix(.69473 0 0 .69473 -102.58 -110.65)" d="m486.44 360.66c-24.626 3.397-42.744 25.744-47.512 49.165-1.2215 9.8921-5.1699 19.836-2.3167 29.827 1.0345 9.357 5.9891 20.929-1.9209 28.57-8.7387 7.8139-20.323 15.149-21.886 27.811-1.468 5.9072 3.8165 13.45-2.4149 17.706-4.4861 2.9709-10.104-0.14422-15.138 0.88112-5.5636 0.33689-11.206 0.62846-16.655-0.77351 2.6322-3.577-1.7743-9.8751-5.6542-6.2338-6.5232 4.291-1.8158 15.206 5.5564 14.929 10.637 2.0061 21.848 0.0225 32.348 2.4684 0.34455 2.8937-6.7368 1.709-9.3129 1.493-5.5006-0.34564-11.464 8e-3 -15.594 4.1562 1.3926 2.6116 11.397 4.3998 4.3367 3.7945-6.1852 0.0729-12.37 0.19179-18.555 0.23677 2.0283 6.976 8.8716 12.631 6.8378 20.408-0.35217 8.3743-0.70437 16.748-1.0566 25.123-6.0958 3.4151-15.633 7.2655-14.031 15.938 3.7825 6.6726 4.6235 15.771 11.062 20.5 42.979-0.23806 85.958-0.48829 128.94-0.71875 1.496-9.9728-8.8419-14.766-15.736-19.254-5.3883-5.5521-1.8334-13.99-2.959-20.875 0.0265-10.757-2.054-22.585 4.0071-32.216-3.5739-7.4808-13.468-4.6434-19.83-7.6811-2.513-0.82546-8.0749-1.3876-8.7949-1.6627 2.9408-0.84843 7.284-2.8557 3.0625-5.5938-6.2-4.1485-14.109-0.95952-21.04-1.9688-4.2596-0.59166-11.064 1.1921-13.71-0.90625-1.2188-4.8946-6.1795 0.34107-8.5312 0.71875-1.2545-4.3066 5.5931-5.4709 5.5636-9.9172 2.1428-7.2886-1.8637-15.39 1.6864-22.395 8.0926-0.0484 16.176 0.20236 24.25 0.75 13.079 23.827 33.606 45.961 60.93 52.371 19.925 4.3248 42.428-3.2871 53.806-20.617 16.975-23.307 17.793-54.613 10.909-81.697-7.9902-31.725-27.567-61.506-56.472-77.66-10.449-5.9459-22.265-7.9225-34.173-6.6776zm-65 173.66c-1.7924 0.78027-1.5923-0.71794 0 0z" fill-opacity=".12"/>
      <path transform="matrix(.69473 0 0 .69473 -102.58 -110.65)" d="m492.32 361.86c-31.528 0.35036-52.242 31.14-53.67 60.24-6.7758 15.799 11.31 38.089-4.2559 48.443-9.5073 8.3168-22.807 17.112-19.879 31.631 2.6095 9.401-2.1144 16.63-12.282 14.025-8.5542-0.64335-17.893 1.9973-25.873-1.1429 5.5748-10.429-7.1849-8.3322-4.6443 1.2878 4.8956 8.3314 16.434 4.0175 24.568 5.7935 5.8136 0.59134 23.916-0.97983 14.96 6.1602-7.2056 1.2301-17.27-2.6618-22.454 2.3438 5.2648 4.978 15.372 1.1311 22.653 2.3438 6.1329 4.8481-11.742 2.3549-16.891 3.0393-5.7674 0.43608-17.856-0.60745-19.82 0.71888-3.5738-1.6992 5.1644 6.6794 5.6774 12.66-0.4457 10.6-0.89141 21.2-1.3371 31.8-5.6591 4.1325-15.259 5.5776-14.031 14.406 3.4138 6.0883 4.8456 15.195 9.4759 19.431 42.425-0.24766 84.849-0.49535 127.27-0.74303 0.73475-9.8946-10.829-12.018-16.838-17.651-3.5362-5.548-0.7664-14.48-1.8521-21.343 0.2639-10.769-2.4717-22.121 3.8222-31.719-0.46677-4.743-13.311-3.5742-18.618-6.0554-12.903-3.7806-26.464-1.2278-39.701-1.7947-0.52548-6.1227 13.179-1.135 18.427-2.75 5.3037 0.9739 24.212-0.14749 12.246-4.6875h-32.548c1.6648-11.095-9.3322 10.306-8.9062-5.4375 13.261-4.9104 1.7472-21.355 8.3127-30.262 8.6354-0.7874 17.563 0.67114 26.312 0.76247 15.428 30.013 47.242 60.244 83.656 52.279 34.977-8.6558 46.816-49.735 42.868-81.659-4.1153-39.966-27.37-80.469-64.456-98.035-7.0083-2.8724-14.607-4.3988-22.192-4.0848zm-74.406 171.12c13.828-2.2207-0.20583 8.4337 0 0z" fill-opacity=".12"/>
    </g>
    <g>
      <rect transform="matrix(1.2423 0 0 1.2423 -75.875 -80.31)" x="210.64" y="263.95" width="2.4151" height="11.673" rx=".75112" ry="58.366" fill="url(#linearGradient2318)" stroke-width="1pt"/>
      <path transform="matrix(1.2423 0 0 1.2423 -75.875 -80.31)" d="m187.99 256.98-0.85388 3.4155c-0.40969 1.6388 1.444 3.8972 3.1309 3.9848l21.916 1.1385c2.078 0.10794 4.6118-2.1894 4.554-4.2694l-0.28463-10.247c-0.0322-1.1577 0.83573-2.9041 1.9924-2.8463l17.078 0.85388-6.5464-18.785-13.377 11.67c-2.4308 2.1205-4.6548 5.3146-4.554 8.5388l0.28463 9.108c0.0273 0.87429-0.83316 1.9783-1.7078 1.9924l-17.647 0.28463c-0.89494 0.0144-2.5601-0.57402-2.277-1.4231l1.1385-3.4155z" fill="url(#linearGradient2296)" stroke-linecap="round" stroke-linejoin="round" stroke-width="2.25"/>
      <path transform="matrix(1.2423 0 0 1.2423 -75.875 -80.31)" d="m246.05 177c23.339-8.349 43.833 15.37 52.371 35.863 8.5388 21.062 7.4003 52.561-13.662 63.187-22.201 10.626-46.679-10.247-55.787-34.724-9.1081-23.909-5.6925-56.546 17.078-64.326z" fill="url(#linearGradient2293)" stroke="url(#linearGradient2306)" stroke-width=".55923pt"/>
      <path transform="matrix(1.2423 0 0 1.2423 -75.875 -80.31)" d="m247.67 183.26c21.047-7.5289 39.527 13.86 47.227 32.34 7.7 18.993 6.6733 47.398-12.32 56.98-20.02 9.5822-42.093-9.24-50.307-31.313-8.2133-21.56-5.1333-50.991 15.4-58.007z" fill="url(#linearGradient2287)" stroke-width=".90177pt"/>
      <g stroke-width="1pt">
        <path transform="matrix(1.2423 0 0 1.2423 -75.875 -80.31)" d="m240.72 195.31c-9.3207 6.8865-12.368 27.979-3.9641 50.803 8.3631 22.495 39.708 22.734 48.14 15.626 8.4735-6.7804 21.134-24.413 3.1938-52.372-17.858-27.303-37.767-20.978-47.37-14.057z" fill="url(#radialGradient3175)"/>
        <path transform="matrix(1.2423 0 0 1.2423 -75.875 -80.31)" d="m281.57 255.13c13.312-17.333-4.8263-55.707 6.5785-38.935 10.6 16.772 8.896 43.908-2.3747 52.897-13.686 12.21-33.678-6.5745-42.667-16.101-8.9897-9.5264 25.152 18.903 38.464 2.1389z" fill="url(#linearGradient2305)"/>
        <path transform="matrix(1.2423 0 0 1.2423 -75.875 -80.31)" d="m188.3 272.81 5.6353 2.8177 57.762 0.20126-15.698-3.4214z" fill="url(#linearGradient2316)"/>
        <path transform="matrix(1.2423 0 0 1.2423 -75.875 -80.31)" d="m193.54 275.02 21.938 0.40252 1.8114-9.8618 2.4151 9.6606 32.403 0.60379-2.8177 6.6416 0.40252 23.548 9.6606 6.6416 0.60378 3.824-71.85 0.40253-4.629-10.868 0.60379-3.824 7.2454-4.2265 0.80505-19.12-4.2265-6.0378z" fill="url(#linearGradient2309)"/>
        <path transform="matrix(1.2423 0 0 1.2423 -75.875 -80.31)" d="m196.55 304.61-6.8429 8.2517-4.8303-9.8618 6.8429-4.629z" fill="url(#linearGradient2297)"/>
      </g>
    </g>
    <rect transform="matrix(1.2423 0 0 1.2423 -75.875 -80.31)" x="196.76" y="268.38" width="42.064" height="2.6164" rx="13.082" ry="13.082" stroke-width="1pt"/>
    <g stroke-width="1pt">
      <path transform="matrix(1.2423 0 0 1.2423 -75.875 -80.31)" d="m221.01 282.31-21.632 0.56925v21.632l-6.2618 10.247 35.863-0.56925z" fill="url(#linearGradient2341)"/>
      <path transform="matrix(1.2423 0 0 1.2423 -75.875 -80.31)" d="m195.54 252.72c0 1.5194-2.8461 4.9547-5.7258 4.9547s-4.7079-3.4353-4.7079-4.9547 1.8282-0.55053 4.7079-0.55053 5.7258-0.96892 5.7258 0.55053z" fill="url(#linearGradient2460)"/>
      <path transform="matrix(1.2423 0 0 1.2423 -75.875 -80.31)" d="m240.08 213.69c-5.3992 3.9891-7.1645 16.207-2.2963 29.428 4.8445 13.031 23.001 13.169 27.886 9.0516 4.9084-3.9276 12.242-14.142 1.8501-30.337-10.344-15.816-21.877-12.152-27.44-8.1426z" fill="url(#radialGradient2286)"/>
      <path transform="matrix(1.2423 0 0 1.2423 -75.875 -80.31)" d="m257.66 315.25-24.521-0.58712-1.2947-8.9779 13.914 0.67429z" fill="url(#linearGradient2598)"/>
    </g>
  </g>
</svg>
