<?xml version="1.0" encoding="UTF-8" standalone="no"?>
<!-- Created with Inkscape (http://www.inkscape.org/) -->

<svg
   xmlns:dc="http://purl.org/dc/elements/1.1/"
   xmlns:cc="http://creativecommons.org/ns#"
   xmlns:rdf="http://www.w3.org/1999/02/22-rdf-syntax-ns#"
   xmlns:svg="http://www.w3.org/2000/svg"
   xmlns="http://www.w3.org/2000/svg"
   xmlns:xlink="http://www.w3.org/1999/xlink"
   version="1.1"
   width="320"
   height="320"
   id="svg2276">
  <defs
     id="defs2278">
    <linearGradient
       id="linearGradient2310">
      <stop
         id="stop2311"
         style="stop-color:#6f6234;stop-opacity:1"
         offset="0" />
      <stop
         id="stop2312"
         style="stop-color:#7f7655;stop-opacity:1"
         offset="0.5" />
      <stop
         id="stop2313"
         style="stop-color:#2d2711;stop-opacity:1"
         offset="1" />
    </linearGradient>
    <linearGradient
       id="linearGradient2300">
      <stop
         id="stop2301"
         style="stop-color:#ffffff;stop-opacity:0"
         offset="0" />
      <stop
         id="stop2302"
         style="stop-color:#ffffff;stop-opacity:0.02083333"
         offset="0.49620155" />
      <stop
         id="stop2303"
         style="stop-color:#ffffff;stop-opacity:0.53125"
         offset="1" />
    </linearGradient>
    <linearGradient
       id="linearGradient2288">
      <stop
         id="stop2289"
         style="stop-color:#ede1b9;stop-opacity:1"
         offset="0" />
      <stop
         id="stop2291"
         style="stop-color:#7a7152;stop-opacity:1"
         offset="0.5" />
      <stop
         id="stop2290"
         style="stop-color:#927f39;stop-opacity:1"
         offset="1" />
    </linearGradient>
    <linearGradient
       id="linearGradient2283">
      <stop
         id="stop2284"
         style="stop-color:#1d1100;stop-opacity:0.66666669"
         offset="0" />
      <stop
         id="stop2292"
         style="stop-color:#4f340c;stop-opacity:0.3019608"
         offset="0.52658916" />
      <stop
         id="stop2285"
         style="stop-color:#3d3001;stop-opacity:0"
         offset="1" />
    </linearGradient>
    <radialGradient
       cx="104.16225"
       cy="56.434128"
       r="20.573109"
       fx="86.443153"
       fy="60.640793"
       id="radialGradient2286"
       xlink:href="#linearGradient2283"
       gradientUnits="userSpaceOnUse"
       gradientTransform="matrix(1.9741527,0,0,2.3114896,-20.916312,-3.4052786)" />
    <linearGradient
       x1="106.914"
       y1="137.88609"
       x2="291.10141"
       y2="-13.31976"
       id="linearGradient2287"
       xlink:href="#linearGradient2288"
       gradientUnits="userSpaceOnUse"
       gradientTransform="matrix(1.0438909,0,0,1.3670845,-10.637949,-23.55556)" />
    <linearGradient
       x1="167.39171"
       y1="44.529011"
       x2="423.51007"
       y2="288.53598"
       id="linearGradient2293"
       xlink:href="#linearGradient2288"
       gradientUnits="userSpaceOnUse"
       gradientTransform="matrix(1.0449733,0,0,1.3656685,-10.637949,-23.555563)" />
    <linearGradient
       x1="52.201797"
       y1="222.93559"
       x2="80.842079"
       y2="139.83662"
       id="linearGradient2296"
       xlink:href="#linearGradient2288"
       gradientUnits="userSpaceOnUse"
       gradientTransform="matrix(1.3995052,0,0,1.0197084,-10.637949,-23.55556)" />
    <linearGradient
       x1="66.331886"
       y1="210.39685"
       x2="45.223713"
       y2="233.75758"
       id="linearGradient2297"
       xlink:href="#linearGradient2300"
       gradientUnits="userSpaceOnUse"
       gradientTransform="matrix(1.0721932,0,0,1.3309981,-10.637949,-23.55556)" />
    <linearGradient
       x1="182.66629"
       y1="74.241096"
       x2="226.58182"
       y2="192.06569"
       id="linearGradient2305"
       xlink:href="#linearGradient2300"
       gradientUnits="userSpaceOnUse"
       gradientTransform="matrix(1.1195855,0,0,1.2746568,-10.637949,-23.55556)" />
    <linearGradient
       x1="281.13409"
       y1="52.915524"
       x2="139.00256"
       y2="167.97038"
       id="linearGradient2306"
       xlink:href="#linearGradient2288"
       gradientUnits="userSpaceOnUse"
       gradientTransform="matrix(1.0449733,0,0,1.3656685,-10.637949,-23.555563)" />
    <linearGradient
       x1="90.819748"
       y1="378.08109"
       x2="66.362534"
       y2="257.43356"
       id="linearGradient2309"
       xlink:href="#linearGradient2310"
       gradientUnits="userSpaceOnUse"
       gradientTransform="matrix(1.4583003,0,0,0.97859624,-10.637949,-23.55556)" />
    <linearGradient
       x1="23.702499"
       y1="838.7912"
       x2="24.908026"
       y2="894.38965"
       id="linearGradient2316"
       xlink:href="#linearGradient2310"
       gradientUnits="userSpaceOnUse"
       gradientTransform="matrix(5.1422838,0,0,0.27752012,-10.637949,-23.55556)" />
    <linearGradient
       x1="187.51826"
       y1="82.686104"
       x2="197.01286"
       y2="82.686104"
       id="linearGradient2318"
       xlink:href="#linearGradient2310"
       gradientUnits="userSpaceOnUse"
       gradientTransform="matrix(0.54337778,0,0,2.626326,-10.637949,-23.55556)" />
    <linearGradient
       x1="39.0186"
       y1="273.27609"
       x2="82.800323"
       y2="253.12456"
       id="linearGradient2341"
       xlink:href="#linearGradient2283"
       gradientUnits="userSpaceOnUse"
       gradientTransform="matrix(1.2559087,0,0,1.1362985,-10.637949,-23.55556)" />
    <linearGradient
       x1="24.213547"
       y1="116.09802"
       x2="23.555603"
       y2="104.70263"
       id="linearGradient2460"
       xlink:href="#linearGradient2310"
       gradientUnits="userSpaceOnUse"
       gradientTransform="matrix(2.8627336,0,0,1.5940126,-20.916312,-3.4052786)" />
    <linearGradient
       x1="37.510269"
       y1="233.71439"
       x2="65.396782"
       y2="234.01086"
       id="linearGradient2598"
       xlink:href="#linearGradient2300"
       gradientUnits="userSpaceOnUse"
       gradientTransform="matrix(3.5093894,0,0,1.3002927,-20.916312,-3.4052786)" />
    <radialGradient
       cx="198.31409"
       cy="109.0567"
       r="63.508423"
       fx="143.61588"
       fy="122.04253"
       id="radialGradient3035"
       xlink:href="#linearGradient2283"
       gradientUnits="userSpaceOnUse"
       gradientTransform="matrix(1.1040014,0,0,1.2926497,-10.637949,-23.55556)" />
  </defs>
  <g
     transform="matrix(1.1946075,0,0,1.1946075,-404.62953,-422.41125)"
     id="g2385">
    <path
       d="m 492.32487,361.86033 c -31.52764,0.35036 -52.24175,31.13956 -53.66996,60.24009 -6.77579,15.79859 11.31048,38.0886 -4.25587,48.44292 -9.50728,8.3168 -22.80738,17.11171 -19.87937,31.6308 2.60953,9.40103 -2.11438,16.6297 -12.28203,14.02507 -8.55418,-0.64335 -17.89262,1.99731 -25.87282,-1.14293 5.57483,-10.42858 -7.18489,-8.33216 -4.64431,1.28783 4.89555,8.33142 16.43414,4.01748 24.56775,5.79353 5.81362,0.59134 23.9162,-0.97983 14.95981,6.16019 -7.20563,1.23009 -17.27007,-2.66183 -22.45445,2.34375 5.2648,4.97804 15.37191,1.1311 22.65276,2.34375 6.1329,4.84812 -11.74191,2.35492 -16.89142,3.03926 -5.76743,0.43608 -17.85624,-0.60745 -19.8204,0.71888 -3.57377,-1.69923 5.16444,6.6794 5.67743,12.6603 -0.4457,10.60012 -0.89141,21.20021 -1.33712,31.80031 -5.65908,4.1325 -15.25944,5.5776 -14.03125,14.40625 3.4138,6.0883 4.8456,15.19451 9.47588,19.43053 42.42472,-0.24766 84.84941,-0.49535 127.27412,-0.74303 0.73475,-9.89461 -10.82933,-12.01763 -16.83813,-17.65102 -3.53621,-5.54798 -0.7664,-14.47965 -1.85209,-21.34254 0.2639,-10.76914 -2.47169,-22.12094 3.82216,-31.71886 -0.46677,-4.74303 -13.31144,-3.57422 -18.61821,-6.05541 -12.90336,-3.78062 -26.46424,-1.22775 -39.70123,-1.79467 -0.52548,-6.1227 13.17892,-1.13505 18.42686,-2.75 5.30367,0.9739 24.21249,-0.14749 12.24634,-4.6875 -10.84938,0 -21.6988,0 -32.5482,0 1.66483,-11.0946 -9.33225,10.30551 -8.90625,-5.4375 13.26125,-4.91039 1.74724,-21.35509 8.3127,-30.26247 8.63544,-0.7874 17.56269,0.67114 26.3123,0.76247 15.42758,30.0134 47.24169,60.24365 83.65628,52.27889 34.97666,-8.65585 46.81555,-49.7352 42.86759,-81.65924 -4.11533,-39.96562 -27.37043,-80.4692 -64.45647,-98.03482 -7.00833,-2.87239 -14.6067,-4.39876 -22.1924,-4.08483 z m -74.40625,171.125 c 13.82837,-2.22069 -0.20583,8.43368 0,0 z"
       id="path2367"
       style="fill:#000000;fill-opacity:0.08264465;fill-rule:evenodd;stroke:none" />
    <path
       d="m 486.4375,360.65625 c -24.6265,3.39703 -42.74384,25.74433 -47.51244,49.16544 -1.22151,9.89209 -5.16987,19.83603 -2.31668,29.82729 1.03447,9.35696 5.98914,20.92852 -1.92088,28.56977 -8.73867,7.81393 -20.32324,15.14904 -21.88557,27.81106 -1.46797,5.90715 3.81646,13.44997 -2.41488,17.70633 -4.48607,2.97089 -10.1042,-0.14422 -15.13846,0.88112 -5.56363,0.33689 -11.20611,0.62846 -16.65484,-0.77351 2.63225,-3.57704 -1.77427,-9.87514 -5.65417,-6.23376 -6.52315,4.29098 -1.81579,15.2058 5.55635,14.92861 10.6373,2.00614 21.84785,0.0225 32.34823,2.46845 0.34455,2.89372 -6.73679,1.70903 -9.31291,1.49295 -5.50061,-0.34564 -11.46388,0.008 -15.59375,4.15625 1.39258,2.61159 11.39657,4.39985 4.33669,3.79448 -6.18518,0.0729 -12.37006,0.19179 -18.55544,0.23677 2.02831,6.97601 8.8716,12.63111 6.83781,20.4085 -0.35217,8.37426 -0.70437,16.7485 -1.05656,25.12275 -6.09576,3.41514 -15.63342,7.26553 -14.03125,15.9375 3.78248,6.67265 4.62349,15.77105 11.0625,20.5 42.97917,-0.23806 85.95831,-0.48829 128.9375,-0.71875 1.496,-9.97281 -8.84186,-14.76618 -15.73562,-19.25362 -5.3883,-5.55207 -1.83342,-13.98985 -2.95898,-20.87461 0.0265,-10.75719 -2.05405,-22.58461 4.0071,-32.21552 -3.57387,-7.48075 -13.46786,-4.64336 -19.83009,-7.68108 -2.513,-0.82546 -8.07493,-1.38764 -8.79491,-1.66267 2.94081,-0.84843 7.28402,-2.8557 3.0625,-5.59375 -6.19999,-4.14852 -14.10853,-0.95952 -21.04046,-1.96875 -4.25962,-0.59166 -11.06414,1.19213 -13.70954,-0.90625 -1.21884,-4.8946 -6.17949,0.34107 -8.53125,0.71875 -1.25451,-4.30662 5.5931,-5.47093 5.56362,-9.9172 2.14284,-7.28856 -1.86367,-15.38966 1.68638,-22.3953 8.09257,-0.0484 16.17586,0.20236 24.25,0.75 13.07908,23.82726 33.60617,45.96111 60.93036,52.37064 19.92509,4.32482 42.42814,-3.28714 53.80557,-20.61747 16.97492,-23.30691 17.79257,-54.61272 10.90874,-81.69679 -7.99017,-31.72525 -27.56743,-61.5055 -56.47198,-77.65999 -10.44875,-5.94588 -22.26529,-7.92253 -34.17269,-6.67764 z m -65,173.65625 c -1.79245,0.78027 -1.59232,-0.71794 0,0 z"
       id="path2371"
       style="fill:#000000;fill-opacity:0.08264465;fill-rule:evenodd;stroke:none" />
    <path
       d="m 486.46875,358.15625 c -23.65384,3.73912 -42.22052,23.57219 -48.40515,46.12593 -4.01608,14.57317 -6.26419,30.13395 -2.19532,44.96393 1.55784,7.05022 0.79241,15.58747 -5.9763,19.63439 -9.19751,8.35417 -20.99257,18.05154 -19.39901,31.9395 1.03454,4.22866 1.40185,11.822 -4.98985,11.19781 -7.37912,0.31931 -14.93493,0.14259 -22.22905,0.0575 -2.52502,-1.66771 -1.78251,-7.00718 -6.03629,-7.28269 -7.54197,-2.41232 -12.23253,8.68847 -8.03119,14.25687 3.51677,7.44255 13.24668,6.00072 19.35591,6.82554 -5.08645,0.57482 -2.71205,7.07532 -6.09375,6.1875 -4.22174,0.9405 -11.34193,-2.38542 -13.03125,3.25 3.5548,7.70293 8.7424,15.68993 6.58907,24.53355 -0.25885,6.27009 -0.51771,12.54013 -0.77657,18.8102 -7.14649,3.45058 -16.68834,10.01502 -13.60113,19.21038 3.81926,7.21872 5.24865,16.97434 12.97613,21.16462 43.76042,-0.2382 87.52081,-0.48743 131.28125,-0.71875 2.35354,-10.35538 -6.856,-18.02266 -14.84375,-22.5625 -6.56375,-5.60988 -2.57093,-15.02191 -3.75676,-22.40949 -0.14178,-10.08626 -0.99123,-20.98068 4.38176,-29.99676 -4.08503,-5.23443 -2.69315,-3.69002 1.96875,-0.84375 13.48616,7.16268 29.4627,10.71696 44.42072,6.29718 16.22363,-4.13174 29.8002,-16.22797 36.20987,-31.65198 12.9146,-25.42782 10.91153,-55.82923 2.31477,-82.29674 -10.03654,-30.2627 -30.8069,-58.29379 -60.11588,-72.05197 -9.33816,-4.24465 -19.87046,-5.18815 -30.01698,-4.64024 z m -36.25,139.15625 c 8.62349,15.35688 20.05609,29.26273 34.40625,39.59375 -5.64847,-2.33739 -12.44544,-1.82113 -17.84375,-4.34375 0.33256,-3.91537 -1.78499,-7.49196 -6.05035,-7.38877 -9.55319,-2.87758 -19.82852,0.76194 -29.3992,-1.5379 -4.36475,-2.36842 -6.13389,-1.9884 -3.3317,-6.76083 1.57527,-6.64409 -0.76122,-13.6082 1.0625,-20.21875 7.05208,0.21875 14.10417,0.4375 21.15625,0.65625 z"
       id="path2375"
       style="fill:#000000;fill-opacity:0.08264465;fill-rule:evenodd;stroke:none" />
    <path
       d="m 486.25,355.75 c -25.79101,4.56407 -46.20004,26.80075 -51.35511,52.07471 -4.10986,15.18286 -4.18241,31.29069 -0.87345,46.638 0.56422,11.20822 -11.54062,16.0291 -17.14135,24.03205 -6.93761,7.2259 -10.51303,17.44031 -8.22384,27.34899 -1.18444,6.25533 -8.6309,2.92817 -12.98532,3.76246 -4.16604,-0.99344 -11.12612,2.56393 -12.54593,-2.91871 -3.15451,-5.75546 -11.48625,-6.00408 -15.17815,-0.69331 -6.10299,7.46993 -0.87063,20.21648 8.86073,21.03583 5.19685,-0.0401 7.97581,2.75315 1.06742,2.75123 -4.75922,-1.55055 -12.66608,1.95775 -10.05327,7.79202 5.13216,8.56041 6.97621,18.65702 5.51562,28.54967 -0.48336,5.14048 1.1148,11.92489 -5.15208,14.02873 -6.6162,3.633 -11.30074,11.39997 -8.60705,18.99136 3.86201,8.00197 6.28966,19.33398 15.85928,22.32572 44.21875,-0.23827 88.43748,-0.48701 132.65625,-0.71875 3.20022,-11.49328 -5.92709,-21.62962 -15.3125,-26.78125 -5.54132,-7.67493 -1.90733,-17.67622 -3.07419,-26.41175 -0.14908,-7.58251 0.53149,-15.3873 3.85544,-22.307 13.93738,6.74507 30.09002,10.23417 45.24267,5.66876 17.03523,-4.26289 30.95223,-17.29081 37.83507,-33.28746 13.8928,-28.99912 10.46209,-63.56398 -1.34039,-92.65191 -11.86102,-28.20661 -32.85736,-54.4324 -61.9561,-65.79189 C 504.646,355.97059 495.45004,355.35162 486.25,355.75 z M 433.4375,499 c 5.25338,1.46397 11.67573,-1.02987 16.22149,2.02883 7.07914,11.58017 15.45175,22.47024 25.84101,31.28367 -4.67717,0.28735 -6.72822,-3.073 -8.57777,-6.56564 -7.90176,-6.19216 -18.92808,-3.45826 -28.2538,-3.84714 -3.21882,-0.58742 -11.15538,-0.24401 -8.34536,-5.35564 1.49738,-5.62454 -0.89409,-12.67302 1.86443,-17.51283 0.41691,0.009 0.83319,-0.0323 1.25,-0.0313 z"
       id="path2384"
       style="fill:#000000;fill-opacity:0.08264465;fill-rule:evenodd;stroke:none" />
  </g>
  <rect
     width="5.1591525"
     height="24.935904"
     rx="0.1604521"
     ry="12.467952"
     x="91.25531"
     y="193.60504"
     id="rect2317"
     style="fill:url(#linearGradient2318);fill-opacity:1;fill-rule:evenodd;stroke-width:1pt" />
  <path
     d="m 42.867102,178.70352 -1.824038,7.29614 c -0.875177,3.50072 3.084544,8.32497 6.688133,8.51216 l 46.81692,2.43205 c 4.438929,0.2306 9.851613,-4.67698 9.728193,-9.12017 l -0.60801,-21.88842 c -0.0687,-2.47297 1.78525,-6.20368 4.25608,-6.08013 l 36.48072,1.82404 -13.98428,-40.1288 -28.57656,24.9285 c -5.192694,4.52979 -9.943425,11.3529 -9.72819,18.24035 l 0.60801,19.45639 c 0.05836,1.86761 -1.779782,4.22594 -3.648072,4.25609 l -37.696739,0.60799 c -1.911742,0.0308 -5.468722,-1.22618 -4.864095,-3.04005 l 2.432047,-7.29614 -6.080119,0 z"
     id="path2295"
     style="fill:url(#linearGradient2296);fill-opacity:1;fill-rule:evenodd;stroke-width:2.25;stroke-linecap:round;stroke-linejoin:round" />
  <path
     d="M 166.90154,7.8521588 C 216.75852,-9.9828531 260.53538,40.684811 278.77573,84.461674 297.01608,129.45455 294.58405,196.74119 249.59115,219.44033 202.16622,242.13945 149.8772,197.55189 130.42082,145.26285 110.96444,94.189847 118.26059,24.471154 166.90154,7.8521588 z"
     id="path2280"
     style="fill:url(#linearGradient2293);fill-opacity:1;fill-rule:evenodd;stroke:url(#linearGradient2306);stroke-width:1.19460754pt" />
  <path
     d="M 170.34925,21.241304 C 215.30858,5.1582956 254.78502,50.848657 271.23355,90.325105 287.68208,130.89814 285.48893,191.57492 244.9159,212.0442 202.14973,232.51352 154.99729,192.30599 137.4522,145.15354 119.9071,99.097661 126.48652,36.227751 170.34925,21.241304 z"
     id="path2281"
     style="fill:url(#linearGradient2287);fill-opacity:1;fill-rule:evenodd;stroke-width:0.90176554pt" />
  <path
     d="m 155.50979,46.982141 c -19.91067,14.710689 -26.42074,59.768379 -8.46795,108.523249 17.86503,48.05417 84.82209,48.56437 102.83511,33.37969 18.10077,-14.484 45.14497,-52.14998 6.82257,-111.875551 C 218.55265,18.685331 176.02375,32.195896 155.50979,46.982141 z"
     id="path2282"
     style="fill:url(#radialGradient3035);fill-opacity:1;fill-rule:evenodd;stroke-width:1pt" />
  <path
     d="m 242.77383,174.75118 c 28.43643,-37.02661 -10.30987,-118.999794 14.05279,-83.172355 22.64294,35.827455 19.00331,93.794165 -5.07272,112.997675 -29.23519,26.08239 -71.94151,-14.04437 -91.14503,-34.39436 -19.2035,-20.35 53.72852,40.3796 82.16496,4.56904 z"
     id="path2304"
     style="fill:url(#linearGradient2305);fill-opacity:1;fill-rule:evenodd;stroke-width:1pt" />
  <path
     d="m 43.533152,212.522 12.038022,6.019 123.389726,0.42993 -33.53449,-7.30881 -101.893258,0.85988 z"
     id="path2315"
     style="fill:url(#linearGradient2316);fill-opacity:1;fill-rule:evenodd;stroke-width:1pt" />
  <path
     d="m 54.711314,217.25123 46.862306,0.85985 3.86936,-21.06655 5.15916,20.63662 69.21861,1.2898 -6.019,14.18767 0.85985,50.30174 20.63661,14.18767 1.2898,8.16863 -153.484789,0.85988 -9.888375,-23.21618 1.289789,-8.16866 15.477457,-9.02851 1.719718,-40.8433 -9.028517,-12.89789 12.038021,4.72923 z"
     id="path2307"
     style="fill:url(#linearGradient2309);fill-opacity:1;fill-rule:evenodd;stroke-width:1pt" />
  <path
     d="m 61.160254,280.45085 -14.617598,17.6271 -10.318303,-21.06653 14.617596,-9.88838 10.318305,13.32781 z"
     id="path2308"
     style="fill:url(#linearGradient2297);fill-opacity:1;fill-rule:evenodd;stroke-width:1pt" />
  <rect
     width="89.85524"
     height="5.5890813"
     rx="2.7945406"
     ry="2.7945406"
     x="61.590183"
     y="203.06358"
     id="rect2314"
     style="fill-rule:evenodd;stroke-width:1pt" />
  <path
     d="m 113.39649,232.8166 -46.208912,1.21604 0,46.20889 -13.376262,21.88842 76.609504,-1.21601 -17.02433,-68.09734 z"
     id="path2340"
     style="fill:url(#linearGradient2341);fill-opacity:1;fill-rule:evenodd;stroke-width:1pt" />
  <path
     d="m 58.995416,169.60556 c 0,3.24581 -6.079814,10.58418 -12.231386,10.58418 -6.151573,0 -10.056917,-7.33837 -10.056917,-10.58418 0,-3.24581 3.905344,-1.17602 10.056917,-1.17602 6.151572,0 12.231386,-2.06979 12.231386,1.17602 z"
     id="path2459"
     style="fill:url(#linearGradient2460);fill-opacity:1;fill-rule:evenodd;stroke-width:1pt" />
  <path
     d="m 154.13556,86.241192 c -11.53361,8.521427 -15.30469,34.621928 -4.90521,62.864078 10.34865,27.83625 49.13477,28.13179 59.56914,19.33578 10.48519,-8.39012 26.15102,-30.20881 3.95207,-64.80594 -22.09726,-33.785348 -46.73291,-25.959116 -58.616,-17.393918 z"
     id="path2534"
     style="fill:url(#radialGradient2286);fill-opacity:1;fill-rule:evenodd;stroke-width:1pt" />
  <path
     d="m 191.69317,303.19048 -52.38015,-1.25419 -2.76579,-19.17839 29.72261,1.4404 25.42333,18.99218 z"
     id="path2597"
     style="fill:url(#linearGradient2598);fill-opacity:1;fill-rule:evenodd;stroke-width:1pt" />
  <metadata
     id="metadata58">
    <rdf:RDF>
      <cc:Work>
        <dc:format>image/svg+xml</dc:format>
        <dc:type
           rdf:resource="http://purl.org/dc/dcmitype/StillImage" />
        <cc:license
           rdf:resource="http://creativecommons.org/licenses/publicdomain/" />
        <dc:publisher>
          <cc:Agent
             rdf:about="http://openclipart.org/">
            <dc:title>Open Clip Art Library</dc:title>
          </cc:Agent>
        </dc:publisher>
        <dc:title></dc:title>
        <dc:date>2009-05-01T00:45:54</dc:date>
        <dc:description>A Gramophone icon by Andrew Fitzsimon. Etiquette Icon set. From 0.18 OCAL database.</dc:description>
        <dc:source>http://openclipart.org/detail/25563/gramophone-by-anonymous-25563</dc:source>
        <dc:creator>
          <cc:Agent>
            <dc:title>Anonymous</dc:title>
          </cc:Agent>
        </dc:creator>
        <dc:subject>
          <rdf:Bag>
            <rdf:li>clip art</rdf:li>
            <rdf:li>clipart</rdf:li>
            <rdf:li>etiquette</rdf:li>
            <rdf:li>etiquette</rdf:li>
            <rdf:li>gramophone</rdf:li>
            <rdf:li>gramophone</rdf:li>
            <rdf:li>icon</rdf:li>
            <rdf:li>icon</rdf:li>
            <rdf:li>image</rdf:li>
            <rdf:li>media</rdf:li>
            <rdf:li>music</rdf:li>
            <rdf:li>music</rdf:li>
            <rdf:li>png</rdf:li>
            <rdf:li>public domain</rdf:li>
            <rdf:li>sound</rdf:li>
            <rdf:li>sound</rdf:li>
            <rdf:li>svg</rdf:li>
          </rdf:Bag>
        </dc:subject>
      </cc:Work>
      <cc:License
         rdf:about="http://creativecommons.org/licenses/publicdomain/">
        <cc:permits
           rdf:resource="http://creativecommons.org/ns#Reproduction" />
        <cc:permits
           rdf:resource="http://creativecommons.org/ns#Distribution" />
        <cc:permits
           rdf:resource="http://creativecommons.org/ns#DerivativeWorks" />
      </cc:License>
    </rdf:RDF>
  </metadata>
</svg>
